<svg width="24" height="24" viewBox="0 0 24 24" fill="none" xmlns="http://www.w3.org/2000/svg">
    <path d="M16.5312 12.7812C16.9627 12.7812 17.3125 12.4315 17.3125 12C17.3125 11.5685 16.9627 11.2188 16.5312 11.2188C16.0998 11.2188 15.75 11.5685 15.75 12C15.75 12.4315 16.0998 12.7812 16.5312 12.7812Z" fill="white"/>
    <path d="M5.90625 20.5938H16.5312C17.9214 20.5938 19.2177 19.8456 19.9144 18.6412C20.1305 18.2677 20.0029 17.7898 19.6294 17.5737C19.2559 17.3577 18.778 17.4853 18.5619 17.8588C18.1436 18.582 17.3655 19.0312 16.5312 19.0312H5.90625C4.61391 19.0312 3.5625 17.9798 3.5625 16.6875V7.3125C3.5625 6.02016 4.61391 4.96875 5.90625 4.96875H16.5312C17.3655 4.96875 18.1436 5.41801 18.5619 6.14121C18.778 6.51473 19.2559 6.6423 19.6294 6.42625C20.0029 6.2102 20.1305 5.7323 19.9144 5.35879C19.2177 4.15441 17.9214 3.40625 16.5312 3.40625H5.90625C3.75234 3.40625 2 5.15859 2 7.3125V16.6875C2 18.8414 3.75234 20.5938 5.90625 20.5938Z" fill="white"/>
    <path d="M19.6562 8.09375H16.5312C14.3773 8.09375 12.625 9.84609 12.625 12C12.625 14.1539 14.3773 15.9062 16.5312 15.9062H19.6562C20.9486 15.9062 22 14.8548 22 13.5625V10.4375C22 9.14516 20.9486 8.09375 19.6562 8.09375ZM20.4375 13.5625C20.4375 13.9933 20.087 14.3438 19.6562 14.3438H16.5312C15.2389 14.3438 14.1875 13.2923 14.1875 12C14.1875 10.7077 15.2389 9.65625 16.5312 9.65625H19.6562C20.087 9.65625 20.4375 10.0067 20.4375 10.4375V13.5625Z" fill="white"/>
</svg>
