<svg width="34" height="34" viewBox="0 0 34 34" fill="none" xmlns="http://www.w3.org/2000/svg">
    <circle cx="17" cy="17" r="16.5" fill="white" fill-opacity="0.1" stroke="url(#paint0_linear_64_371)"/>
    <path d="M22.8995 13.8282C22.8346 13.9882 22.7402 14.1328 22.622 14.2537L15.7046 21.5774C15.5781 21.7114 15.4279 21.8177 15.2626 21.8902C15.0973 21.9627 14.9201 22 14.7412 22C14.5623 22 14.3851 21.9627 14.2198 21.8902C14.0545 21.8177 13.9043 21.7114 13.7778 21.5774L10.3625 17.9621C10.1303 17.7161 9.99988 17.3826 10 17.0349C10.0001 16.6872 10.1307 16.3537 10.3631 16.1079C10.5954 15.8621 10.9105 15.7241 11.239 15.7242C11.4017 15.7243 11.5627 15.7583 11.713 15.8242C11.8632 15.8902 11.9997 15.9868 12.1147 16.1086L14.7412 18.8889L20.8709 12.4002C20.9852 12.275 21.1218 12.1751 21.2729 12.1064C21.424 12.0377 21.5865 12.0016 21.7509 12C21.9153 11.9985 22.0784 12.0317 22.2306 12.0976C22.3828 12.1635 22.521 12.2609 22.6373 12.3839C22.7536 12.507 22.8455 12.6534 22.9078 12.8145C22.9701 12.9756 23.0014 13.1482 23 13.3222C22.9985 13.4963 22.9644 13.6683 22.8995 13.8282Z" fill="white"/>
    <defs>
        <linearGradient id="paint0_linear_64_371" x1="17" y1="1" x2="17" y2="33" gradientUnits="userSpaceOnUse">
            <stop stop-color="rgba(142, 142, 142, 1)"/>
            <stop offset="1" stop-color="#686E8D" stop-opacity="0"/>
        </linearGradient>
    </defs>
</svg>
