<svg width="24" height="24" viewBox="0 0 24 24" fill="none" xmlns="http://www.w3.org/2000/svg">
    <g clip-path="url(#clip0_21_728)">
        <path d="M12.4606 0.5C18.7903 0.5 23.9213 5.63093 23.9213 11.9606C23.9213 18.2903 18.7903 23.4213 12.4606 23.4213C6.13093 23.4213 1 18.2903 1 11.9606C1 5.63093 6.13093 0.5 12.4606 0.5ZM12.4606 2.79213C10.029 2.79213 7.69695 3.75809 5.97752 5.47752C4.25809 7.19695 3.29213 9.52899 3.29213 11.9606C3.29213 14.3923 4.25809 16.7243 5.97752 18.4437C7.69695 20.1632 10.029 21.1291 12.4606 21.1291C14.8923 21.1291 17.2243 20.1632 18.9437 18.4437C20.6632 16.7243 21.6291 14.3923 21.6291 11.9606C21.6291 9.52899 20.6632 7.19695 18.9437 5.47752C17.2243 3.75809 14.8923 2.79213 12.4606 2.79213ZM12.4606 5.08425C12.7413 5.08429 13.0123 5.18735 13.222 5.37388C13.4318 5.56041 13.5658 5.81745 13.5987 6.09623L13.6067 6.23032V11.4862L16.7091 14.5886C16.9146 14.7948 17.034 15.0715 17.0429 15.3626C17.0517 15.6536 16.9495 15.9371 16.7569 16.1555C16.5644 16.3739 16.2959 16.5109 16.006 16.5385C15.7161 16.5661 15.4266 16.4823 15.1963 16.3042L15.0886 16.2091L11.6504 12.7709C11.4722 12.5926 11.3578 12.3606 11.3249 12.1108L11.3146 11.9606V6.23032C11.3146 5.92636 11.4353 5.63486 11.6502 5.41993C11.8652 5.205 12.1567 5.08425 12.4606 5.08425Z" fill="white"/>
    </g>
    <defs>
        <clipPath id="clip0_21_728">
            <rect width="24" height="24" fill="white"/>
        </clipPath>
    </defs>
</svg>
