<svg width="25" height="24" viewBox="0 0 25 24" fill="none" xmlns="http://www.w3.org/2000/svg">
    <path d="M4.43359 22C4.00211 22 3.65234 21.6502 3.65234 21.2188C3.65234 17.2986 6.8416 14.1094 10.7617 14.1094H11.9336C12.7358 14.1094 13.5236 14.2422 14.2749 14.5041C14.6823 14.6461 14.8975 15.0916 14.7554 15.499C14.6134 15.9064 14.1679 16.1216 13.7605 15.9795C13.1749 15.7754 12.5603 15.6719 11.9336 15.6719H10.7617C7.70316 15.6719 5.21484 18.1602 5.21484 21.2188C5.21484 21.6502 4.86508 22 4.43359 22ZM16.543 7.27344C16.543 4.36566 14.1773 2 11.2695 2C8.36176 2 5.99609 4.36566 5.99609 7.27344C5.99609 10.1812 8.36176 12.5469 11.2695 12.5469C14.1773 12.5469 16.543 10.1812 16.543 7.27344ZM14.9805 7.27344C14.9805 9.31965 13.3157 10.9844 11.2695 10.9844C9.22332 10.9844 7.55859 9.31965 7.55859 7.27344C7.55859 5.22723 9.22332 3.5625 11.2695 3.5625C13.3157 3.5625 14.9805 5.22723 14.9805 7.27344ZM20.5664 17.3125H18.2227V14.9688C18.2227 14.5373 17.8729 14.1875 17.4414 14.1875C17.0099 14.1875 16.6602 14.5373 16.6602 14.9688V17.3125H14.3164C13.8849 17.3125 13.5352 17.6623 13.5352 18.0938C13.5352 18.5252 13.8849 18.875 14.3164 18.875H16.6602V21.2188C16.6602 21.6502 17.0099 22 17.4414 22C17.8729 22 18.2227 21.6502 18.2227 21.2188V18.875H20.5664C20.9979 18.875 21.3477 18.5252 21.3477 18.0938C21.3477 17.6623 20.9979 17.3125 20.5664 17.3125Z" fill="white"/>
</svg>
