<svg width="24" height="24" viewBox="0 0 24 24" fill="none" xmlns="http://www.w3.org/2000/svg">
    <g clip-path="url(#clip0_100_1653)">
        <path opacity="0.1" d="M11.9984 2.625L11.0391 3.4L18.2484 9.5V21.0625H20.1234V9.5L11.9984 2.625Z" fill="white"/>
        <path d="M21.7758 9.64445L18.5633 6.96945V4.8132C18.5633 4.64744 18.4974 4.48847 18.3802 4.37126C18.263 4.25405 18.104 4.1882 17.9383 4.1882C17.7725 4.1882 17.6136 4.25405 17.4963 4.37126C17.3791 4.48847 17.3133 4.64744 17.3133 4.8132V5.9257L13.2008 2.5007C12.8639 2.22008 12.4393 2.06641 12.0008 2.06641C11.5623 2.06641 11.1377 2.22008 10.8008 2.5007L2.22578 9.64445C2.09815 9.75054 2.01788 9.90299 2.00264 10.0683C1.98741 10.2335 2.03845 10.3981 2.14453 10.5257C2.25062 10.6533 2.40306 10.7336 2.56833 10.7488C2.7336 10.7641 2.89815 10.713 3.02578 10.607L11.6008 3.46008C11.7131 3.36654 11.8546 3.31531 12.0008 3.31531C12.1469 3.31531 12.2885 3.36654 12.4008 3.46008L19.5008 9.3757V20.1257C19.5008 20.2915 19.4349 20.4504 19.3177 20.5676C19.2005 20.6849 19.0415 20.7507 18.8758 20.7507H15.7508V13.8757C15.7508 13.3784 15.5532 12.9015 15.2016 12.5499C14.85 12.1982 14.3731 12.0007 13.8758 12.0007H10.1258C9.6285 12.0007 9.15159 12.1982 8.79996 12.5499C8.44833 12.9015 8.25078 13.3784 8.25078 13.8757V20.7507H5.12578C4.96002 20.7507 4.80105 20.6849 4.68384 20.5676C4.56663 20.4504 4.50078 20.2915 4.50078 20.1257V12.6257C4.50078 12.4599 4.43493 12.301 4.31772 12.1838C4.20051 12.0666 4.04154 12.0007 3.87578 12.0007C3.71002 12.0007 3.55105 12.0666 3.43384 12.1838C3.31663 12.301 3.25078 12.4599 3.25078 12.6257V20.1257C3.25078 20.623 3.44833 21.0999 3.79996 21.4515C4.15159 21.8032 4.6285 22.0007 5.12578 22.0007H18.8758C19.3731 22.0007 19.85 21.8032 20.2016 21.4515C20.5532 21.0999 20.7508 20.623 20.7508 20.1257V10.4195L20.9758 10.607C21.0882 10.7001 21.2297 10.751 21.3758 10.7507C21.5045 10.751 21.6301 10.7115 21.7355 10.6376C21.8409 10.5638 21.921 10.4593 21.9648 10.3382C22.0085 10.2172 22.0139 10.0856 21.98 9.96144C21.9462 9.83727 21.8749 9.72657 21.7758 9.64445ZM9.50078 20.7507V13.8757C9.50078 13.7099 9.56663 13.551 9.68384 13.4338C9.80105 13.3166 9.96002 13.2507 10.1258 13.2507H13.8758C14.0415 13.2507 14.2005 13.3166 14.3177 13.4338C14.4349 13.551 14.5008 13.7099 14.5008 13.8757V20.7507H9.50078Z" fill="white"/>
    </g>
    <defs>
        <clipPath id="clip0_100_1653">
            <rect width="20" height="20" fill="white" transform="translate(2 2)"/>
        </clipPath>
    </defs>
</svg>
