<svg width="25" height="24" viewBox="0 0 25 24" fill="none" xmlns="http://www.w3.org/2000/svg">
    <path d="M22.7499 6.80466C22.7709 4.64756 20.361 3.2462 18.5037 4.31803C18.147 2.98476 16.9285 2 15.4843 2H10.0156C8.57137 2 7.35286 2.98476 6.99623 4.31803C6.58365 4.08573 6.10779 3.95311 5.60155 3.95311C4.02921 3.95311 2.75 5.23233 2.75 6.80466C2.75 11.6524 5.52713 13.6422 5.78471 13.8162C6.29029 14.1716 7.01408 13.7952 7.00775 13.1718C7.00775 12.8983 6.86724 12.6577 6.65455 12.5181C6.60373 12.4825 6.03928 12.0763 5.4842 11.2149C4.70671 10.0084 4.31249 8.52453 4.31249 6.80466C4.31249 6.09388 4.89077 5.5156 5.60155 5.5156C6.31232 5.5156 6.8906 6.09388 6.8906 6.80466V8.48434C6.79681 11.6351 9.32399 14.7684 11.9687 16.3529V18.4843C12.0099 19.5208 13.4903 19.5201 13.5312 18.4843V16.3582C16.2093 14.7839 18.6993 11.6701 18.6093 8.48434V6.80466C18.6093 6.09388 19.1876 5.5156 19.8983 5.5156C20.6091 5.5156 21.1874 6.09388 21.1874 6.80466C21.1874 8.52453 20.7932 10.0084 20.0157 11.2149C19.4606 12.0763 18.8961 12.4826 18.8453 12.5181C18.6326 12.6577 18.4921 12.8984 18.4921 13.1718C18.4858 13.7953 19.2099 14.1716 19.7152 13.8162C19.9728 13.6422 22.7499 11.6524 22.7499 6.80466ZM17.0468 8.48434C17.138 11.1159 14.949 13.6949 12.7547 15.0008C10.5784 13.6757 8.36333 11.0898 8.45309 8.48434V5.12498C8.45309 4.26342 9.15403 3.56249 10.0156 3.56249H15.4843C16.3459 3.56249 17.0468 4.26342 17.0468 5.12498V8.48434ZM17.4374 21.2186C17.4374 21.6501 17.0877 21.9999 16.6562 21.9999H8.84371C7.80716 21.9586 7.80794 20.4783 8.84371 20.4374H16.6562C17.0877 20.4374 17.4374 20.7872 17.4374 21.2186ZM15.4843 6.33591C15.4843 6.76739 15.1345 7.11716 14.7031 7.11716H10.7968C9.76027 7.07591 9.76105 5.59557 10.7968 5.55467H14.7031C15.1345 5.55467 15.4843 5.90443 15.4843 6.33591Z" fill="#FFFFFF"/>
</svg>
