<svg width="25" height="24" viewBox="0 0 25 24" fill="none" xmlns="http://www.w3.org/2000/svg">
    <g clip-path="url(#clip0_2056_21)">
        <path d="M12.25 3.29167V8.04167C12.2488 8.95383 11.9333 9.83771 11.3564 10.5443C10.7796 11.2509 9.97679 11.7371 9.08333 11.9208V20.7083C9.08333 20.9183 8.99992 21.1197 8.85145 21.2681C8.70299 21.4166 8.50162 21.5 8.29166 21.5C8.0817 21.5 7.88034 21.4166 7.73187 21.2681C7.5834 21.1197 7.49999 20.9183 7.49999 20.7083V11.9208C6.60653 11.7371 5.80373 11.2509 5.2269 10.5443C4.65007 9.83771 4.33448 8.95383 4.33333 8.04167V3.29167C4.33333 3.0817 4.41674 2.88034 4.5652 2.73187C4.71367 2.58341 4.91503 2.5 5.12499 2.5C5.33496 2.5 5.53632 2.58341 5.68479 2.73187C5.83325 2.88034 5.91666 3.0817 5.91666 3.29167V8.04167C5.91869 8.53112 6.07189 9.008 6.35531 9.40705C6.63873 9.80611 7.03853 10.1079 7.49999 10.271V3.29167C7.49999 3.0817 7.5834 2.88034 7.73187 2.73187C7.88034 2.58341 8.0817 2.5 8.29166 2.5C8.50162 2.5 8.70299 2.58341 8.85145 2.73187C8.99992 2.88034 9.08333 3.0817 9.08333 3.29167V10.271C9.5448 10.1079 9.94459 9.80611 10.228 9.40705C10.5114 9.008 10.6646 8.53112 10.6667 8.04167V3.29167C10.6667 3.0817 10.7501 2.88034 10.8985 2.73187C11.047 2.58341 11.2484 2.5 11.4583 2.5C11.6683 2.5 11.8697 2.58341 12.0181 2.73187C12.1666 2.88034 12.25 3.0817 12.25 3.29167ZM20.1667 10.4167C20.1313 11.9212 19.7569 13.3983 19.0716 14.7382C18.3863 16.078 17.4076 17.246 16.2083 18.1552V20.7083C16.2083 20.9183 16.1249 21.1197 15.9765 21.2681C15.828 21.4166 15.6266 21.5 15.4167 21.5C15.2067 21.5 15.0053 21.4166 14.8569 21.2681C14.7084 21.1197 14.625 20.9183 14.625 20.7083V4.08333C14.6179 3.78587 14.6992 3.49299 14.8586 3.24174C15.0179 2.99048 15.2483 2.79213 15.5204 2.67179C15.833 2.54462 16.1758 2.51127 16.5071 2.5758C16.8383 2.64033 17.1436 2.79996 17.3855 3.03517C19.2217 5.04992 20.2168 7.69119 20.1667 10.4167ZM18.5833 10.4167C18.6058 8.09879 17.7583 5.85673 16.2083 4.13321V16.0138C17.692 14.524 18.5429 12.5188 18.5833 10.4167Z" fill="white"/>
    </g>
    <defs>
        <clipPath id="clip0_2056_21">
            <rect width="19" height="19" fill="white" transform="translate(2.75 2.5)"/>
        </clipPath>
    </defs>
</svg>
