<svg width="15" height="15" viewBox="0 0 15 15" fill="none" xmlns="http://www.w3.org/2000/svg">
    <g clip-path="url(#clip0_142_3892)">
        <path d="M7.5 0C3.35813 0 0 3.35813 0 7.5C0 11.6419 3.35813 15 7.5 15C11.6419 15 15 11.6419 15 7.5C15 3.35813 11.6419 0 7.5 0ZM4.93875 4.18563H10.0612C11.0019 4.18563 11.6 5.20312 11.1269 6.02313L7.965 11.5013C7.91776 11.5827 7.84994 11.6504 7.76833 11.6974C7.68672 11.7444 7.59419 11.7692 7.5 11.7692C7.40581 11.7692 7.31328 11.7444 7.23167 11.6974C7.15006 11.6504 7.08224 11.5827 7.035 11.5013L3.87437 6.02313C3.40062 5.20188 3.9975 4.18563 4.93875 4.18563ZM7.96625 5.12063V9.85812L8.655 8.52813L10.315 5.55562C10.3404 5.51123 10.3537 5.4609 10.3534 5.40974C10.3531 5.35858 10.3394 5.3084 10.3135 5.26426C10.2876 5.22013 10.2506 5.1836 10.2061 5.15838C10.1615 5.13316 10.1112 5.12014 10.06 5.12063H7.96625ZM4.9375 5.12187C4.88645 5.12132 4.83616 5.13425 4.79171 5.15936C4.74726 5.18448 4.71023 5.22088 4.68436 5.26488C4.65848 5.30889 4.64469 5.35895 4.64436 5.41001C4.64403 5.46106 4.65719 5.51129 4.6825 5.55562L6.34375 8.52687L7.0325 9.85812V5.12187H4.9375Z" fill="white"/>
    </g>
    <defs>
        <clipPath id="clip0_142_3892">
            <rect width="15" height="15" fill="white"/>
        </clipPath>
    </defs>
</svg>
