<svg
        width="24"
        height="24"
        viewBox="0 0 24 24"
        fill="none"
        xmlns="http://www.w3.org/2000/svg"
>
    <circle
            cx="11.8"
            cy="11.8"
            r="11.25"
            fill="white"
            fill-opacity="0.1"
            stroke="url(#paint0_linear_2195_676)"
            stroke-width="0.9"
    />
    <circle
            cx="11.8"
            cy="11.8"
            r="11.25"
            fill="white"
            fill-opacity="0.1"
            stroke="url(#paint1_linear_2195_676)"
            stroke-width="0.9"
    />
    <path
            d="M17.1095 8.94619C17.0511 9.09012 16.9662 9.2203 16.8598 9.32913L10.6342 15.9205C10.5203 16.041 10.3851 16.1367 10.2364 16.2019C10.0876 16.2672 9.92813 16.3008 9.76709 16.3008C9.60604 16.3008 9.44658 16.2672 9.2978 16.2019C9.14903 16.1367 9.01385 16.041 8.9 15.9205L5.82622 12.6667C5.61724 12.4453 5.4999 12.1451 5.5 11.8322C5.5001 11.5192 5.61765 11.2191 5.82677 10.9979C6.0359 10.7767 6.31948 10.6525 6.61512 10.6526C6.76151 10.6526 6.90645 10.6832 7.04168 10.7426C7.1769 10.8019 7.29976 10.8889 7.40323 10.9985L9.76709 13.5008L15.2839 7.66095C15.3867 7.54827 15.5096 7.45839 15.6456 7.39656C15.7816 7.33473 15.9278 7.30219 16.0758 7.30083C16.2238 7.29946 16.3706 7.32931 16.5075 7.38863C16.6445 7.44795 16.7689 7.53555 16.8736 7.64633C16.9782 7.7571 17.061 7.88882 17.117 8.03381C17.173 8.1788 17.2012 8.33415 17.2 8.4908C17.1987 8.64744 17.1679 8.80225 17.1095 8.94619Z"
            fill="white"
    />
    <defs>
        <linearGradient
                id="paint0_linear_2195_676"
                x1="11.8"
                y1="1"
                x2="11.8"
                y2="22.6"
                gradientUnits="userSpaceOnUse"
        >
            <stop stop-color="#31395F" />
            <stop offset="1" stop-color="#686E8D" stop-opacity="0" />
        </linearGradient>
        <linearGradient
                id="paint1_linear_2195_676"
                x1="11.8"
                y1="1"
                x2="11.8"
                y2="22.6"
                gradientUnits="userSpaceOnUse"
        >
            <stop stop-color="#31395F" />
            <stop offset="1" stop-color="#686E8D" stop-opacity="0" />
        </linearGradient>
    </defs>
</svg>