<svg width="25" height="24" viewBox="0 0 25 24" fill="none" xmlns="http://www.w3.org/2000/svg">
    <path d="M12.25 7.875C12.7246 7.875 13.1094 7.49026 13.1094 7.01562V6.00844C14.1096 5.65369 14.8281 4.69845 14.8281 3.57812C14.8281 2.15655 13.6716 1 12.25 1C10.8284 1 9.67188 2.15655 9.67188 3.57812C9.67188 4.69845 10.3904 5.65369 11.3906 6.00844V7.01562C11.3906 7.49026 11.7754 7.875 12.25 7.875ZM12.25 2.71875C12.7239 2.71875 13.1094 3.10427 13.1094 3.57812C13.1094 4.05198 12.7239 4.4375 12.25 4.4375C11.7761 4.4375 11.3906 4.05198 11.3906 3.57812C11.3906 3.10427 11.7761 2.71875 12.25 2.71875Z" fill="white"/>
    <path d="M17.4062 2.71875C16.9316 2.71875 16.5469 3.10349 16.5469 3.57812C16.5469 4.05276 16.9316 4.4375 17.4062 4.4375C18.8278 4.4375 19.9844 5.59405 19.9844 7.01562V18.7031C19.9844 20.1247 18.8278 21.2812 17.4062 21.2812H7.09375C5.67217 21.2812 4.51562 20.1247 4.51562 18.7031V7.01562C4.51562 5.59405 5.67217 4.4375 7.09375 4.4375C7.56838 4.4375 7.95312 4.05276 7.95312 3.57812C7.95312 3.10349 7.56838 2.71875 7.09375 2.71875C4.72441 2.71875 2.79688 4.64633 2.79688 7.01562V18.7031C2.79688 21.0724 4.72441 23 7.09375 23H17.4062C19.7756 23 21.7031 21.0724 21.7031 18.7031V7.01562C21.7031 4.64633 19.7756 2.71875 17.4062 2.71875Z" fill="white"/>
    <path d="M15.6875 9.42188H8.8125C8.33787 9.42188 7.95312 9.80662 7.95312 10.2812C7.95312 10.7559 8.33787 11.1406 8.8125 11.1406H15.6875C16.1621 11.1406 16.5469 10.7559 16.5469 10.2812C16.5469 9.80662 16.1621 9.42188 15.6875 9.42188Z" fill="white"/>
    <path d="M15.6875 16.2969H8.8125C8.33787 16.2969 7.95312 16.6816 7.95312 17.1562C7.95312 17.6309 8.33787 18.0156 8.8125 18.0156H15.6875C16.1621 18.0156 16.5469 17.6309 16.5469 17.1562C16.5469 16.6816 16.1621 16.2969 15.6875 16.2969Z" fill="white"/>
    <path d="M15.6875 12.8594H8.8125C8.33787 12.8594 7.95312 13.2441 7.95312 13.7188C7.95312 14.1934 8.33787 14.5781 8.8125 14.5781H15.6875C16.1621 14.5781 16.5469 14.1934 16.5469 13.7188C16.5469 13.2441 16.1621 12.8594 15.6875 12.8594Z" fill="white"/>
</svg>
