<svg width="25" height="24" viewBox="0 0 25 24" fill="none" xmlns="http://www.w3.org/2000/svg">
    <path d="M21.161 7.22018L13.315 19.7142C13.2194 19.8659 13.0867 19.9909 12.9295 20.0773C12.7723 20.1637 12.5957 20.2088 12.4164 20.2082C12.237 20.2076 12.0607 20.1614 11.9041 20.0739C11.7474 19.9864 11.6156 19.8606 11.521 19.7082L3.82802 7.21418C3.61209 6.86444 3.49847 6.4612 3.50002 6.05018C3.50923 5.44299 3.75924 4.86431 4.19506 4.44143C4.63088 4.01855 5.21682 3.78609 5.82402 3.79518H19.186C20.463 3.79418 21.5 4.80018 21.5 6.04418C21.5 6.45718 21.384 6.86518 21.161 7.22018ZM5.71802 6.80018L11.441 15.6262V5.91218H6.31602C5.72402 5.91218 5.45902 6.30418 5.71802 6.80218M13.558 15.6282L19.283 6.80018C19.548 6.30318 19.277 5.91018 18.684 5.91018H13.56L13.558 15.6282Z" fill="white"/>
</svg>
