<svg width="40" height="40" viewBox="0 0 40 40" fill="none" xmlns="http://www.w3.org/2000/svg">
    <rect width="40" height="40" rx="7" fill="white" fill-opacity="0.1"/>
    <path d="M24.5312 20.7812C24.9627 20.7812 25.3125 20.4315 25.3125 20C25.3125 19.5685 24.9627 19.2188 24.5312 19.2188C24.0998 19.2188 23.75 19.5685 23.75 20C23.75 20.4315 24.0998 20.7812 24.5312 20.7812Z" fill="white"/>
    <path d="M13.9062 28.5938H24.5312C25.9214 28.5938 27.2177 27.8456 27.9144 26.6412C28.1305 26.2677 28.0029 25.7898 27.6294 25.5737C27.2559 25.3577 26.778 25.4853 26.5619 25.8588C26.1436 26.582 25.3655 27.0312 24.5312 27.0312H13.9062C12.6139 27.0312 11.5625 25.9798 11.5625 24.6875V15.3125C11.5625 14.0202 12.6139 12.9688 13.9062 12.9688H24.5312C25.3655 12.9688 26.1436 13.418 26.5619 14.1412C26.778 14.5147 27.2559 14.6423 27.6294 14.4262C28.0029 14.2102 28.1305 13.7323 27.9144 13.3588C27.2177 12.1544 25.9214 11.4062 24.5312 11.4062H13.9062C11.7523 11.4062 10 13.1586 10 15.3125V24.6875C10 26.8414 11.7523 28.5938 13.9062 28.5938Z" fill="white"/>
    <path d="M27.6562 16.0938H24.5312C22.3773 16.0938 20.625 17.8461 20.625 20C20.625 22.1539 22.3773 23.9062 24.5312 23.9062H27.6562C28.9486 23.9062 30 22.8548 30 21.5625V18.4375C30 17.1452 28.9486 16.0938 27.6562 16.0938ZM28.4375 21.5625C28.4375 21.9933 28.087 22.3438 27.6562 22.3438H24.5312C23.2389 22.3438 22.1875 21.2923 22.1875 20C22.1875 18.7077 23.2389 17.6562 24.5312 17.6562H27.6562C28.087 17.6562 28.4375 18.0067 28.4375 18.4375V21.5625Z" fill="white"/>
</svg>
