<svg viewBox="0 0 447 447" fill="none" xmlns="http://www.w3.org/2000/svg">
    <g clip-path="url(#clip0_22_1298)">
        <path d="M223.222 390.667C315.642 390.667 390.564 315.746 390.564 223.326C390.564 130.905 315.642 55.9839 223.222 55.9839C130.802 55.9839 55.8804 130.905 55.8804 223.326C55.8804 315.746 130.802 390.667 223.222 390.667Z" fill="#EEF5F6"/>
        <path d="M223.222 55.9839C219.829 55.9839 216.464 56.097 213.121 56.2963C300.836 61.5206 370.361 134.298 370.361 223.326C370.361 312.353 300.836 385.131 213.121 390.355C216.464 390.554 219.829 390.667 223.222 390.667C315.642 390.667 390.564 315.746 390.564 223.326C390.564 130.905 315.642 55.9839 223.222 55.9839Z" fill="#DEECF1"/>
        <path d="M223.222 338.478C286.819 338.478 338.375 286.923 338.375 223.325C338.375 159.728 286.819 108.173 223.222 108.173C159.625 108.173 108.069 159.728 108.069 223.325C108.069 286.923 159.625 338.478 223.222 338.478Z" fill="#CBE5E8"/>
        <path d="M251.212 151.984C265.716 151.984 277.474 140.979 277.474 127.405C277.474 113.83 265.716 102.825 251.212 102.825C236.707 102.825 224.949 113.83 224.949 127.405C224.949 140.979 236.707 151.984 251.212 151.984Z" fill="#FEC165"/>
        <path d="M212.702 141.21C227.207 141.21 238.965 130.205 238.965 116.63C238.965 103.055 227.207 92.0508 212.702 92.0508C198.198 92.0508 186.439 103.055 186.439 116.63C186.439 130.205 198.198 141.21 212.702 141.21Z" fill="#EE6161"/>
        <path d="M212.702 92.0508C209.122 92.0508 205.711 92.7235 202.601 93.9377C212.091 97.6421 218.763 106.406 218.763 116.63C218.763 126.854 212.091 135.618 202.601 139.323C205.711 140.537 209.122 141.21 212.702 141.21C227.206 141.21 238.965 130.205 238.965 116.63C238.965 103.056 227.206 92.0508 212.702 92.0508Z" fill="#E94444"/>
        <path d="M268.429 164.99C268.289 155.437 264.695 146.317 262.742 136.964C260.789 127.611 260.775 116.972 266.794 109.552C271.125 104.214 278.335 101.367 285.145 102.307C291.954 103.248 298.123 107.942 300.845 114.254C305.847 105.538 314.19 98.797 323.761 95.7357C333.332 92.6751 344.039 93.3249 353.17 97.5209C360.808 101.031 367.511 107.298 369.915 115.353C372.319 123.407 369.573 133.174 362.404 137.562C367.782 135.88 373.827 136.162 378.853 138.711C383.88 141.26 387.755 146.143 388.708 151.698C390.019 159.337 385.714 167.159 379.469 171.75C373.225 176.341 365.362 178.17 357.645 178.899C349.929 179.627 342.135 179.368 334.442 180.308C325.937 181.347 317.677 183.839 309.225 185.246C300.773 186.652 291.825 186.914 283.91 183.636C275.994 180.357 268.546 172.926 268.429 164.99Z" fill="#97DA7B"/>
        <path d="M388.708 151.698C387.755 146.144 383.879 141.261 378.853 138.711C373.827 136.162 367.782 135.88 362.404 137.562C369.573 133.174 372.319 123.407 369.915 115.353C367.511 107.298 360.808 101.031 353.17 97.5209C344.758 93.6556 335.012 92.8078 326.045 95.0899C328.42 95.6893 330.741 96.498 332.968 97.5209C340.606 101.031 347.309 107.298 349.713 115.353C350.752 118.837 350.829 122.641 350 126.192C348.876 131.012 351.373 136.036 356.061 137.624C356.947 137.924 357.813 138.286 358.651 138.711C363.677 141.259 367.553 146.142 368.506 151.697C369.817 159.336 365.512 167.159 359.267 171.749C353.022 176.34 345.158 178.169 337.443 178.898C329.727 179.627 321.933 179.367 314.24 180.307C305.735 181.347 297.475 183.838 289.023 185.245C289.021 185.245 289.02 185.246 289.019 185.246C295.562 186.745 302.547 186.357 309.225 185.245C317.677 183.838 325.937 181.347 334.442 180.307C342.136 179.367 349.929 179.627 357.645 178.898C365.361 178.17 373.224 176.34 379.469 171.749C385.714 167.159 390.019 159.337 388.708 151.698Z" fill="#80D261"/>
        <path d="M218.178 131.987C200.674 112.69 173.719 103.216 148.564 107.52C123.409 111.824 100.783 129.78 90.1292 153.894C79.4752 178.008 81.1028 207.582 94.3319 230.271C111.752 260.148 145.22 275.186 168.617 300.246C181.629 314.183 191.519 331.239 205.844 343.701C233.409 367.679 275.793 370.133 306.663 351.013C337.534 331.893 355.579 293.214 352.716 255.932C349.852 218.65 327.018 184.141 295.421 166.354C269.486 151.754 235.362 150.931 218.178 131.987Z" fill="#AE6C6C"/>
        <path d="M352.716 255.932C349.853 218.65 327.018 184.141 295.421 166.354C269.486 151.754 235.363 150.931 218.178 131.986C201.16 113.226 175.212 103.755 150.668 107.196C168.51 109.625 185.604 118.347 197.976 131.986C215.161 150.931 249.284 151.754 275.219 166.354C306.816 184.141 329.651 218.651 332.514 255.932C335.377 293.214 317.332 331.893 286.462 351.013C275.677 357.692 263.487 361.729 251.015 363.146C270.165 365.322 290.076 361.287 306.664 351.013C337.534 331.893 355.579 293.214 352.716 255.932Z" fill="#9B5E5E"/>
        <path d="M387.543 171.073C400.449 156.418 392.737 134.907 373.675 131.801C384.051 106.365 355.481 85.8387 331.323 89.0421C281.656 48.3239 208.814 39.2699 150.792 66.8439C148.26 68.0163 147.161 71.0191 148.334 73.5497C149.508 76.0804 152.511 77.1807 155.04 76.007C207.229 51.2337 272.463 57.8088 318.816 92.1768C311.92 95.0233 305.73 99.587 300.946 105.316C292.476 95.8079 277.591 94.4132 267.438 102.054C259.012 97.0961 247.83 96.4173 238.76 100.221C225.639 80.9451 193.513 83.3168 183.975 104.815C145.073 92.5277 101.729 114.24 85.5095 151.854C69.8946 186.384 79.5041 229.105 107.12 254.53C117.916 296.22 153.005 330.447 194.961 340.177C202.969 348.839 212.413 355.913 223.326 360.779C225.87 361.925 228.861 360.792 230.005 358.247C231.15 355.704 230.017 352.714 227.473 351.569C210.151 344.047 198.918 330.308 187.542 315.312C182.752 309.1 177.797 302.677 172.31 296.8C162.78 286.592 151.631 278 140.848 269.69C124.333 256.962 108.733 244.94 98.6962 227.727C86.3702 206.587 84.8213 178.407 94.7494 155.935C116.028 107.729 178.716 96.1769 214.438 135.381C225.489 147.563 242.026 152.604 259.535 157.941C307.53 169.029 343.357 206.898 347.681 256.319C352.511 312.75 306.496 367.104 249.051 357.81C246.298 357.41 243.729 359.325 243.33 362.086C242.931 364.846 244.844 367.408 247.605 367.808C252.156 368.466 256.713 368.791 261.246 368.791C341.21 369.178 382.774 271.407 342.094 206.024C341.334 198.908 339.402 191.902 337.21 185.101C350.791 184.092 367.709 184.918 379.096 177.995C410.049 279.422 329.541 387.247 223.222 385.615C62.4312 385.005 0.329578 174.705 135.042 87.0583C140.513 83.3067 135.293 75.1093 129.543 78.5841C38.4316 134.955 23.9958 271.111 101.325 345.226C230.817 471.109 439.713 343.927 387.543 171.073ZM164.926 303.693C171.353 310.582 177.091 318.37 182.906 325.824C156.001 315.292 134.407 294.631 122.676 268.29C136.911 279.804 152.419 290.328 164.926 303.693ZM193.526 108.291C203.034 89.8758 233.551 95.5203 233.914 116.631C233.914 122.713 230.786 128.448 225.609 132.121C224.292 131.022 223.058 129.85 221.918 128.593C213.924 119.78 204.171 112.918 193.526 108.291ZM234.452 137.929C242.328 130.838 245.881 119.574 243.065 109.384C248.541 107.229 255.202 107.405 260.509 109.859C254.507 119.615 256.268 134.977 260.176 147.575C250.884 144.733 241.974 141.889 234.452 137.929ZM357.17 173.871C349.487 174.588 341.664 174.328 333.829 175.294C328.994 175.885 324.271 176.915 319.692 177.937C314.142 172.779 308.147 168.192 301.797 164.267C304.402 160.186 307.221 156.253 310.224 152.47C317.457 147.59 328.338 147.959 334.645 154.45C336.626 156.411 339.824 156.396 341.787 154.413C343.75 152.431 343.734 149.233 341.751 147.271C336.665 142.243 329.554 139.177 322.395 139.016C325.286 136.205 328.294 133.518 331.413 130.966C335.561 129.68 341.074 130.669 344.824 133.443C347.044 135.092 350.219 134.642 351.887 132.386C355.601 126.668 348.47 123.387 344.013 121.77C345.28 120.952 346.56 120.15 347.854 119.373C353.47 115.76 348.481 107.452 342.653 110.714C339.416 112.658 336.264 114.74 333.186 116.925C331.765 111.59 323.97 100.938 318.491 107.802C316.93 110.113 317.537 113.252 319.849 114.814C322.673 116.722 324.154 119.985 324.05 123.932C319.527 127.694 315.231 131.729 311.173 135.997C309.257 129.732 304.979 124.772 299.049 122.649C296.423 121.71 293.532 123.076 292.592 125.702C291.652 128.329 293.019 131.22 295.645 132.16C300.46 133.883 303.015 139.872 301.953 146.638C298.739 150.717 295.734 154.967 292.951 159.367C286.033 155.99 278.769 153.398 271.503 151.074C270.297 146.004 268.728 140.91 267.686 135.931C266.212 128.87 265.541 119.112 270.717 112.733C273.911 108.795 279.433 106.615 284.454 107.31C289.477 108.003 294.2 111.597 296.207 116.253C296.964 118.008 298.648 119.186 300.557 119.295C302.466 119.406 304.274 118.425 305.225 116.767C313.914 101.049 334.864 94.3493 351.061 102.11C358.05 105.321 363.289 110.811 365.075 116.797C366.944 123.059 364.613 130.288 359.767 133.254C357.592 134.585 356.751 137.328 357.805 139.65C358.86 141.971 361.479 143.144 363.912 142.382C368.24 141.028 372.854 141.332 376.568 143.215C387.371 148.979 385.096 161.472 376.477 167.68C371.892 171.052 365.576 173.077 357.17 173.871Z" fill="black"/>
        <path d="M128.605 139.201L115.046 220.369C114.587 223.119 116.444 225.723 119.196 226.182C121.884 226.649 124.562 224.8 125.01 222.033L138.569 140.865C139.472 134.278 129.919 132.628 128.605 139.201Z" fill="black"/>
        <path d="M166.137 122.855C163.388 122.395 160.784 124.253 160.324 127.004L140.598 245.085C140.059 248.128 142.501 250.997 145.585 250.969C148.009 250.969 150.148 249.219 150.561 246.75L170.287 128.669C170.747 125.917 168.889 123.314 166.137 122.855Z" fill="black"/>
        <path d="M171.371 269.201C174.059 269.667 176.737 267.82 177.184 265.052L195.997 152.44C196.457 149.689 194.599 147.086 191.847 146.626C189.098 146.169 186.494 148.025 186.034 150.776L167.221 263.388C166.762 266.139 168.619 268.741 171.371 269.201Z" fill="black"/>
        <path d="M195.484 302.536C198.172 303.001 200.85 301.155 201.297 298.387L223.371 166.247C223.831 163.496 221.973 160.893 219.221 160.434C216.473 159.976 213.868 161.832 213.408 164.583L191.334 296.723C190.874 299.473 192.732 302.076 195.484 302.536Z" fill="black"/>
        <path d="M220.668 329.448C223.357 329.913 226.035 328.068 226.482 325.299L251.836 173.524C252.296 170.773 250.438 168.17 247.686 167.711C244.934 167.252 242.332 169.11 241.873 171.86L216.519 323.635C216.06 326.386 217.917 328.989 220.668 329.448Z" fill="black"/>
        <path d="M274.742 181.243C271.995 180.82 269.408 182.715 268.986 185.471L246.218 334.286C245.727 337.312 248.157 340.128 251.217 340.101C253.669 340.101 255.821 338.312 256.203 335.814L278.971 186.999C279.393 184.242 277.5 181.665 274.742 181.243Z" fill="black"/>
        <path d="M280.942 323.985C283.631 324.451 286.309 322.604 286.756 319.836L305.314 208.746C305.774 205.995 303.916 203.392 301.165 202.932C298.418 202.474 295.811 204.331 295.351 207.082L276.793 318.172C276.333 320.923 278.191 323.526 280.942 323.985Z" fill="black"/>
    </g>
    <defs>
        <clipPath id="clip0_22_1298">
            <rect width="345" height="345" fill="white" transform="translate(51 51)"/>
        </clipPath>
    </defs>
</svg>
