<svg viewBox="0 0 447 447" fill="none" xmlns="http://www.w3.org/2000/svg">
    <g clip-path="url(#clip0_22_1413)">
        <path d="M223.5 390.946C315.978 390.946 390.946 315.978 390.946 223.5C390.946 131.022 315.978 56.0537 223.5 56.0537C131.022 56.0537 56.0537 131.022 56.0537 223.5C56.0537 315.978 131.022 390.946 223.5 390.946Z" fill="#E6F7FE"/>
        <path d="M350.584 332.532C319.878 368.292 274.334 390.946 223.5 390.946C131.024 390.946 56.0537 315.976 56.0537 223.5C56.0537 176.541 75.3858 134.096 106.517 103.687C81.3627 132.985 66.1611 171.076 66.1611 212.719C66.1611 305.195 141.131 380.165 233.607 380.165C279.125 380.165 320.396 361.999 350.584 332.532Z" fill="#D3EFFD"/>
        <path d="M223.5 344.789C290.486 344.789 344.789 290.486 344.789 223.5C344.789 156.514 290.486 102.211 223.5 102.211C156.514 102.211 102.211 156.514 102.211 223.5C102.211 290.486 156.514 344.789 223.5 344.789Z" fill="#D3EFFD"/>
        <path d="M330.713 280.169C310.336 318.577 269.92 344.789 223.5 344.789C156.623 344.789 102.211 290.377 102.211 223.5C102.211 194.343 112.554 167.559 129.764 146.616C120.782 163.543 115.688 182.828 115.688 203.285C115.688 270.163 170.099 324.574 236.977 324.574C274.697 324.574 308.456 307.264 330.713 280.169Z" fill="#B2E5FB"/>
        <path d="M295.471 170.012C294.872 171.973 293.915 173.785 292.668 175.375C291.422 176.966 289.885 178.327 288.127 179.371L274.616 187.747C267.562 173.145 244.389 159.487 244.389 159.487C244.389 159.487 230.966 135.862 223.291 131.132C230.703 122.898 242.893 121.031 252.441 126.658L286.408 146.691C294.454 151.434 298.2 161.077 295.471 170.012Z" fill="#F7F9FA"/>
        <path d="M283.215 182.417L274.616 187.747C267.562 173.145 246.41 160.834 246.41 160.834L223.291 131.132C225.852 128.295 228.978 126.213 232.367 124.933H232.374C239.463 129.569 246.235 134.791 252.629 140.552C265.843 152.452 275.769 167.242 283.215 182.417Z" fill="#E9EDF1"/>
        <path d="M326.206 312.776C327.4 309.081 330.13 306.081 333.696 304.544L350.897 297.129C351.873 296.709 352.806 296.182 353.63 295.511C359.175 290.996 359.212 282.836 354.117 278.247L351.525 275.911C340.402 265.89 325.108 263.444 311.957 268.234C311.236 268.497 310.422 268.359 309.862 267.834C299.934 258.543 293.085 246.45 290.076 233.168C283.766 205.325 271.131 170.826 245.865 148.063C233.386 136.82 220.072 128.393 206.912 122.37L131.185 123.773L131.132 205.529C138.527 218.186 149.073 226.044 161.743 237.459C187.314 260.498 223.493 269.42 252.001 272.707C265.578 274.273 282.609 282.596 292.904 291.556C288.616 305.62 294.062 319.472 305.707 329.964L320.611 330.092L326.206 312.776Z" fill="#61AAB8"/>
        <path d="M320.612 330.093L320.349 330.902C319.905 332.283 318.773 334.325 317.843 335.443L317.809 335.484C313.618 340.133 306.448 340.51 301.799 336.319L299.205 333.981C287.904 323.799 283.936 308.524 287.635 294.778C287.837 294.01 287.608 293.187 287.002 292.675C276.881 284.212 264.475 278.943 251.329 277.427C222.819 274.138 186.642 265.217 161.07 242.179C148.402 230.764 138.523 218.19 131.132 205.529C133.683 204.545 132.756 199.042 135.228 197.895C137.817 196.693 143.801 199.839 146.293 198.467C153.57 210.549 163.118 222.516 175.22 233.419C200.792 256.457 236.97 265.379 265.479 268.667C278.626 270.183 291.031 275.452 301.152 283.916C301.758 284.428 301.987 285.25 301.785 286.018C298.086 299.764 302.055 315.04 313.355 325.221L315.949 327.559C317.331 328.806 318.934 329.648 320.612 330.093Z" fill="#5595A2"/>
        <path d="M206.91 122.371C196.655 160.234 167.727 191.398 131.132 205.529C110.209 169.715 127.967 114.692 133.63 112.909C150.618 107.561 178.402 109.323 206.91 122.371Z" fill="#F7F9FA"/>
        <path d="M146.293 198.467C141.421 201.149 136.354 203.514 131.132 205.529C120.954 187.942 113.83 168.009 113.336 147.586C113.134 135.532 115.748 125.876 120.613 120.472C124.085 116.67 128.93 114.388 133.82 112.851C123.174 126.758 125 163.125 146.293 198.467Z" fill="#E9EDF1"/>
        <path d="M160.147 152.812C166.101 152.812 170.928 147.986 170.928 142.031C170.928 136.077 166.101 131.25 160.147 131.25C154.192 131.25 149.365 136.077 149.365 142.031C149.365 147.986 154.192 152.812 160.147 152.812Z" fill="#E9EDF1"/>
        <path d="M194.933 353.67C181.338 354.145 159.315 338.567 147.358 331.986C113.408 313.304 123.92 247.92 124.985 248.506L131.124 251.884L140.82 257.22L185.766 290.883L237.511 310.427L253.345 319.141C254.412 319.727 254.719 321.117 254.008 322.105C246.897 331.974 237.51 339.933 226.795 345.396C217.035 350.371 206.176 353.277 194.935 353.67C194.934 353.67 194.935 353.67 194.933 353.67Z" fill="#FFC736"/>
        <path d="M226.795 345.396C217.038 350.375 206.176 353.279 194.936 353.67C194.936 353.67 194.936 353.67 194.93 353.67C181.339 354.142 167.828 350.921 155.875 344.338C121.922 325.657 107.933 284.597 122.129 249.526C122.586 248.399 123.921 247.918 124.986 248.504L131.125 251.882C121.334 285.243 135.633 322.182 167.33 339.621C179.283 346.204 192.794 349.425 206.385 348.953H206.392C213.399 348.711 220.259 347.484 226.795 345.396Z" fill="#FAAA0A"/>
        <path d="M194.306 333.492C184.334 333.841 174.415 331.467 165.62 326.627C152.611 319.468 143.168 307.672 139.031 293.411C135.526 281.331 136.185 268.706 140.821 257.22L184.417 281.21L187.158 287.657L194.209 286.599L237.511 310.427C227.54 324.212 211.528 332.889 194.306 333.492Z" fill="#FFE07D"/>
        <path d="M345.476 101.524C312.895 68.9434 269.576 51 223.5 51C186.303 51 150.878 62.6539 121.054 84.7022C118.809 86.3618 118.335 89.5261 119.995 91.7706C121.654 94.0145 124.818 94.4889 127.062 92.8299C155.135 72.0767 188.482 61.1074 223.5 61.1074C313.044 61.1074 385.893 133.956 385.893 223.5C385.893 313.044 313.044 385.893 223.5 385.893C133.956 385.893 61.1074 313.044 61.1074 223.5C61.1074 179.71 78.2766 138.654 109.452 107.896C111.438 105.936 111.46 102.736 109.5 100.749C107.54 98.7623 104.34 98.7414 102.353 100.702C69.2372 133.373 51 176.985 51 223.5C51 269.576 68.9434 312.895 101.524 345.476C134.105 378.057 177.424 396 223.5 396C269.576 396 312.895 378.057 345.476 345.476C378.057 312.895 396 269.576 396 223.5C396 177.424 378.057 134.105 345.476 101.524Z" fill="black"/>
        <path d="M110.486 166.962C99.2111 189.271 94.8522 214.148 97.8844 239.035C99.7886 254.665 104.504 269.558 111.889 283.328C113.227 303.658 122.224 323.25 137.964 337.667C140.023 339.553 143.218 339.412 145.104 337.353C146.99 335.295 146.849 332.099 144.791 330.213C123.8 311.003 116.54 281.242 125.731 254.839L134.741 259.777C125.802 286.466 138.429 318.07 163.437 331.213C188.065 345.232 221.187 338.765 239.062 316.951L248.078 321.892C241.993 329.557 234.413 335.816 225.908 340.362C207.05 350.644 183.105 351.56 163.459 342.511C160.914 341.36 157.922 342.493 156.774 345.037C155.625 347.58 156.755 350.574 159.299 351.723C181.291 361.844 208.055 361.087 229.376 349.949C232.444 349.799 235.535 349.542 238.58 349.171C256.833 346.946 274.516 340.682 290.05 331C295.077 337.279 301.678 344.827 310.514 344.17C317.164 343.899 323.291 339.16 325.274 332.773L331.24 314.201C331.982 311.889 333.685 310.011 335.912 309.047C340.489 306.658 355.779 301.687 358.902 297.462C361.827 294.205 363.309 290.003 363.073 285.632C362.837 281.26 360.914 277.242 357.657 274.317L355.06 271.987C351.393 268.694 347.303 266.097 342.96 264.224C349.003 246.403 351.001 227.242 348.715 208.476C345.826 184.766 336.333 162.478 321.263 144.02C306.605 126.068 287.343 112.473 265.558 104.701C262.931 103.765 260.038 105.135 259.1 107.764C258.162 110.392 259.534 113.284 262.162 114.222C304.005 129.146 333.325 165.731 338.682 209.698C340.801 227.084 338.924 244.835 333.275 261.32C326.338 260.093 319.102 260.546 312.137 262.782C304.034 254.771 298.285 244.687 295.439 233.442C294.753 230.735 292.006 229.098 289.299 229.782C286.594 230.467 284.955 233.215 285.64 235.921C289.228 250.098 296.807 262.694 307.555 272.348C308.991 273.637 311.033 273.996 312.822 273.276C325.002 268.357 338.638 270.819 348.308 279.508C353.157 282.583 355.339 289.259 349.203 292.276L331.895 299.772C326.995 301.894 323.248 306.026 321.616 311.11L315.651 329.682C315.379 330.53 314.939 331.296 314.306 332C311.991 334.577 308.012 334.791 305.435 332.477L302.839 330.146C293.051 321.358 289.194 307.536 293.014 294.932C293.592 293.024 292.994 290.955 291.489 289.648C280.413 280.041 266.778 274.08 252.058 272.409C226.033 269.454 189.725 261.185 164.546 238.577C154.534 229.587 145.837 219.369 138.752 208.413C172.662 193.68 198.735 164.776 209.922 129.555C221.483 135.406 232.487 142.913 242.427 151.839C253.192 161.504 262.384 174.147 269.906 189.569C269.922 189.604 269.941 189.638 269.958 189.672C273.522 196.993 276.716 204.934 279.515 213.492C280.383 216.144 283.235 217.594 285.889 216.723C288.542 215.856 289.989 213.002 289.121 210.349C286.704 202.96 284 195.991 281.023 189.445C288.237 185.196 298.228 180.384 300.282 171.411C303.691 160.194 299.012 148.213 288.903 142.276L254.9 122.305C244.554 116.227 231.546 117.437 222.493 124.893C212.954 119.35 202.96 114.875 192.774 111.593C198.159 110.132 203.66 109.053 209.241 108.373C219.563 107.114 229.968 107.238 240.169 108.736C242.935 109.146 245.499 107.233 245.904 104.471C246.31 101.709 244.401 99.1422 241.639 98.7365C230.546 97.1059 219.235 96.9731 208.018 98.339C196.54 99.7379 185.367 102.683 174.778 107.09C173.691 106.896 172.604 106.711 171.516 106.545C147.052 102.817 126.065 106.948 116.746 117.327C108.214 126.832 105.945 145.508 110.486 166.962ZM143.799 264.742L179.649 284.389L149.091 303.801C146.966 300.2 145.273 296.312 144.071 292.193C141.41 283.078 141.33 273.694 143.799 264.742ZM155.104 311.956L184.386 293.355L185.254 328.039C179.345 327.17 173.597 325.255 168.295 322.348C163.273 319.596 158.84 316.077 155.104 311.956ZM195.376 328.483L194.475 292.515L229.99 311.979C221.105 321.708 208.575 327.73 195.376 328.483ZM157.794 246.099C184.959 270.489 223.43 279.331 250.919 282.452C262.561 283.774 273.407 288.204 282.478 295.314C280.48 304.419 281.462 313.84 285.043 322.218C273.394 329.562 260.755 334.679 247.315 337.489C251.974 333.219 256.158 328.383 259.747 323.045C260.54 321.867 260.8 320.41 260.464 319.031C260.128 317.651 259.227 316.476 257.982 315.793L240.158 306.025L213.854 291.609L125.557 243.217C123.06 241.778 119.598 242.955 118.499 245.62C116.21 250.844 114.523 256.213 113.397 261.641C110.75 253.962 108.915 245.997 107.918 237.811C105.606 218.834 107.965 199.863 114.747 182.239C122.907 205.885 137.945 228.276 157.794 246.099ZM249.783 131.02L283.785 150.991C289.85 154.554 292.658 161.742 290.613 168.472C289.467 174.169 280.799 177.486 276.559 180.339C268.922 165.882 259.769 153.825 249.18 144.318C243.675 139.375 237.859 134.84 231.809 130.744C237.312 127.76 244.158 127.717 249.783 131.02ZM124.269 124.08C129.973 117.726 146.324 112.932 169.995 116.538C180.324 118.112 190.652 121.078 200.674 125.281C190.461 158.696 165.746 186.098 133.529 199.669C128.339 190.23 124.327 180.365 121.677 170.352C115.551 147.204 118.565 130.433 124.269 124.08Z" fill="black"/>
        <path d="M149.497 153.976C155.974 159.795 166.01 159.284 171.859 152.773C177.676 146.556 177.106 135.966 170.655 130.41C164.157 124.578 154.127 125.117 148.293 131.614C142.476 137.83 143.046 148.421 149.497 153.976ZM155.815 138.367C157.93 136.011 161.56 135.826 163.903 137.931C166.236 139.941 166.442 143.772 164.338 146.019C162.228 148.369 158.6 148.564 156.25 146.455C153.917 144.445 153.71 140.615 155.815 138.367Z" fill="black"/>
    </g>
    <defs>
        <clipPath id="clip0_22_1413">
            <rect width="345" height="345" fill="white" transform="translate(51 51)"/>
        </clipPath>
    </defs>
</svg>
