<svg viewBox="0 0 447 447" fill="none" xmlns="http://www.w3.org/2000/svg">
    <path d="M379.433 161.23C379.433 155.692 376.809 150.772 372.74 147.639C376.808 144.507 379.433 139.586 379.433 134.049C379.433 124.586 371.775 116.915 362.328 116.915C360.181 116.915 358.129 117.314 356.236 118.038C358.126 115.281 359.235 111.945 359.235 108.348C359.235 98.8855 351.576 91.2143 342.129 91.2143C338.294 91.2143 334.753 92.4787 331.9 94.6141C332.045 93.7149 332.123 92.7935 332.123 91.8532C332.123 82.3904 324.465 74.7192 315.018 74.7192C309.851 74.7192 305.223 77.0177 302.086 80.6453C301.808 71.4259 294.265 64.0364 284.993 64.0364C279.932 64.0364 275.386 66.2398 272.253 69.7401C270.123 62.7058 263.602 57.5852 255.884 57.5852C248.649 57.5852 242.466 62.0884 239.967 68.4473C237.948 61.2371 231.343 55.9473 223.5 55.9473C223.499 55.9473 223.498 55.9473 223.498 55.9473C223.497 55.9473 223.496 55.9473 223.496 55.9473C215.652 55.9473 209.047 61.2371 207.028 68.4473C204.529 62.0884 198.347 57.5852 191.111 57.5852C183.393 57.5852 176.871 62.7065 174.742 69.7401C171.61 66.2405 167.064 64.0364 162.002 64.0364C152.73 64.0364 145.187 71.4259 144.91 80.6453C141.773 77.017 137.145 74.7192 131.977 74.7192C122.529 74.7192 114.871 82.3904 114.871 91.8532C114.871 92.7935 114.95 93.7149 115.095 94.6141C112.242 92.4787 108.702 91.2143 104.866 91.2143C95.4183 91.2143 87.7599 98.8855 87.7599 108.348C87.7599 111.945 88.8687 115.281 90.7587 118.038C88.866 117.314 86.8136 116.915 84.6668 116.915C75.2195 116.915 67.561 124.586 67.561 134.049C67.561 139.587 70.1864 144.508 74.2556 147.64C70.1871 150.772 67.5631 155.693 67.5631 161.23C67.5631 166.342 69.8015 170.929 73.347 174.068C69.8015 177.208 67.5631 181.794 67.5631 186.907C67.5631 192.019 69.8015 196.606 73.347 199.746C69.8015 202.885 67.5631 207.472 67.5631 212.584C67.5631 217.697 69.8015 222.284 73.347 225.423C69.8015 228.562 67.5631 233.148 67.5631 238.262C67.5631 243.374 69.8015 247.961 73.347 251.101C69.8015 254.24 67.5631 258.826 67.5631 263.939C67.5631 269.62 70.3246 274.652 74.5744 277.769C70.3246 280.886 67.5631 285.919 67.5631 291.599C67.5631 297.272 70.3178 302.299 74.5589 305.418C70.3178 308.536 67.5631 313.563 67.5631 319.237C67.5631 328.7 75.2215 336.371 84.6688 336.371C85.789 336.371 86.883 336.26 87.9439 336.054C87.826 336.867 87.7619 337.698 87.7619 338.544C87.7619 348.006 95.4204 355.678 104.868 355.678C108.703 355.678 112.244 354.413 115.097 352.278C114.951 353.177 114.873 354.098 114.873 355.039C114.873 364.501 122.531 372.173 131.979 372.173C137.146 372.173 141.775 369.874 144.911 366.246C145.189 375.466 152.732 382.855 162.003 382.855C167.064 382.855 171.611 380.652 174.743 377.152C176.873 384.186 183.394 389.307 191.112 389.307C198.348 389.307 204.53 384.803 207.029 378.445C209.048 385.655 215.653 390.945 223.497 390.945H223.499C223.499 390.945 223.5 390.945 223.501 390.945C231.344 390.945 237.95 385.655 239.968 378.445C242.468 384.803 248.65 389.307 255.886 389.307C263.603 389.307 270.125 384.186 272.255 377.152C275.386 380.652 279.933 382.855 284.995 382.855C294.266 382.855 301.809 375.466 302.087 366.246C305.223 369.875 309.852 372.173 315.019 372.173C324.466 372.173 332.125 364.501 332.125 355.039C332.125 354.098 332.046 353.177 331.901 352.278C334.754 354.413 338.294 355.678 342.13 355.678C351.578 355.678 359.235 348.006 359.235 338.544C359.235 337.698 359.171 336.867 359.053 336.054C360.113 336.26 361.206 336.371 362.326 336.371C371.774 336.371 379.432 328.7 379.432 319.237C379.432 313.564 376.677 308.537 372.436 305.418C376.677 302.3 379.432 297.273 379.432 291.599C379.432 285.918 376.671 280.886 372.421 277.769C376.671 274.652 379.432 269.619 379.432 263.939C379.432 258.826 377.194 254.24 373.648 251.101C377.194 247.961 379.432 243.375 379.432 238.262C379.432 233.149 377.194 228.562 373.648 225.423C377.194 222.283 379.432 217.697 379.432 212.584C379.432 207.472 377.194 202.885 373.648 199.746C377.194 196.606 379.432 192.02 379.432 186.907C379.432 181.794 377.194 177.207 373.648 174.068C377.195 170.929 379.433 166.343 379.433 161.23Z" fill="#F9F3F1"/>
    <path d="M73.3503 174.069C69.8049 177.209 67.5664 181.795 67.5664 186.908C67.5664 192.02 69.8049 196.607 73.3503 199.747C69.8049 202.886 67.5664 207.473 67.5664 212.585C67.5664 217.698 69.8049 222.285 73.3503 225.424C69.8049 228.563 67.5664 233.149 67.5664 238.263C67.5664 243.375 69.8049 247.962 73.3503 251.102C69.8049 254.241 67.5664 258.828 67.5664 263.94C67.5664 269.621 70.3279 274.653 74.5777 277.77C70.3279 280.887 67.5664 285.92 67.5664 291.6C67.5664 297.273 70.3212 302.3 74.5622 305.419C70.3212 308.537 67.5664 313.564 67.5664 319.238C67.5664 328.701 75.2248 336.372 84.6721 336.372C85.7924 336.372 86.8863 336.261 87.9473 336.055C87.8293 336.868 87.7653 337.699 87.7653 338.545C87.7653 348.007 95.4237 355.679 104.871 355.679C108.706 355.679 112.247 354.414 115.1 352.279C114.955 353.178 114.876 354.099 114.876 355.04C114.876 364.502 122.535 372.174 131.982 372.174C137.149 372.174 141.778 369.875 144.914 366.248C145.192 375.467 152.735 382.856 162.006 382.856C167.068 382.856 171.614 380.653 174.746 377.153C176.876 384.187 183.398 389.308 191.115 389.308C198.351 389.308 204.534 384.804 207.033 378.446C209.052 385.656 215.656 390.946 223.5 390.946H223.502C223.502 390.946 223.504 390.946 223.504 390.946C231.347 390.946 237.953 385.656 239.972 378.446C242.471 384.804 248.653 389.308 255.889 389.308C263.607 389.308 270.129 384.187 272.258 377.153C275.39 380.653 279.936 382.856 284.998 382.856C294.269 382.856 301.813 375.467 302.09 366.248C305.227 369.876 309.855 372.174 315.022 372.174C324.47 372.174 332.128 364.502 332.128 355.04C332.128 354.099 332.049 353.178 331.904 352.279C334.758 354.414 338.298 355.679 342.134 355.679C351.581 355.679 359.239 348.007 359.239 338.545C359.239 337.699 359.175 336.868 359.057 336.055C360.116 336.261 361.21 336.372 362.33 336.372C371.777 336.372 379.435 328.701 379.435 319.238C379.435 313.565 376.681 308.538 372.44 305.419C376.681 302.301 379.435 297.274 379.435 291.6C379.435 285.919 376.674 280.887 372.424 277.77C376.674 274.653 379.435 269.62 379.435 263.94C379.435 258.828 377.197 254.241 373.652 251.102C377.197 247.962 379.435 243.376 379.435 238.263C379.435 233.15 377.197 228.563 373.652 225.424C377.197 222.284 379.435 217.698 379.435 212.585C379.435 207.473 377.197 202.886 373.652 199.747C377.197 196.607 379.435 192.021 379.435 186.908C379.435 181.795 377.197 177.208 373.652 174.069H73.3503Z" fill="#FD9468"/>
    <path d="M346.688 174.069C350.234 177.208 352.472 181.795 352.472 186.908C352.472 192.02 350.234 196.607 346.688 199.747C350.234 202.886 352.472 207.473 352.472 212.585C352.472 217.698 350.234 222.285 346.688 225.424C350.234 228.563 352.472 233.149 352.472 238.263C352.472 243.376 350.234 247.962 346.688 251.102C350.234 254.241 352.472 258.828 352.472 263.94C352.472 269.621 349.71 274.653 345.461 277.77C349.71 280.887 352.472 285.92 352.472 291.6C352.472 297.273 349.717 302.3 345.476 305.418C349.717 308.536 352.472 313.563 352.472 319.237C352.472 328.7 344.814 336.372 335.366 336.372C334.247 336.372 333.153 336.26 332.093 336.055C332.211 336.868 332.275 337.699 332.275 338.544C332.275 348.007 324.617 355.678 315.17 355.678C311.335 355.678 307.794 354.413 304.941 352.278C305.086 353.177 305.165 354.099 305.165 355.039C305.165 364.502 297.506 372.173 288.059 372.173C282.892 372.173 278.263 369.875 275.127 366.247C274.849 375.466 267.306 382.856 258.035 382.856C252.973 382.856 248.427 380.652 245.295 377.152C244.677 379.194 243.688 381.075 242.408 382.716C245.537 386.727 250.411 389.308 255.887 389.308C263.605 389.308 270.127 384.187 272.257 377.153C275.388 380.653 279.935 382.856 284.997 382.856C294.268 382.856 301.811 375.467 302.089 366.248C305.225 369.876 309.854 372.174 315.021 372.174C324.468 372.174 332.127 364.502 332.127 355.04C332.127 354.099 332.048 353.178 331.903 352.279C334.756 354.414 338.296 355.679 342.132 355.679C351.58 355.679 359.237 348.007 359.237 338.545C359.237 337.699 359.174 336.868 359.055 336.055C360.115 336.261 361.208 336.372 362.328 336.372C371.776 336.372 379.434 328.701 379.434 319.238C379.434 313.565 376.679 308.538 372.438 305.419C376.679 302.301 379.434 297.274 379.434 291.601C379.434 285.92 376.673 280.887 372.423 277.771C376.673 274.653 379.434 269.621 379.434 263.941C379.434 258.828 377.196 254.241 373.65 251.102C377.196 247.963 379.434 243.377 379.434 238.263C379.434 233.15 377.196 228.564 373.65 225.424C377.196 222.285 379.434 217.698 379.434 212.586C379.434 207.473 377.196 202.886 373.65 199.747C377.196 196.608 379.434 192.022 379.434 186.908C379.434 181.795 377.196 177.209 373.65 174.07H346.688V174.069Z" fill="#FE7D43"/>
    <path d="M372.74 147.639C388.307 134.69 374.196 111.592 356.236 118.037C366.973 101.161 346.872 83.7436 331.901 94.6145C334.493 76.9871 312.746 68.2442 302.087 80.6464C301.475 64.6549 281.982 58.8643 272.255 69.7412C267.04 53.5441 245.485 54.3132 239.968 68.4484C234.408 50.8472 211.377 53.0412 207.03 68.4484C200.278 52.498 179.078 55.395 174.742 69.7412C163.82 57.9267 145.382 66.0252 144.91 80.6464C132.967 67.5991 112.61 77.9631 115.096 94.6145C98.7522 83.2139 80.5033 102.544 90.7615 118.037C71.2157 111.428 59.6398 136.23 74.259 147.64C59.3021 160.412 72.4243 181.167 88.7131 179.721C88.0943 193.539 104.8 202.833 116.396 194.46C115.199 211.085 135.437 219.28 146.363 208.178C147.661 216.61 154.936 223.065 163.717 223.065C168.51 223.065 172.854 221.139 176.022 218.019C178.658 224.4 184.931 228.892 192.254 228.892C198.673 228.892 204.286 225.44 207.348 220.29C210.03 226.567 216.251 230.966 223.498 230.966C231.219 230.966 237.77 225.973 240.124 219.037C242.982 224.873 248.97 228.892 255.897 228.892C263.053 228.892 269.205 224.601 271.941 218.451C275.066 221.316 279.226 223.066 283.796 223.066C292.224 223.066 299.262 217.118 300.963 209.185C313.397 219.326 331.473 209.531 329.769 193.712C332.797 196.196 336.668 197.688 340.887 197.688C350.585 197.688 358.447 189.812 358.447 180.097C358.447 179.981 358.441 179.867 358.439 179.752C376.35 183.33 386.902 159.009 372.74 147.639Z" fill="#F9F3F1"/>
    <path d="M223.499 185.878C279.878 185.878 325.583 167.32 325.583 144.427C325.583 121.535 279.878 102.977 223.499 102.977C167.119 102.977 121.415 121.535 121.415 144.427C121.415 167.32 167.119 185.878 223.499 185.878Z" fill="#537983"/>
    <path d="M212.495 102.267C212.495 102.267 253.759 85.5291 279.301 93.2441C314.644 103.92 295.326 152.997 275.33 158.761C255.335 164.525 212.495 102.267 212.495 102.267Z" fill="#FED402"/>
    <path d="M201.056 90.2556C180.772 84.1946 151.949 102.928 146.647 134.764C140.367 172.474 255.713 155.1 255.713 155.1C255.713 155.1 235.57 100.569 201.056 90.2556Z" fill="#BBEC6C"/>
    <path d="M313.782 163.786C302.142 146.657 275.989 119.999 225.936 119.999C173.591 119.999 147.288 149.154 136.428 166.074C154.379 177.953 186.658 185.878 223.498 185.878C262.657 185.878 296.659 176.925 313.782 163.786Z" fill="#FE646F"/>
    <path d="M291.709 175.265C300.626 172.01 308.125 168.126 313.782 163.786C302.142 146.657 275.989 119.999 225.936 119.999C220.721 119.999 215.766 120.289 211.058 120.826C251.109 126.338 279.21 158.047 291.709 175.265Z" fill="#FD4755"/>
    <path d="M380.396 199.746C383.033 196.025 384.488 191.544 384.488 186.907C384.488 182.408 383.135 178.068 380.631 174.404C385.634 166.794 385.566 154.741 379.774 147.647C386.042 139.692 385.428 130.018 381.513 123.167C377.7 116.496 371.145 112.499 363.992 111.963C365.354 104.128 362.158 96.925 357.322 92.3779C351.547 86.9472 343.798 85.0633 336.622 86.892C335.158 80.3369 330.775 74.8301 324.277 71.8663C317.944 68.9781 310.991 69.1412 305.184 71.9816C302.808 66.6924 298.403 62.5552 292.628 60.4751C286.294 58.1935 279.526 58.8142 274.001 61.9317C270.105 56.3062 263.922 52.8915 256.746 52.6744C250.462 52.4817 244.668 54.7525 240.461 58.7913C236.34 53.7509 230.3 50.8855 223.388 51.0035C216.667 51.1073 210.618 54.0441 206.556 58.819C202.273 54.5779 196.481 52.3165 190.146 52.6562C183.169 53.0297 176.903 56.5589 173.031 61.9458C167.432 58.7003 160.751 58.0755 154.44 60.4286C148.712 62.5646 144.256 66.7901 141.843 72.0416C135.859 69.0198 128.872 68.8527 122.526 71.8771C116.149 74.9163 111.843 80.4003 110.382 86.8643C102.278 84.698 94.5401 87.6226 89.6014 92.4433C84.1855 97.7298 81.92 104.958 83.0416 111.922C74.9222 112.431 68.622 117.416 65.4001 123.393C61.008 131.541 61.8735 140.901 67.2328 147.729C61.6174 155.028 61.0714 165.604 66.7677 173.84C64.027 177.605 62.5098 182.174 62.5098 186.906C62.5098 191.542 63.9644 196.023 66.6019 199.745C63.9644 203.466 62.5098 207.946 62.5098 212.583C62.5098 217.22 63.9644 221.701 66.6012 225.421C63.9644 229.143 62.5098 233.624 62.5098 238.261C62.5098 242.897 63.9644 247.378 66.6012 251.099C63.9644 254.82 62.5098 259.301 62.5098 263.937C62.5098 268.996 64.2603 273.875 67.3527 277.768C64.2603 281.66 62.5098 286.538 62.5098 291.598C62.5098 296.666 64.267 301.555 67.3709 305.451C62.1809 311.929 61.008 320.395 64.5231 328.247C67.9297 335.856 74.8993 340.668 82.8462 341.32C83.6476 347.918 87.4579 353.795 93.5499 357.433C98.7905 360.563 104.851 361.398 110.42 360.002C111.247 363.36 112.881 366.593 115.225 369.357C119.566 374.478 125.694 377.345 132.033 377.225C135.464 377.216 138.803 376.411 141.81 374.92C145.28 382.627 152.991 387.908 162.003 387.908C165.892 387.908 169.676 386.878 172.993 384.982C177.05 390.772 183.709 394.359 191.112 394.359C197.043 394.359 202.524 392.049 206.565 388.104C210.69 392.981 216.841 395.997 223.501 395.997C230.158 395.997 236.308 392.981 240.433 388.104C244.474 392.049 249.955 394.359 255.886 394.359C263.289 394.359 269.949 390.773 274.005 384.982C277.321 386.877 281.106 387.907 284.995 387.907C294.007 387.907 301.719 382.626 305.189 374.919C308.211 376.419 311.569 377.224 315.02 377.224C321.261 377.059 321.768 367.635 315.02 367.114C311.526 367.114 308.207 365.591 305.911 362.937C303.556 360.114 297.524 360.925 297.034 366.09C296.836 372.655 291.548 377.796 284.995 377.796C281.579 377.796 278.308 376.332 276.022 373.777C274.306 371.664 268.769 371.331 267.416 375.683C265.889 380.726 261.148 384.248 255.886 384.248C250.902 384.248 246.501 381.243 244.673 376.593C243.329 372.978 236.942 371.94 235.1 377.079C233.649 382.265 228.878 385.887 223.497 385.887C218.119 385.887 213.349 382.265 211.898 377.079C210.927 373.348 204.676 371.663 202.325 376.593C200.497 381.243 196.096 384.248 191.112 384.248C185.849 384.248 181.108 380.726 179.581 375.683C178.508 372.658 174.552 370.577 170.976 373.777C168.69 376.332 165.42 377.796 162.003 377.796C155.449 377.796 150.162 372.655 149.964 366.09C149.918 362.415 144.726 359.237 141.087 362.937C138.792 365.591 135.472 367.114 131.979 367.114C131.943 367.114 131.907 367.114 131.871 367.114C128.57 367.193 125.312 365.619 122.936 362.817C120.54 359.992 119.467 356.399 120.066 353.206C120.808 349.601 116.402 345.384 112.058 348.235C107.428 351.718 102.14 350.786 98.7339 348.751C95.3617 346.737 92.0697 342.544 92.9419 336.812C93.2708 334.308 91.3519 330.676 87.0603 331.073C80.0914 332.31 75.5342 328.098 73.7507 324.115C71.8883 319.955 71.9429 313.902 77.683 309.39C79.5737 307.837 80.7007 304.067 77.5543 301.343C74.418 299.036 72.619 295.484 72.619 291.596C72.619 287.703 74.4221 284.148 77.5651 281.843C79.5454 280.326 80.7769 276.478 77.5651 273.691C74.4214 271.385 72.619 267.83 72.619 263.937C72.619 260.479 74.1059 257.179 76.699 254.882C78.3429 253.36 79.3358 249.946 76.699 247.314C74.1059 245.018 72.619 241.718 72.619 238.259C72.619 234.801 74.1059 231.501 76.699 229.205C78.3429 227.683 79.3358 224.269 76.699 221.635C74.1066 219.34 72.6197 216.04 72.6197 212.582C72.6197 209.124 74.1066 205.824 76.6996 203.527C78.3436 202.005 79.3365 198.591 76.6996 195.959C74.1066 193.662 72.6197 190.362 72.6197 186.904C72.6197 184.817 73.1697 182.793 74.1686 181.007C77.164 182.907 80.5349 184.174 84.0547 184.642C85.3293 190.985 89.4686 196.564 95.5889 199.869C100.839 202.704 106.714 203.385 112.107 201.976C113.834 208.215 118.214 213.368 124.525 216.222C130.898 219.104 137.871 218.986 143.748 216.171C147.568 223.384 155.101 228.119 163.714 228.119C167.548 228.119 171.242 227.166 174.523 225.374C178.739 230.715 185.208 233.945 192.253 233.945C197.615 233.945 202.757 232.005 206.781 228.635C210.991 233.261 217.013 236.019 223.497 236.019C230.253 236.019 236.481 233.02 240.69 228.09C244.768 231.809 250.131 233.945 255.896 233.945C262.787 233.945 269.193 230.798 273.427 225.602C276.604 227.245 280.149 228.119 283.796 228.119C292.07 228.119 299.556 223.529 303.494 216.581C309.772 219.266 316.865 218.995 323.118 215.602C328.738 212.554 332.607 207.567 334.167 201.714C336.33 202.388 338.596 202.74 340.887 202.74C351.625 202.74 360.641 195.206 362.936 185.14C366.673 184.978 370.198 183.856 373.29 181.918C375.19 185.728 374.508 192.313 370.297 195.958C368.653 197.48 367.661 200.894 370.297 203.527C372.891 205.823 374.377 209.123 374.377 212.581C374.377 216.039 372.891 219.339 370.298 221.635C368.654 223.156 367.66 226.571 370.297 229.204C372.891 231.501 374.377 234.801 374.377 238.259C374.377 241.716 372.891 245.016 370.297 247.313C368.653 248.835 367.661 252.249 370.297 254.882C372.891 257.178 374.377 260.478 374.377 263.936C374.377 267.829 372.574 271.384 369.431 273.69C367.451 275.207 366.22 279.055 369.431 281.842C372.574 284.148 374.377 287.703 374.377 291.596C374.377 295.484 372.578 299.036 369.442 301.342C367.465 302.861 366.237 306.709 369.45 309.493C374.667 313.315 375.103 319.54 373.22 324.013C372.366 326.044 368.873 332.556 359.883 331.063C357.409 330.707 353.791 332.521 354.052 336.773C354.89 342.573 351.616 346.787 348.273 348.797C343.957 351.392 338.954 351.167 334.888 348.193C332.041 346.035 326.495 347.964 326.898 352.983C327.249 355.457 326.977 356.673 326.602 358.358C325.053 365.009 335.163 367.605 336.59 360.015C342.199 361.467 348.209 360.633 353.482 357.462C359.524 353.829 363.317 347.939 364.131 341.316C372.314 340.699 379.218 335.825 382.539 327.935C385.854 320.059 384.644 311.592 379.673 305.391C382.748 301.504 384.489 296.638 384.489 291.595C384.489 286.536 382.738 281.657 379.646 277.765C382.738 273.873 384.489 268.994 384.489 263.935C384.489 259.299 383.035 254.817 380.397 251.096C383.035 247.375 384.489 242.894 384.489 238.258C384.489 233.621 383.035 229.14 380.397 225.419C383.035 221.697 384.489 217.217 384.489 212.58C384.489 207.948 383.033 203.467 380.396 199.746ZM359.429 174.795C357.044 174.345 353.349 176.05 353.393 180.097C353.393 187.009 347.783 192.632 340.887 192.632C337.967 192.632 335.231 191.654 332.976 189.803C330.223 187.464 324.514 189.163 324.743 194.253C325.416 200.501 321.856 204.788 318.299 206.717C314.71 208.664 309.109 209.306 304.158 205.267C302.208 203.527 296.945 203.869 296.021 208.125C294.793 213.853 289.652 218.01 283.797 218.01C280.665 218.01 277.669 216.844 275.359 214.725C273.468 213.06 269.391 212.625 267.323 216.396C265.313 220.916 260.828 223.836 255.897 223.836C251.09 223.836 246.786 221.145 244.664 216.813C243.132 213.549 237.263 212.714 235.337 217.413C233.613 222.495 228.855 225.91 223.499 225.91C218.486 225.91 213.972 222.924 211.998 218.304C210.746 215.234 205.543 213.818 203.004 217.706C200.72 221.544 196.702 223.836 192.255 223.836C187.176 223.836 182.639 220.796 180.696 216.09C179.655 213.699 175.923 211.575 172.476 214.417C170.123 216.734 167.012 218.01 163.717 218.01C157.602 218.01 152.29 213.453 151.359 207.409C150.902 204.104 146.212 201.475 142.759 204.633C138.367 209.097 132.437 208.705 128.694 207.012C123.762 204.782 121.049 200.225 121.438 194.824C121.74 191.4 117.505 187.756 113.437 190.361C109.638 193.103 104.764 193.333 100.395 190.974C97.0313 189.158 93.5229 185.307 93.7629 179.948C93.8148 177.692 92.0205 174.582 88.2654 174.686C81.4907 175.287 75.8362 170.577 73.7507 165.613C72.4936 162.619 71.3134 156.802 77.5415 151.484C79.2933 149.916 80.3158 146.332 77.3689 143.655C71.8236 139.327 71.8324 132.77 74.3001 128.192C76.5891 123.946 81.6895 120.306 89.1417 122.827C92.7491 124.121 97.646 119.968 94.9761 115.247C91.1092 109.406 93.0376 103.22 96.6639 99.6798C100.06 96.3649 105.927 94.3832 112.205 98.7611C115.078 100.838 120.538 98.8426 120.096 93.8682C119.105 87.231 123.129 82.7904 126.876 81.0056C130.75 79.1587 136.542 78.9929 141.181 84.0603C143.579 86.772 149.482 85.891 149.963 80.8101C150.12 75.9402 153.264 71.6594 157.974 69.9028C162.645 68.1618 167.525 69.3832 171.03 73.1739C172.768 75.2405 178.247 75.5176 179.581 71.2044C181.047 66.3534 185.406 63.0364 190.687 62.7533C193.169 62.6165 199.277 63.1011 202.374 70.4192C203.795 73.9484 210.079 74.8853 211.895 69.822C213.564 63.9053 218.948 61.1848 223.544 61.1141C229.035 61.0359 233.368 64.3414 235.147 69.9716C236.227 73.6154 242.369 75.1374 244.677 70.287C246.915 64.551 252.418 62.6482 256.439 62.7816C261.664 62.94 265.777 66.1215 267.442 71.2914C268.56 74.272 272.483 76.2866 276.022 73.1119C279.255 69.4971 284.429 68.2696 289.201 69.9891C293.911 71.685 296.839 75.742 297.034 80.8411C297.11 84.5059 302.303 87.6435 305.92 83.9424C310.173 78.9929 316.205 79.2989 320.08 81.0662C321.993 81.9391 328.139 85.4421 326.898 93.8797C326.317 97.4083 330.621 101.415 334.869 98.7058C340.493 94.6238 346.718 96.2874 350.395 99.7452C353.869 103.012 356.108 108.821 351.97 115.325C349.853 118.521 352.721 124.266 357.942 122.797C365.114 120.224 370.394 124.09 372.734 128.186C375.146 132.407 375.564 138.713 369.506 143.754C368.339 144.724 367.669 146.167 367.683 147.684C367.696 149.201 368.391 150.633 369.574 151.583C375.341 156.212 374.944 163.087 372.852 167.567C370.808 171.948 366.205 176.145 359.429 174.795Z" fill="black"/>
    <path d="M303.418 113.004C301.696 101.817 293.215 91.8962 280.763 88.4046C272.272 85.8399 253.189 83.2934 219.749 94.3085C214.152 90.1484 208.394 87.1718 202.503 85.4112C184.393 79.5532 160.981 92.9706 150.828 109.872C128.585 118.573 116.359 130.802 116.359 144.427C116.359 160.57 133.591 174.728 163.638 183.269C168.975 185.044 173.165 175.874 166.403 173.543C157.487 171.009 149.802 167.928 143.615 164.512C155.513 148.087 180.336 125.053 225.938 125.053C270.169 125.053 294.768 146.97 306.679 162.579C303.029 164.874 298.713 167.051 293.784 169.053C275.092 176.642 250.132 180.822 223.501 180.822C212.706 180.822 202.093 180.128 191.955 178.76C185.748 178.091 183.986 187.359 190.603 188.78C201.187 190.208 212.255 190.932 223.501 190.932C264.067 191.538 329.303 178.184 330.641 144.426C330.639 132.489 320.994 121.394 303.418 113.004ZM277.839 98.0831C284.913 100.22 289.71 104.212 292.1 109.949C294.809 116.453 294.354 125.264 291.046 133.897C278.413 125.217 261.721 117.921 240.098 115.665C236.4 110.548 232.601 106.027 228.71 102.117C242.18 98.1795 263.165 93.6507 277.839 98.0831ZM126.47 144.427C126.47 137.453 132.873 130.219 144.085 124.101C141.893 130.647 139.41 140.889 144.321 147.868C140.712 151.67 137.686 155.428 135.187 158.909C129.561 154.303 126.47 149.346 126.47 144.427ZM151.933 140.62C149.669 117.329 176.719 88.8178 199.609 95.0992C209.514 98.0043 219.169 105.899 226.738 114.95C192.604 114.567 167.447 127.118 151.933 140.62ZM314.646 156.35C310.794 151.312 305.757 145.69 299.352 140.252C301.674 135.029 303.143 129.695 303.712 124.528C314.489 130.57 320.527 137.628 320.527 144.427C320.528 148.428 318.484 152.475 314.646 156.35Z" fill="black"/>
    <path d="M137.114 257.047C132.734 248.058 120.623 244.17 111.66 249.441C109.243 250.838 108.415 253.929 109.812 256.347C111.208 258.766 114.301 259.591 116.718 258.196C121.336 255.794 128.159 257.918 128.905 264.467C129.364 267.889 133.396 270.643 137.47 267.708C141.362 265.459 146.361 266.797 148.611 270.691C151.405 275.936 160.4 271.91 157.365 265.633C153.198 258.419 144.818 255.121 137.114 257.047Z" fill="black"/>
    <path d="M329.714 312.958C328.453 308.804 331.945 302.632 337.589 302.731C340.382 302.731 342.644 300.467 342.644 297.675C342.644 294.884 340.382 292.62 337.589 292.62C329.12 292.62 321.978 298.415 319.92 306.247C317.077 305.462 311.204 305.849 307.446 307.979C304.069 303.446 298.661 300.557 292.777 300.557C282.706 300.557 274.511 308.751 274.511 318.823C274.511 319.132 274.519 319.44 274.534 319.746C266.901 321.937 261.3 328.98 261.3 337.308C261.3 340.1 263.562 342.363 266.355 342.363C269.147 342.363 271.41 340.1 271.41 337.308C271.41 332.811 275.069 329.152 279.566 329.152C282.514 329.649 287.044 326.912 285.319 322.112C283.033 317.882 286.847 310.42 292.776 310.667C296.564 310.667 299.909 313.349 300.73 317.045C301.418 320.392 306.469 322.679 309.64 319.072C311.203 317.082 313.539 315.941 316.05 315.941C318.039 315.941 319.96 316.677 321.461 318.014C324.379 320.713 330.725 318.5 329.714 312.958Z" fill="black"/>
</svg>
