<svg viewBox="0 0 447 447" fill="none" xmlns="http://www.w3.org/2000/svg">
    <g clip-path="url(#clip0_22_1597)">
        <path d="M390.946 223.5C390.946 315.978 315.978 390.946 223.5 390.946C131.022 390.946 56.0537 315.978 56.0537 223.5C56.0537 131.022 131.022 56.0537 223.5 56.0537C315.978 56.0537 390.946 131.022 390.946 223.5Z" fill="#F0F0F0"/>
        <path d="M223.5 360.624C147.715 360.624 86.376 299.295 86.376 223.5C86.376 147.713 147.707 86.376 223.5 86.376C299.285 86.376 360.624 147.705 360.624 223.5C360.624 299.287 299.292 360.624 223.5 360.624Z" fill="#E3E3E3"/>
        <path d="M317.862 261.124C317.862 261.124 309.347 290.643 301.438 305.47C300.619 307.005 301.264 308.913 302.83 309.669L314.469 315.275C316.251 316.133 318.368 315.114 318.804 313.185C320.681 304.897 325.898 284.734 335.068 270.142L317.862 261.124Z" fill="#4BAB3D"/>
        <path d="M355.934 258.599C359.266 252.806 355.762 245.328 349.098 244.225C348.693 244.159 348.327 243.928 348.148 243.557C347.129 241.44 345.371 239.722 343.047 238.79C342.67 238.637 342.386 238.305 342.294 237.908C341.594 234.902 339.483 232.28 336.39 231.067C332.194 229.419 327.551 230.899 325.011 234.373C324.616 234.915 323.866 235.031 323.284 234.699C317.228 231.228 309.468 234.036 307.021 240.593C306.852 241.043 306.436 241.359 305.96 241.411C301.906 241.872 298.234 244.496 296.642 248.558C293.615 256.27 299.558 264.222 307.378 264.095C308.081 264.085 308.705 264.585 308.758 265.285C309.245 271.847 316.149 276.04 322.192 273.466C322.877 273.173 323.677 273.508 323.935 274.208C326.333 280.72 334.797 282.607 339.751 277.798C340.249 277.316 341.03 277.24 341.552 277.698C342.504 278.532 343.61 279.222 344.858 279.712C357.163 284.542 366.052 268.12 356.257 260.326C355.734 259.907 355.599 259.181 355.934 258.599Z" fill="#58C748"/>
        <path d="M356.257 260.326C355.734 259.907 355.599 259.181 355.934 258.599C359.263 252.811 355.768 245.339 349.114 244.23C349.116 245.841 348.716 247.484 347.84 249.01C347.505 249.592 347.64 250.319 348.164 250.737C357.955 258.531 349.069 274.953 336.764 270.12C335.516 269.633 334.411 268.941 333.458 268.109C332.937 267.651 332.155 267.728 331.657 268.209C326.704 273.018 318.239 271.128 315.838 264.616C315.583 263.919 314.783 263.585 314.096 263.877C312.172 264.695 310.161 264.824 308.297 264.414C308.555 264.624 308.731 264.927 308.758 265.285C309.242 271.85 316.146 276.04 322.19 273.466C322.877 273.173 323.674 273.51 323.932 274.208C326.333 280.72 334.798 282.607 339.751 277.801C340.249 277.316 341.028 277.243 341.552 277.698C342.504 278.533 343.61 279.222 344.855 279.712C357.163 284.542 366.052 268.12 356.257 260.326Z" fill="#51B842"/>
        <path d="M273.161 227.714C273.161 227.714 275.045 258.381 272.568 275C272.313 276.719 273.558 278.304 275.287 278.488L288.135 279.864C290.101 280.075 291.754 278.406 291.517 276.443C290.504 268.004 288.656 247.26 292.396 230.436L273.161 227.714Z" fill="#4BAB3D"/>
        <path d="M308.181 212.563C309.376 205.988 303.567 200.119 296.918 201.316C296.515 201.39 296.092 201.295 295.8 201.006C294.128 199.355 291.899 198.323 289.396 198.226C288.988 198.21 288.609 197.992 288.39 197.65C286.721 195.052 283.852 193.291 280.533 193.183C276.027 193.038 272.15 195.991 270.923 200.119C270.734 200.761 270.065 201.121 269.407 201.003C262.537 199.766 256.167 205.012 256.062 212.011C256.054 212.492 255.77 212.929 255.338 213.14C251.674 214.932 249.095 218.636 248.955 222.997C248.692 231.278 256.96 236.774 264.285 234.034C264.943 233.786 265.698 234.047 265.98 234.689C268.641 240.709 276.553 242.343 281.381 237.89C281.928 237.384 282.794 237.432 283.271 238.003C287.716 243.333 296.323 242.272 299.379 236.081C299.685 235.458 300.395 235.126 301.04 235.381C302.217 235.847 303.491 236.126 304.828 236.168C318.041 236.592 320.905 218.138 309.066 214.082C308.431 213.864 308.06 213.224 308.181 212.563Z" fill="#58C748"/>
        <path d="M309.066 214.083C308.431 213.864 308.06 213.224 308.181 212.564C309.374 205.994 303.575 200.127 296.934 201.314C297.479 202.833 297.653 204.515 297.339 206.247C297.218 206.907 297.59 207.547 298.224 207.763C310.063 211.822 307.199 230.273 293.986 229.852C292.646 229.807 291.375 229.528 290.198 229.065C289.554 228.809 288.843 229.141 288.538 229.762C285.482 235.953 276.875 237.016 272.429 231.686C271.952 231.112 271.086 231.065 270.539 231.57C269.002 232.992 267.149 233.787 265.254 234.024C265.57 234.137 265.835 234.363 265.98 234.69C268.641 240.709 276.553 242.344 281.381 237.89C281.928 237.385 282.794 237.432 283.271 238.003C287.716 243.333 296.323 242.273 299.379 236.082C299.685 235.461 300.395 235.126 301.04 235.382C302.217 235.848 303.491 236.127 304.828 236.169C318.041 236.59 320.905 218.139 309.066 214.083Z" fill="#51B842"/>
        <path d="M269.252 290.206C269.252 290.206 266.443 320.799 261.463 336.848C260.948 338.508 261.937 340.264 263.619 340.709L276.106 344.028C278.02 344.536 279.907 343.138 279.973 341.162C280.254 332.668 281.586 311.884 287.848 295.826L269.252 290.206Z" fill="#4BAB3D"/>
        <path d="M306.17 280.568C308.352 274.248 303.507 267.562 296.755 267.736C296.342 267.746 295.939 267.586 295.694 267.257C294.294 265.37 292.246 264.011 289.788 263.535C289.388 263.456 289.046 263.182 288.88 262.811C287.627 259.989 285.06 257.81 281.797 257.199C277.367 256.37 273.084 258.697 271.242 262.59C270.957 263.195 270.242 263.451 269.61 263.232C263.008 260.963 255.915 265.18 254.743 272.082C254.662 272.555 254.314 272.942 253.856 273.087C249.961 274.3 246.85 277.567 246.047 281.857C244.523 289.998 251.859 296.692 259.516 295.097C260.203 294.955 260.911 295.329 261.092 296.005C262.806 302.359 270.373 305.181 275.824 301.514C276.443 301.098 277.29 301.277 277.675 301.914C281.257 307.86 289.927 308.121 293.889 302.467C294.286 301.898 295.039 301.68 295.636 302.03C296.729 302.67 297.945 303.138 299.261 303.386C312.256 305.815 317.896 288.014 306.812 282.199C306.22 281.889 305.952 281.202 306.17 280.568Z" fill="#58C748"/>
        <path d="M306.812 282.199C306.22 281.888 305.952 281.201 306.17 280.567C308.352 274.253 303.512 267.572 296.768 267.735C297.074 269.317 296.992 271.004 296.416 272.671C296.197 273.305 296.466 273.992 297.06 274.303C308.142 280.117 302.501 297.918 289.506 295.489C288.19 295.241 286.974 294.773 285.882 294.133C285.284 293.783 284.531 294.001 284.134 294.57C280.173 300.224 271.502 299.961 267.923 294.017C267.538 293.38 266.688 293.201 266.072 293.617C264.335 294.783 262.382 295.289 260.474 295.236C260.768 295.394 260.997 295.66 261.09 296.005C262.803 302.359 270.373 305.178 275.824 301.514C276.44 301.098 277.29 301.277 277.675 301.914C281.257 307.857 289.925 308.12 293.886 302.466C294.283 301.898 295.036 301.679 295.634 302.03C296.726 302.669 297.942 303.138 299.261 303.385C312.256 305.815 317.896 288.013 306.812 282.199Z" fill="#51B842"/>
        <path d="M195.678 100.784C191.496 98.9309 181.944 125.2 154.743 129.037C147.173 130.106 140.869 135.799 138.356 143.364C134.128 156.075 136.905 166.745 143.286 171.741C151.919 178.498 169.433 168.948 182.405 150.41C195.378 131.875 204.312 107.541 195.678 100.784Z" fill="#CC6937"/>
        <path d="M251.322 100.784C255.504 98.9309 265.054 125.2 292.257 129.037C299.827 130.106 306.131 135.799 308.644 143.364C312.872 156.075 310.095 166.745 303.714 171.741C295.081 178.498 277.567 168.948 264.596 150.41C251.622 131.872 242.688 107.541 251.322 100.784Z" fill="#CC6937"/>
        <path d="M192.375 190.398C191.67 194.925 187.99 198.586 183.215 199.079C149.511 202.54 127.806 188.076 126.895 187.458C122.181 184.247 120.947 177.827 124.168 173.102C127.369 168.398 133.76 167.167 138.477 170.336C139.306 170.878 155.383 181.159 181.107 178.516C186.784 177.935 191.856 182.065 192.441 187.742C192.536 188.648 192.504 189.537 192.375 190.398Z" fill="#CC6937"/>
        <path d="M254.625 190.398C255.331 194.925 259.01 198.586 263.785 199.079C297.492 202.54 319.194 188.076 320.105 187.458C324.819 184.247 326.054 177.827 322.832 173.102C319.631 168.398 313.24 167.167 308.523 170.336C307.694 170.878 291.617 181.159 265.893 178.516C260.216 177.935 255.144 182.065 254.559 187.742C254.465 188.648 254.496 189.537 254.625 190.398Z" fill="#CC6937"/>
        <path d="M175.732 68.9958C180.654 73.4678 155.225 103.35 168.157 142.672C171.755 153.616 168.975 165.824 161.5 174.113C148.937 188.037 134.315 191.159 124.192 185.739C110.494 178.406 110.681 148.523 124.608 118.991C138.532 89.4607 162.034 61.6626 175.732 68.9958Z" fill="#F58953"/>
        <path d="M175.732 68.9963C170.06 65.9589 162.706 68.9516 155.046 75.5925C151.014 87.2529 137.89 112.108 147.942 142.673C151.54 153.617 148.76 165.825 141.285 174.113C136.018 179.949 130.391 183.881 124.887 186.087C134.976 191.009 149.221 187.722 161.5 174.113C168.975 165.825 171.755 153.617 168.157 142.673C155.225 103.348 180.654 73.4683 175.732 68.9963Z" fill="#E67C47"/>
        <path d="M271.268 68.9958C266.343 73.4678 291.775 103.35 278.843 142.672C275.245 153.616 278.025 165.824 285.5 174.113C298.063 188.037 312.685 191.159 322.808 185.739C336.506 178.406 336.319 148.523 322.392 118.991C308.466 89.4607 284.966 61.6626 271.268 68.9958Z" fill="#F58953"/>
        <path d="M322.392 118.991C308.465 89.4607 284.966 61.6626 271.268 68.9958C270.173 69.9907 270.584 72.2517 271.739 75.5919C282.573 84.9887 294.018 101.69 302.177 118.991C316.104 148.521 316.288 178.406 302.593 185.739C302.364 185.86 302.132 185.973 301.898 186.087C309.529 189.145 316.928 188.887 322.808 185.739C336.503 178.406 336.319 148.521 322.392 118.991Z" fill="#E67C47"/>
        <path d="M241.812 255.191H205.186C192.47 255.191 182.162 244.881 182.162 232.165V196.491C182.162 177.54 197.524 162.179 216.472 162.179H230.525C249.477 162.179 264.838 177.54 264.838 196.491V232.165C264.838 244.881 254.53 255.191 241.812 255.191Z" fill="#F58953"/>
        <path d="M230.525 162.179H216.472C215.435 162.179 214.409 162.231 213.393 162.323C230.896 163.882 244.623 178.58 244.623 196.491V232.165C244.623 244.881 234.313 255.191 221.597 255.191H241.812C254.528 255.191 264.838 244.881 264.838 232.165V196.491C264.838 177.54 249.477 162.179 230.525 162.179Z" fill="#E67C47"/>
        <path d="M239.79 311.24H207.21C200.511 311.24 195.081 305.81 195.081 299.111V294.429C195.081 287.73 200.511 282.3 207.21 282.3H239.79C246.489 282.3 251.919 287.73 251.919 294.429V299.111C251.919 305.81 246.489 311.24 239.79 311.24Z" fill="#F58953"/>
        <path d="M239.79 282.3H219.575C226.274 282.3 231.704 287.73 231.704 294.429V299.111C231.704 305.81 226.274 311.24 219.575 311.24H239.79C246.489 311.24 251.919 305.81 251.919 299.111V294.429C251.919 287.73 246.489 282.3 239.79 282.3Z" fill="#E67C47"/>
        <path d="M237.208 337.866H209.792C203.096 337.866 197.663 332.436 197.663 325.737V323.368C197.663 316.669 203.096 311.239 209.792 311.239H237.208C243.907 311.239 249.337 316.669 249.337 323.368V325.737C249.337 332.436 243.907 337.866 237.208 337.866Z" fill="#E67C47"/>
        <path d="M237.208 311.239H216.993C223.692 311.239 229.122 316.669 229.122 323.368V325.737C229.122 332.436 223.692 337.866 216.993 337.866H237.208C243.907 337.866 249.337 332.436 249.337 325.737V323.368C249.337 316.669 243.907 311.239 237.208 311.239Z" fill="#CC6937"/>
        <path d="M223.5 368.87C217.794 368.87 213.166 364.243 213.166 358.536V337.866H233.834V358.536C233.834 364.243 229.207 368.87 223.5 368.87Z" fill="#CC6937"/>
        <path d="M213.166 337.866C213.166 337.866 176.995 340.104 176.995 362.253C176.995 373.637 186.55 374.977 195.839 373.592C205.867 372.097 213.166 363.766 213.166 354.172V337.866Z" fill="#F58953"/>
        <path d="M233.834 337.866C233.834 337.866 270.005 340.104 270.005 362.253C270.005 373.637 260.45 374.977 251.161 373.592C241.13 372.097 233.834 363.766 233.834 354.172V337.866Z" fill="#F58953"/>
        <path d="M242.375 282.3H204.625C197.926 282.3 192.496 276.87 192.496 270.171V260.045C192.496 253.346 197.926 247.916 204.625 247.916H242.375C249.074 247.916 254.504 253.346 254.504 260.045V270.171C254.504 276.87 249.074 282.3 242.375 282.3Z" fill="#E67C47"/>
        <path d="M242.375 247.916H222.16C228.859 247.916 234.289 253.346 234.289 260.045V270.171C234.289 276.87 228.859 282.3 222.16 282.3H242.375C249.074 282.3 254.504 276.87 254.504 270.171V260.045C254.504 253.346 249.074 247.916 242.375 247.916Z" fill="#CC6937"/>
        <path d="M84.236 213.782C84.6519 218.343 85.6468 222.921 85.0204 227.461C83.7965 236.342 76.4896 244.554 78.7348 253.222C80.5773 260.331 88.2527 264.593 90.79 271.484C93.5459 278.967 89.574 287.44 91.3112 295.22C94.325 308.707 112.397 307.475 117.09 320.476C122.621 335.803 146.568 346.436 155.293 347.055C162.603 347.574 171.384 347.413 175.398 341.32C182.723 330.199 167.406 318.159 166.756 306.817C166.456 301.606 168.767 296.292 167.401 291.256C165.266 283.397 155.22 279.696 153.019 271.857C151.016 264.727 156.022 255.82 151.09 250.269C146.849 245.499 137.624 246.697 134.789 240.993C132.783 236.955 135.4 231.662 133.141 227.758C130.872 223.845 125.203 223.666 121.607 220.889C118.385 218.399 117.222 214.148 116.417 210.173C114.424 200.342 109.518 194.372 98.6812 195.502C87.9157 196.626 83.2911 203.411 84.236 213.782Z" fill="#FFE082"/>
        <path d="M166.756 306.817C166.456 301.606 168.77 296.292 167.401 291.254C165.267 283.397 155.22 279.696 153.019 271.857C151.016 264.727 156.022 255.82 151.09 250.269C146.852 245.499 137.624 246.697 134.792 240.993C132.783 236.955 135.402 231.662 133.141 227.758C130.872 223.842 125.203 223.663 121.61 220.889C118.385 218.399 117.222 214.148 116.417 210.173C114.427 200.342 109.52 194.372 98.6839 195.502C93.6855 196.023 90.0136 197.765 87.6052 200.518C92.5642 202.629 95.2516 207.512 96.5992 214.169C97.4047 218.143 98.5681 222.394 101.792 224.884C105.385 227.658 111.055 227.837 113.324 231.754C115.585 235.658 112.969 240.951 114.974 244.988C117.806 250.692 127.035 249.495 131.275 254.264C136.205 259.813 131.199 268.722 133.202 275.853C135.405 283.691 145.449 287.392 147.584 295.249C148.953 300.287 146.641 305.601 146.939 310.813C147.592 322.152 162.908 334.192 155.583 345.315C155.188 345.913 154.746 346.452 154.267 346.942C154.625 346.992 154.972 347.031 155.293 347.052C162.603 347.571 171.384 347.41 175.398 341.32C182.723 330.196 167.406 318.157 166.756 306.817Z" fill="#FFD54F"/>
        <path d="M102.103 233.518L98.139 234.318C95.4042 234.869 93.6327 237.535 94.1855 240.27C94.733 242.986 97.3809 244.779 100.137 244.223L104.101 243.426C106.836 242.873 108.607 240.209 108.054 237.472C107.504 234.737 104.838 232.968 102.103 233.518Z" fill="black"/>
        <path d="M126.221 288.767C123.502 288.127 120.783 289.809 120.144 292.525L119.217 296.46C118.578 299.177 120.26 301.898 122.979 302.538C125.677 303.172 128.411 301.509 129.056 298.777L129.983 294.842C130.622 292.125 128.938 289.406 126.221 288.767Z" fill="black"/>
        <path d="M130.154 255.702C128.245 253.665 125.047 253.562 123.01 255.468C120.973 257.376 120.87 260.574 122.779 262.611L125.542 265.562C127.443 267.591 130.641 267.707 132.686 265.794C134.721 263.885 134.826 260.687 132.918 258.653L130.154 255.702Z" fill="black"/>
        <path d="M150.376 316.751L146.502 317.904C143.828 318.699 142.304 321.512 143.099 324.187C143.894 326.861 146.707 328.388 149.384 327.59L153.259 326.437C155.936 325.642 157.457 322.829 156.662 320.152C155.867 317.477 153.053 315.953 150.376 316.751Z" fill="black"/>
        <path d="M82.4331 133.27C84.7414 134.844 87.8842 134.247 89.4556 131.946C91.8561 128.43 94.4277 124.966 97.0993 121.649C98.8497 119.475 98.5049 116.293 96.3308 114.543C94.154 112.795 90.9744 113.137 89.224 115.311C86.3892 118.836 83.6596 122.513 81.1091 126.248C79.5351 128.551 80.1273 131.696 82.4331 133.27Z" fill="black"/>
        <path d="M325.498 349.877C305.023 366.425 280.444 377.835 254.417 382.878C211.84 391.128 168.602 382.305 132.662 358.034C96.723 333.763 72.3863 296.952 64.1371 254.38C57.183 218.483 62.2657 182.333 78.8403 149.842C80.1063 147.354 79.1193 144.312 76.6345 143.043C74.1472 141.774 71.1044 142.764 69.8357 145.249C52.2293 179.769 46.8282 218.172 54.2166 256.304C62.979 301.524 88.8293 340.627 127.006 366.409C155.851 385.89 189.122 396 223.174 396C234.187 396 245.286 394.941 256.339 392.802C283.984 387.445 310.095 375.319 331.852 357.736C334.024 355.983 334.361 352.801 332.605 350.632C330.849 348.458 327.67 348.124 325.498 349.877Z" fill="black"/>
        <path d="M392.849 190.696C384.087 145.476 358.237 106.373 320.06 80.5909C281.886 54.8117 235.953 45.4387 190.727 54.201C158.047 60.5313 128.135 76.0057 104.222 98.9474C102.208 100.879 102.143 104.077 104.075 106.091C106.007 108.105 109.207 108.17 111.221 106.238C120.049 97.7682 129.746 90.3798 140.13 84.168C132.391 93.8832 125.337 105.683 120.07 116.849C117.517 122.266 115.372 127.764 113.674 133.21C98.4234 151.743 88.1002 173.895 83.7414 197.424C80.3117 201.53 78.7587 207.252 79.3957 214.198C79.8142 218.749 80.7276 222.987 80.2196 226.735C79.1456 234.637 71.3492 243.744 74.1156 254.431C75.387 259.342 78.5587 262.977 81.3593 266.183C87.0289 272.674 87.5711 274.053 86.5393 283.626C86.1235 287.496 85.6497 291.883 86.6315 296.274C88.6793 305.455 95.9782 309.477 101.845 312.706C106.675 315.367 110.847 317.665 112.466 322.166C116.038 332.089 125.298 339.304 132.436 343.607C145.152 351.275 154.478 352.854 163.143 352.249C166.262 353.718 169.462 355.078 172.708 356.321C172.176 358.39 171.973 360.39 171.973 362.235C171.973 367.707 173.721 371.985 177.169 374.956C180.346 377.694 184.771 379.07 190.372 379.07C192.315 379.07 194.397 378.904 196.618 378.573C203.138 377.599 208.808 374.209 212.708 369.445C215.491 372.2 219.315 373.906 223.534 373.906C227.751 373.906 231.578 372.2 234.36 369.445C238.259 374.209 243.931 377.599 250.448 378.573C252.669 378.904 254.754 379.07 256.697 379.07C262.295 379.07 266.722 377.694 269.899 374.956C273.345 371.985 275.093 367.707 275.093 362.235C275.093 360.39 274.893 358.39 274.358 356.321C308.008 343.444 335.821 317.936 351.564 285.429C356.31 284.727 360.587 281.897 363.206 277.354C366.883 270.981 366.136 263.551 361.564 258.384C361.945 257.221 362.177 256.018 362.259 254.804C364.549 244.576 365.709 234.047 365.709 223.5C365.709 190.567 354.241 158.547 333.395 133.21C331.694 127.764 329.552 122.266 326.996 116.849C321.745 105.712 314.712 93.9437 306.997 84.2443C309.497 85.7472 311.969 87.3213 314.404 88.9664C350.343 113.235 374.68 150.048 382.929 192.62C387.946 218.512 386.577 245.447 378.97 270.513C371.603 294.787 358.432 317.333 340.875 335.719C338.948 337.738 339.022 340.936 341.041 342.863C342.02 343.797 343.276 344.26 344.531 344.26C345.863 344.26 347.192 343.736 348.187 342.697C366.828 323.172 380.82 299.227 388.643 273.448C396.724 246.816 398.179 218.202 392.849 190.696ZM170.878 72.8787C170.323 74.6291 169.375 77.0533 168.559 79.1406C159.918 101.235 155.486 120.228 163.39 144.26C166.356 153.277 164.153 163.669 157.781 170.731C143.501 186.558 118.936 191.915 119.13 160.729C119.212 147.534 123.531 133.207 129.212 121.16C135.534 107.757 156.109 72.9656 170.878 72.8787ZM292.262 204.586C293.71 206.028 295.802 206.668 297.85 206.294C301.006 205.723 303.809 208.531 303.241 211.653C302.662 214.812 304.449 217.846 307.463 218.862C311.095 220.107 311.848 223.479 311.39 225.988C310.566 230.481 306.347 232.026 302.946 230.686C299.885 229.462 296.342 230.857 294.878 233.845C293.431 236.779 289.269 237.266 287.182 234.763C286.079 233.445 284.46 232.618 282.739 232.502C281.007 232.389 279.283 232.987 277.988 234.171C275.709 236.271 271.892 235.498 270.639 232.663C270.444 232.221 270.205 231.81 269.923 231.434V206.078C271.337 206.028 272.666 205.52 273.727 204.662H274.079C279.862 204.662 285.229 204.18 290.13 203.399C290.938 203.593 291.67 204.001 292.262 204.586ZM320.829 279.083C321.555 280.157 322.421 281.123 323.398 281.963C319.007 292.36 316.096 302.891 314.475 309.642L308.839 306.929C312.477 305.091 315.372 301.856 316.841 297.619C318.491 292.865 318.015 288.014 315.807 284.076C316.357 282.51 316.915 280.894 317.473 279.236C318.591 279.312 319.718 279.262 320.829 279.083ZM340.836 283.347C340.959 283.418 341.083 283.487 341.209 283.555C336.819 292.139 331.515 300.175 325.432 307.534C327.08 301.338 329.528 293.357 332.86 285.54C335.687 285.587 338.451 284.827 340.836 283.347ZM209.826 332.8C205.925 332.8 202.751 329.628 202.751 325.727V323.358C202.751 319.458 205.925 316.283 209.826 316.283H237.24C241.141 316.283 244.315 319.458 244.315 323.358V325.727C244.315 329.628 241.143 332.8 237.24 332.8H209.826ZM174.779 152.177C174.719 142.794 171.873 140.627 170.257 129.522C180.894 124.305 187.498 116.643 194.07 108.565C195.047 120.67 183.281 141.751 174.779 152.177ZM159.671 182.968C166.035 183.997 172.602 184.266 179.254 183.763C178.093 187.148 177.382 190.738 177.193 194.465C164.988 195.021 154.722 193.173 146.894 190.825C151.256 189.082 155.578 186.445 159.671 182.968ZM187.248 196.497C187.248 180.365 200.374 167.241 216.504 167.241H230.562C246.695 167.241 259.818 180.365 259.818 196.497V232.165C259.818 237.835 257.21 243.031 252.835 246.395C249.943 244.178 246.326 242.86 242.407 242.86H204.659C200.74 242.86 197.123 244.178 194.231 246.395C189.856 243.031 187.248 237.835 187.248 232.165C187.248 232.031 187.248 194.568 187.248 196.497ZM289.783 299.559C287.906 302.233 283.726 302.096 282.031 299.285C281.136 297.808 279.652 296.75 277.962 296.379C276.269 296.005 274.472 296.347 273.034 297.313C270.465 299.043 266.817 297.698 266.004 294.679C265.125 291.423 261.821 289.433 258.523 290.143C257.784 290.299 257.099 290.307 256.489 290.228C255.868 287.753 254.707 285.492 253.141 283.574C255.757 281.473 257.75 278.625 258.787 275.359C259.274 274.627 259.608 273.798 259.76 272.919C260.071 271.095 261.163 269.505 262.758 268.557C264.351 267.612 266.262 267.412 268.015 268.015C271.116 269.071 274.485 267.652 275.84 264.749C276.74 262.851 278.817 261.772 280.899 262.161C282.4 262.443 283.671 263.451 284.313 264.896C286.266 269.197 289.659 267.562 291.651 270.244C292.846 271.868 294.792 272.821 296.916 272.782C298.442 272.74 299.848 273.437 300.764 274.69C301.68 275.94 301.922 277.478 301.435 278.886C300.382 281.886 301.656 285.153 304.499 286.672C307.492 288.24 308.318 291.354 307.294 294.307C305.783 298.658 301.322 299.466 298.237 297.669C295.413 296 291.699 296.826 289.783 299.559ZM266.912 336.338C269.231 328.102 271.031 317.199 272.279 308.071C273.392 307.937 274.493 307.676 275.551 307.289C276.467 308.208 277.496 308.995 278.615 309.634C276.251 320.679 275.374 331.565 275.056 338.499L266.912 336.338ZM207.241 306.176C203.341 306.176 200.166 303.004 200.166 299.103V294.421C200.166 290.52 203.341 287.345 207.241 287.345H239.825C243.725 287.345 246.9 290.52 246.9 294.421V299.103C246.9 303.004 243.725 306.176 239.825 306.176H207.241ZM204.659 277.238C200.758 277.238 197.584 274.066 197.584 270.166V260.04C197.584 256.139 200.756 252.967 204.659 252.967H242.407C246.308 252.967 249.482 256.139 249.482 260.04V270.166C249.482 274.061 246.313 277.238 242.407 277.238H204.659ZM267.549 243.531C267.939 243.752 268.341 243.957 268.755 244.144C268.844 248.861 268.849 253.241 268.77 257.223C268.628 257.392 268.489 257.563 268.352 257.739C265.375 257.3 262.332 257.689 259.55 258.876C259.453 257.402 259.166 255.976 258.716 254.625C262.606 251.717 265.628 247.892 267.549 243.531ZM285.142 252.886C284.374 252.601 283.579 252.38 282.76 252.227C281.476 251.988 280.191 251.922 278.933 252.017C278.938 249.745 278.92 247.379 278.878 244.921C279.96 244.618 281.004 244.194 281.989 243.652C283.036 244.421 284.174 245.042 285.379 245.502C285.24 247.884 285.161 250.348 285.142 252.886ZM250.556 312.511C254.175 309.608 256.599 305.273 256.96 300.372C257.126 300.375 257.294 300.375 257.46 300.375C258.621 302.546 260.321 304.402 262.393 305.76C260.69 318.447 258.676 328.862 256.673 335.329C256.399 336.209 256.281 337.125 256.315 338.035C254.533 337.275 252.741 336.624 250.956 336.064C253.133 333.184 254.423 329.604 254.423 325.727V323.358C254.423 319.247 252.972 315.47 250.556 312.511ZM288.58 311.366C291.365 310.879 293.936 309.613 296 307.713C296.037 307.726 296.073 307.739 296.11 307.752C296.41 310.59 298.19 313.019 300.669 314.212C312.89 320.063 312.414 319.942 313.425 320.258C304.923 328.154 295.397 334.937 285.09 340.378C285.342 333.869 286.129 322.629 288.58 311.366ZM269.873 194.465C269.684 190.738 268.973 187.148 267.812 183.76C274.466 184.263 281.033 183.997 287.395 182.965C291.488 186.442 295.808 189.08 300.169 190.825C290.359 193.768 280.081 194.928 269.873 194.465ZM272.287 152.177C263.738 141.691 252.027 120.57 252.996 108.565C259.703 116.817 266.22 124.329 276.809 129.522C275.195 140.619 272.347 142.794 272.287 152.177ZM277.504 118.354C270.207 113.772 265.151 107.518 261.537 103.054C259.984 101.132 258.642 99.4712 257.384 98.2683C253.943 94.9808 250.422 95.1124 248.24 96.818C235.305 106.947 248.479 136.155 260.487 153.314C265.409 160.353 271.118 166.399 277.051 170.871C277.601 171.86 278.196 172.826 278.838 173.763C274.769 174.016 270.623 173.927 266.436 173.495C265.138 173.363 263.832 173.398 262.556 173.592C255.404 163.635 243.728 157.136 230.56 157.136H216.504C203.338 157.136 191.662 163.635 184.51 173.59C183.231 173.395 181.925 173.361 180.625 173.495C176.44 173.927 172.294 174.016 168.228 173.763C168.87 172.826 169.465 171.86 170.015 170.871C175.948 166.401 181.657 160.353 186.576 153.317C198.587 136.155 211.761 106.947 198.826 96.8207C196.639 95.1071 193.136 94.9703 189.682 98.271C188.424 99.4712 187.082 101.132 185.529 103.054C181.915 107.52 176.856 113.772 169.56 118.354C169.67 112.492 170.499 107.01 171.668 101.998C188.069 94.9966 205.504 91.4458 223.532 91.4458C241.559 91.4458 258.995 94.994 275.395 101.998C276.564 107.007 277.396 112.49 277.504 118.354ZM121.976 318.744C119.065 310.653 112.508 307.042 106.723 303.854C101.037 300.722 97.5022 298.574 96.4941 294.071C95.8782 291.307 96.223 288.104 96.5888 284.708C97.9391 272.169 96.4362 268.078 88.9714 259.534C86.7104 256.944 84.5705 254.496 83.8993 251.898C82.241 245.487 88.9477 237.551 90.2322 228.096C90.9587 222.769 89.8795 217.831 89.461 213.274C89.0451 208.742 89.8242 205.512 91.93 203.417C91.9668 203.383 92.0037 203.346 92.0379 203.312C93.6698 201.748 96.0703 200.838 99.2894 200.503C105.622 199.848 109.549 201.719 111.466 211.171C113.758 222.492 117.735 225.351 124.7 228.093C126.429 228.778 128.219 229.483 128.688 230.296C129.754 232.142 127.603 238.014 130.193 243.247C134.147 251.238 144.373 250.501 147.152 253.646C148.437 255.099 148.242 257.721 147.771 261.864C146.528 272.734 147.744 276.841 156.554 285.219C159.163 287.698 161.629 290.043 162.327 292.623C163.306 296.232 161.203 301.435 161.537 307.155C161.863 312.738 164.688 317.884 167.42 322.861C171.342 330.007 173.613 334.59 170.986 338.601C168.317 342.681 160.474 342.391 155.601 342.039C148.126 341.494 126.614 331.623 121.976 318.744ZM176.927 347.113C177.854 346.261 178.701 345.274 179.446 344.134C185.526 334.84 180.399 325.501 176.282 317.999C173.987 313.822 171.821 309.874 171.629 306.565C171.368 302.104 173.792 296.279 172.081 289.978C170.644 284.669 166.859 281.07 163.519 277.893C157.197 271.882 156.915 270.879 157.812 263.009C158.378 258.052 159.081 251.883 154.725 246.953C149.758 241.333 140.569 241.428 139.251 238.764C138.198 236.637 140.496 230.541 137.442 225.248C135.21 221.376 131.438 219.889 128.406 218.691C124.392 217.109 122.908 216.754 121.37 209.163C118.354 194.276 108.881 188.201 95.5228 190.859C98.4971 179.159 103.08 167.917 109.113 157.47C109.057 158.55 109.028 159.613 109.02 160.666C108.891 181.336 116.767 186.685 124.087 191.641C134.831 198.935 155.491 205.441 177.138 204.58V232.165C177.138 241.154 181.333 249.38 188.348 254.625C187.782 256.328 187.474 258.15 187.474 260.04V270.166C187.474 275.582 189.996 280.42 193.925 283.574C191.509 286.532 190.059 290.309 190.059 294.421V299.103C190.059 304.52 192.578 309.361 196.508 312.511C194.091 315.47 192.641 319.247 192.641 323.358V325.727C192.641 329.604 193.933 333.184 196.107 336.064C189.19 338.246 182.115 341.728 177.414 347.295C177.253 347.235 177.09 347.174 176.927 347.113ZM195.128 368.576C189.696 369.387 185.663 368.934 183.768 367.299C183.349 366.941 182.081 365.849 182.081 362.235C182.081 355.434 186.992 350.156 196.681 346.548C200.798 345.016 204.98 344.102 208.144 343.576V354.157C208.144 361.272 202.548 367.47 195.128 368.576ZM228.814 358.521C228.814 361.432 226.445 363.801 223.534 363.801C220.621 363.801 218.252 361.432 218.252 358.521V342.907H228.814V358.521ZM263.298 367.299C261.403 368.934 257.37 369.387 251.938 368.576C244.518 367.47 238.922 361.272 238.922 354.157V343.576C242.086 344.105 246.268 345.016 250.385 346.548C260.071 350.156 264.983 355.434 264.983 362.235C264.985 365.849 263.717 366.941 263.298 367.299ZM354.452 272.305C352.146 276.298 347.611 276.251 344.91 273.89C343.713 272.84 342.236 272.321 340.757 272.321C339.143 272.321 337.527 272.94 336.264 274.166C333.932 276.43 329.841 275.535 328.707 272.455C328.109 270.834 326.854 269.51 325.264 268.823C323.666 268.136 321.837 268.131 320.242 268.813C317.391 270.026 314.059 268.023 313.827 264.909C313.582 261.564 310.713 258.979 307.329 259.039C305.246 259.063 303.275 258.039 302.051 256.276C300.843 254.533 300.595 252.391 301.377 250.403C302.235 248.219 304.22 246.697 306.563 246.432C308.95 246.163 310.95 244.6 311.787 242.36C312.435 240.625 313.809 239.267 315.557 238.635C317.299 238.006 319.21 238.169 320.805 239.083C323.64 240.709 327.217 239.964 329.123 237.356C330.37 235.65 332.613 234.997 334.576 235.771C335.998 236.329 337.053 237.556 337.403 239.056C337.872 241.062 339.291 242.715 341.196 243.478C342.565 244.028 343.273 245.018 343.626 245.747C344.507 247.576 346.258 248.871 348.306 249.211C350.561 249.585 352.049 251.49 352.18 253.536C351.993 254.341 351.785 255.194 351.541 256.157C350.006 258.908 350.672 262.311 353.144 264.277C356.147 266.667 355.726 270.097 354.452 272.305ZM355.602 223.5C355.602 229.283 355.226 235.061 354.481 240.778C353.62 240.317 352.712 239.941 351.767 239.659C350.477 237.698 348.74 236.077 346.692 234.929C345.234 231.031 342.189 227.901 338.269 226.364C333.031 224.306 327.167 225.438 323.082 229.062C322.458 228.844 321.824 228.665 321.184 228.525C321.237 228.288 321.287 228.051 321.329 227.809C322.655 220.576 319.463 213.832 313.414 210.487C313.317 206.765 311.798 203.162 309.097 200.456C308.574 199.932 308.018 199.453 307.434 199.021C319.047 194.913 323.435 191.157 325.224 190.198C336.111 184.368 338.567 169.857 337.953 157.499C349.435 177.433 355.602 200.222 355.602 223.5ZM323.943 136.834C323.99 137.029 324.048 137.219 324.116 137.408C338.659 185.945 310.574 194.326 289.285 170.731C282.913 163.669 280.71 153.277 283.676 144.26C291.512 120.441 286.785 100.3 278.509 79.1432C277.691 77.0533 276.743 74.6291 276.188 72.8787C290.833 72.9656 311.332 107.331 317.854 121.16C320.384 126.524 322.4 131.786 323.943 136.834ZM269.094 82.8229C269.902 84.8892 270.8 87.1844 271.7 89.6876C256.307 84.1443 240.151 81.3384 223.534 81.3384C206.915 81.3384 190.759 84.1443 175.366 89.6876C176.266 87.1844 177.164 84.8892 177.972 82.8229C180.762 75.6872 182.736 70.6388 180.549 66.9459C184.531 65.8562 188.566 64.9139 192.649 64.1216C217.591 59.289 242.765 60.3155 266.559 66.8774C264.304 70.5756 266.286 75.6398 269.094 82.8229Z" fill="black"/>
    </g>
    <defs>
        <clipPath id="clip0_22_1597">
            <rect width="345" height="345" fill="white" transform="translate(51 51)"/>
        </clipPath>
    </defs>
</svg>
