<svg viewBox="0 0 447 447" fill="none" xmlns="http://www.w3.org/2000/svg">
    <g clip-path="url(#clip0_22_1344)">
        <path d="M360.371 293.657L334.261 302.491L75.0719 390.17C63.7846 393.986 53.0162 383.218 56.8374 371.935L57.5281 369.891L144.536 112.815L153.37 86.7051L186.723 81.9404L295.028 152.11L365.136 260.305L363.292 273.202L360.371 293.657Z" fill="#F9D11F"/>
        <path d="M360.371 293.658L334.261 302.492L75.0719 390.17C63.7846 393.987 53.0162 383.218 56.8374 371.936L57.5281 369.892C63.7078 372.565 70.7695 372.936 77.3683 370.683L363.292 273.203L360.371 293.658Z" fill="#FFA402"/>
        <path d="M360.371 293.657L334.261 302.491C332.941 296.873 331.302 290.965 329.268 284.804C319.415 254.93 300.323 219.209 264.083 182.969C220.367 139.273 177.394 120.514 144.537 112.815L153.371 86.7051L186.723 81.9404L295.029 152.11L365.137 260.305L363.292 273.202L360.371 293.657Z" fill="#FDEDA5"/>
        <path d="M360.371 293.658L334.261 302.492C332.941 296.874 331.302 290.966 329.268 284.805L363.292 273.203L360.371 293.658Z" fill="#FBDF63"/>
        <path d="M179.173 211.627C193.96 211.627 205.947 199.643 205.947 184.86C205.947 170.077 193.96 158.093 179.173 158.093C164.386 158.093 152.399 170.077 152.399 184.86C152.399 199.643 164.386 211.627 179.173 211.627Z" fill="#ED2061"/>
        <path d="M162.038 311.674C176.825 311.674 188.812 299.69 188.812 284.907C188.812 270.124 176.825 258.14 162.038 258.14C147.251 258.14 135.264 270.124 135.264 284.907C135.264 299.69 147.251 311.674 162.038 311.674Z" fill="#ED2061"/>
        <path d="M289.173 317.743L243.722 333.004C239.139 328.42 236.561 322.593 235.994 316.604C235.275 308.938 237.848 301.019 243.718 295.149C254.176 284.7 271.129 284.7 281.583 295.153C283.017 296.587 284.26 298.146 285.299 299.794C288.73 305.216 290.021 311.597 289.173 317.743Z" fill="#ED2061"/>
        <path d="M117.109 345.107C110.151 352.063 96.9531 350.145 96.9531 350.145C96.9531 350.145 95.0347 336.95 101.992 329.995C108.949 323.039 122.148 324.957 122.148 324.957C122.148 324.957 124.066 338.152 117.109 345.107Z" fill="#68C044"/>
        <path d="M238.527 246.865C243.714 255.223 238.836 267.633 238.836 267.633C238.836 267.633 225.548 266.49 220.361 258.132C215.174 249.774 220.052 237.364 220.052 237.364C220.052 237.364 233.34 238.506 238.527 246.865Z" fill="#68C044"/>
        <path d="M379.53 305.231C379.335 305.284 379.135 305.331 378.93 305.374C373.741 306.465 368.624 304.75 365.136 301.262C363.125 299.261 361.662 296.674 361.043 293.691C354.516 262.587 335.867 214.646 284.103 162.873C232.326 111.124 184.364 92.4849 153.251 85.9575C145.084 84.2419 139.852 76.2375 141.568 68.0707C141.611 67.8753 141.658 67.6752 141.701 67.4798C143.669 59.6607 151.488 54.7108 159.455 56.3879C194.585 63.7589 248.435 84.5041 305.469 141.509C362.497 198.537 383.247 252.372 390.618 287.493C392.285 295.449 387.354 303.268 379.53 305.231Z" fill="#F79E60"/>
        <path d="M379.53 305.232C380.074 303.078 380.145 300.767 379.659 298.452C372.288 263.332 351.538 209.495 294.509 152.467C237.476 95.4635 183.626 74.7177 148.496 67.3474C146.166 66.8568 143.86 66.933 141.701 67.4808C143.669 59.6617 151.488 54.7117 159.455 56.3889C194.585 63.7599 248.435 84.505 305.469 141.51C362.497 198.538 383.247 252.373 390.618 287.494C392.285 295.45 387.354 303.268 379.53 305.232Z" fill="#D77D41"/>
        <path d="M289.173 317.743L243.722 333.004C239.139 328.42 236.561 322.593 235.994 316.604L285.299 299.795C288.73 305.217 290.021 311.597 289.173 317.743Z" fill="#C71E54"/>
        <path d="M395.563 286.451C388.054 250.659 366.947 195.838 309.041 137.929C251.122 80.0414 196.289 58.9398 160.489 51.432C149.608 49.1457 138.897 56.1427 136.614 67.023C135.508 72.2944 136.522 77.6796 139.467 82.1889C141.427 85.1894 144.09 87.5579 147.204 89.1354L87.5734 265.329C86.6785 267.973 88.0962 270.841 90.7403 271.736C91.2774 271.918 91.8239 272.004 92.3609 272.004C94.468 272.004 96.4342 270.675 97.1471 268.568L147.824 118.83C188.018 129.198 225.908 151.958 260.509 186.539C273.591 199.623 285.155 213.423 294.877 227.556C295.858 228.98 297.438 229.746 299.046 229.746C300.033 229.746 301.031 229.457 301.905 228.855C304.205 227.273 304.787 224.127 303.204 221.827C293.149 207.21 281.21 192.955 267.718 179.455C267.711 179.448 267.706 179.44 267.699 179.434C267.697 179.432 267.695 179.43 267.692 179.427L267.607 179.342C267.594 179.329 267.582 179.316 267.572 179.307C267.568 179.302 267.562 179.298 267.557 179.294C231.89 143.676 192.727 120.133 151.072 109.234L156.919 91.9574C164.589 93.7841 172.386 96.158 180.167 99.0534C182.782 100.025 185.692 98.6956 186.666 96.0792C187.639 93.4634 186.307 90.5538 183.692 89.5801C173.842 85.9151 163.948 83.0291 154.283 81.0016C151.654 80.4511 149.396 78.908 147.928 76.6601C146.459 74.4116 145.954 71.7263 146.506 69.0984C147.644 63.6728 152.987 60.185 158.414 61.3238C192.871 68.5506 245.735 88.9474 301.895 145.076C358.041 201.227 378.443 254.077 385.671 288.527C386.223 291.154 385.717 293.839 384.249 296.088C382.78 298.335 380.523 299.878 377.894 300.43C374.557 301.129 371.122 300.105 368.705 297.689C367.328 296.312 366.387 294.571 365.986 292.653C359.317 260.875 340.318 211.943 287.671 159.293C261.924 133.559 234.595 113.427 206.445 99.4557C203.945 98.2125 200.913 99.2361 199.672 101.736C198.432 104.236 199.452 107.269 201.952 108.509C229.118 121.992 255.555 141.484 280.525 166.44C328.912 214.829 347.829 259.665 355.062 290.119L337.828 295.948C333.058 277.79 325.747 259.817 316.04 242.447C314.678 240.011 311.6 239.138 309.163 240.501C306.727 241.863 305.855 244.942 307.217 247.379C316.63 264.219 323.684 281.63 328.232 299.194L294.302 310.671C293.553 303.517 290.396 296.815 285.155 291.575C272.745 279.168 252.553 279.168 240.144 291.575C234.132 297.585 230.821 305.577 230.821 314.077C230.821 319.993 232.429 325.66 235.431 330.587L73.4432 385.385C70.004 386.548 66.4192 385.71 63.8533 383.143C61.2887 380.578 60.4518 376.997 61.6141 373.561L89.6925 290.595C90.5874 287.951 89.1697 285.083 86.5255 284.188C83.8821 283.293 81.0136 284.711 80.1181 287.355L52.0404 370.32C49.6537 377.372 51.4413 385.024 56.7053 390.289C60.4295 394.014 65.3465 395.999 70.4022 395.999C72.4964 395.999 74.6156 395.658 76.6829 394.959L357.913 299.826C358.859 301.664 360.08 303.357 361.561 304.837C365.397 308.672 370.515 310.755 375.805 310.755C377.188 310.755 378.584 310.613 379.97 310.322C385.241 309.216 389.766 306.124 392.712 301.616C395.657 297.108 396.67 291.721 395.563 286.451ZM245.366 327.227C242.49 323.465 240.929 318.893 240.929 314.079C240.929 308.278 243.188 302.826 247.29 298.724C255.76 290.258 269.539 290.258 278.009 298.724C282.136 302.851 284.368 308.307 284.366 314.034L245.366 327.227Z" fill="black"/>
        <path d="M156.663 162.353C150.651 168.364 147.34 176.355 147.34 184.856C147.34 193.356 150.651 201.347 156.663 207.358C162.868 213.561 171.018 216.663 179.169 216.663C187.319 216.663 195.469 213.561 201.675 207.358C207.687 201.348 210.997 193.356 210.997 184.856C210.997 176.355 207.687 168.364 201.675 162.353C189.265 149.946 169.072 149.946 156.663 162.353ZM194.528 200.209C186.059 208.676 172.28 208.676 163.81 200.209C159.707 196.108 157.448 190.655 157.448 184.855C157.448 179.055 159.707 173.602 163.81 169.501C168.045 165.267 173.606 163.15 179.169 163.15C184.731 163.15 190.294 165.268 194.528 169.501C198.63 173.602 200.89 179.055 200.89 184.855C200.89 190.655 198.63 196.108 194.528 200.209Z" fill="black"/>
        <path d="M139.527 307.408C145.731 313.611 153.882 316.714 162.033 316.714C170.183 316.714 178.334 313.611 184.539 307.408C186.512 305.434 186.513 302.235 184.539 300.261C182.566 298.287 179.366 298.286 177.392 300.26C168.923 308.727 155.142 308.726 146.673 300.26C142.571 296.159 140.312 290.706 140.312 284.906C140.312 279.106 142.571 273.653 146.673 269.552C155.142 261.086 168.923 261.086 177.392 269.552C180.85 273.009 182.993 277.394 183.589 282.232C183.931 285.002 186.451 286.978 189.224 286.63C191.994 286.288 193.963 283.766 193.622 280.996C192.747 273.899 189.606 267.47 184.539 262.404C172.129 249.997 151.937 249.997 139.527 262.404C133.516 268.414 130.205 276.406 130.205 284.906C130.204 293.406 133.515 301.398 139.527 307.408Z" fill="black"/>
        <path d="M96.2205 355.148C96.5001 355.189 98.3666 355.444 101.055 355.444C102.203 355.444 103.5 355.398 104.887 355.267C111.529 354.646 116.988 352.369 120.676 348.682C124.364 344.995 126.641 339.536 127.263 332.896C127.697 328.26 127.2 324.629 127.142 324.23C126.82 322.017 125.082 320.278 122.868 319.956C122.469 319.898 118.837 319.401 114.202 319.836C107.56 320.457 102.1 322.734 98.4124 326.422C94.7246 330.109 92.4464 335.567 91.8251 342.208C91.3912 346.843 91.8871 350.474 91.945 350.873C92.2678 353.088 94.007 354.827 96.2205 355.148ZM105.56 333.57C108.459 330.671 113.508 329.857 117.332 329.767C117.243 333.594 116.427 338.638 113.53 341.535C110.63 344.434 105.581 345.248 101.757 345.338C101.846 341.511 102.662 336.467 105.56 333.57Z" fill="black"/>
        <path d="M220.481 232.327C218.25 232.133 216.163 233.432 215.345 235.513C215.198 235.888 213.886 239.311 213.252 243.923C212.342 250.53 213.314 256.364 216.064 260.796C218.813 265.226 223.609 268.688 229.935 270.808C234.35 272.287 237.999 272.632 238.4 272.667C238.547 272.68 238.691 272.686 238.836 272.686C240.897 272.686 242.772 271.426 243.537 269.48C243.684 269.105 244.996 265.683 245.63 261.071C246.541 254.463 245.568 248.629 242.819 244.197C240.069 239.768 235.272 236.306 228.947 234.186C224.532 232.706 220.883 232.362 220.481 232.327ZM234.229 249.527C236.39 253.009 236.032 258.11 235.247 261.852C231.54 260.892 226.812 258.948 224.652 255.465C222.491 251.984 222.849 246.883 223.633 243.142C227.341 244.101 232.069 246.046 234.229 249.527Z" fill="black"/>
        <path d="M136.778 220.255C134.429 221.761 133.745 224.887 135.252 227.237L142.963 239.257C143.928 240.762 145.558 241.583 147.221 241.583C148.155 241.583 149.101 241.325 149.946 240.782C152.295 239.275 152.978 236.15 151.471 233.8L143.761 221.78C142.253 219.431 139.127 218.747 136.778 220.255Z" fill="black"/>
        <path d="M241.883 218.811L252.729 228.103C253.682 228.92 254.85 229.319 256.015 229.319C257.439 229.319 258.856 228.72 259.855 227.554C261.671 225.434 261.425 222.243 259.306 220.427L248.46 211.135C246.339 209.319 243.149 209.565 241.334 211.684C239.517 213.804 239.763 216.995 241.883 218.811Z" fill="black"/>
        <path d="M205.77 303.197L204.41 316.226C204.12 319.002 206.136 321.487 208.912 321.777C209.09 321.796 209.267 321.805 209.443 321.805C211.998 321.805 214.192 319.873 214.463 317.275L215.822 304.246C216.112 301.47 214.096 298.985 211.321 298.695C208.547 298.405 206.059 300.42 205.77 303.197Z" fill="black"/>
    </g>
    <defs>
        <clipPath id="clip0_22_1344">
            <rect width="345" height="345" fill="white" transform="translate(51 51)"/>
        </clipPath>
    </defs>
</svg>
