<svg viewBox="0 0 447 447" fill="none" xmlns="http://www.w3.org/2000/svg">
    <g clip-path="url(#clip0_22_1459)">
        <path d="M346.49 319.249C345.503 320.236 344.615 321.284 343.819 322.378L295.582 274.141L274.141 295.581L322.378 343.818C321.284 344.614 320.236 345.502 319.249 346.49C309.081 356.658 309.081 373.143 319.249 383.311C329.417 393.479 345.902 393.479 356.071 383.311C361.469 377.914 364 370.735 363.667 363.667C370.736 364 377.913 361.468 383.311 356.07C393.479 345.902 393.479 329.417 383.311 319.249C373.143 309.081 356.658 309.081 346.49 319.249Z" fill="#F3F0F3"/>
        <path d="M389.171 347.094C387.916 343.523 385.863 340.168 383.007 337.313C372.841 327.14 356.356 327.14 346.19 337.313C346.18 337.323 346.171 337.333 346.16 337.343C344.587 338.921 342.053 338.975 340.477 337.399L286.401 283.323L295.582 274.142L343.821 322.381C344.617 321.281 345.502 320.234 346.487 319.249C356.66 309.083 373.145 309.083 383.311 319.249C390.839 326.775 392.796 337.765 389.171 347.094Z" fill="#E2DEE2"/>
        <path d="M230.208 67.8359L149.103 148.941L148.94 149.104L67.8364 230.208C67.8364 230.208 133.278 304.622 217.731 312.787C223.336 313.328 228.97 313.572 234.599 313.496C246.757 313.334 258.529 312.95 270.711 314.075C273.96 314.375 277.202 314.757 280.434 315.212C286.811 316.111 292.309 318.321 298.242 320.78L320.78 298.242C318.321 292.308 316.111 286.811 315.212 280.434C314.757 277.202 314.375 273.961 314.075 270.711C312.949 258.529 313.334 246.757 313.496 234.6C313.571 228.969 313.328 223.335 312.786 217.73C304.622 133.277 230.208 67.8359 230.208 67.8359Z" fill="#D77F4A"/>
        <path d="M320.781 298.241C320.781 298.241 315.374 303.648 312.026 306.997C311.067 303.081 307.239 297.891 306.105 296.149C301.833 289.533 300.482 283.228 299.47 275.35C299.017 271.786 298.747 268.195 298.585 264.61C298.275 257.718 298.396 250.819 298.437 243.926C298.525 228.738 298.714 213.218 295.177 198.353C292.868 188.653 289.783 179.141 286.057 169.893C279.144 152.72 270.052 136.451 259.528 121.228C257.867 118.825 234.294 89.2242 221.907 76.1418L230.21 67.8389C230.21 67.8389 304.621 133.278 312.789 217.727C313.33 223.337 313.572 228.967 313.498 234.596C313.336 246.754 312.951 258.527 314.078 270.712C314.375 273.959 314.76 277.199 315.212 280.432C316.11 286.812 318.324 292.307 320.781 298.241Z" fill="#C86D36"/>
        <path d="M194.039 194.06C238.915 149.184 255.13 92.6409 230.256 67.767C205.383 42.8932 148.839 59.1081 103.963 103.984C59.0872 148.86 42.8722 205.403 67.7461 230.277C92.6199 255.151 149.163 238.936 194.039 194.06Z" fill="#E8AD8C"/>
        <path d="M194.067 194.067C161.652 226.482 123.146 243.946 94.8887 241.772C121.256 238.789 153.334 222.02 180.985 194.37C225.869 149.485 242.084 92.9365 217.208 68.0608C210.296 61.1486 200.947 57.4089 190.078 56.572C206.515 54.7089 220.739 58.2054 230.29 67.7575C255.166 92.6333 238.952 149.182 194.067 194.067Z" fill="#E19974"/>
        <path d="M180.913 180.933C216.375 145.471 230.836 102.435 213.211 84.8109C195.587 67.1865 152.552 81.6469 117.089 117.109C81.627 152.571 67.1666 195.607 84.791 213.231C102.415 230.856 145.451 216.395 180.913 180.933Z" fill="#9E5528"/>
        <path d="M180.938 180.937C148.806 213.069 110.455 227.968 90.4197 217.369C111.589 218.631 142.001 203.882 168.253 177.629C203.72 142.162 218.186 99.1206 200.554 81.4946C198.901 79.841 197.017 78.4637 194.945 77.3701C202.37 77.8155 208.668 80.2258 213.245 84.8024C230.871 102.428 216.405 145.47 180.938 180.937Z" fill="#904D24"/>
        <path d="M184.896 132.631C194.603 122.048 198.006 109.372 192.497 104.319C186.987 99.2654 174.651 103.748 164.944 114.331C155.237 124.914 151.835 137.59 157.344 142.643C162.854 147.697 175.189 143.214 184.896 132.631Z" fill="#ECBBA3"/>
        <path d="M184.88 132.603C175.173 143.181 162.839 147.67 157.331 142.614C155.623 141.048 154.766 138.739 154.698 135.991C160.605 135.161 167.943 130.874 174.193 124.057C180.89 116.759 184.583 108.463 184.421 102.367C187.681 101.895 190.51 102.489 192.468 104.284C197.983 109.341 194.58 122.018 184.88 132.603Z" fill="#E8AD8C"/>
        <path d="M386.891 315.669C385.405 314.184 383.771 312.848 382.032 311.698C379.7 310.156 376.559 310.798 375.017 313.13C373.475 315.462 374.117 318.603 376.449 320.145C382.284 324.003 385.874 330.641 385.874 337.659C385.874 343.261 383.693 348.528 379.731 352.49C375.566 356.656 369.81 358.897 363.906 358.609C362.488 358.548 361.095 359.08 360.087 360.086C359.079 361.094 358.543 362.48 358.61 363.905C358.888 369.795 356.657 375.564 352.49 379.73C344.221 387.998 331.005 387.905 322.83 379.73C318.868 375.769 316.686 370.502 316.686 364.9C316.686 359.297 318.868 354.031 322.83 350.069C325.612 347.288 329.932 344.21 325.959 340.237C325.95 340.229 305.952 320.231 305.952 320.231L320.231 305.951C320.231 305.951 340.206 325.925 340.238 325.958C342.377 328.097 346.141 327.793 347.914 325.356C348.568 324.455 349.294 323.605 350.07 322.829C352.477 320.421 355.329 318.684 358.548 317.665C361.214 316.821 362.691 313.976 361.847 311.311C361.003 308.644 358.157 307.169 355.492 308.011C351.081 309.408 346.988 311.816 343.6 314.999L325.71 297.108C325.71 297.108 321.01 285.291 320.226 279.728C318.538 267.749 318.372 255.831 318.498 243.806C318.59 234.949 318.679 226.071 317.826 217.244C313.499 172.48 290.803 133.2 272.527 108.132C255.629 84.9541 234.235 64.5405 233.87 64.1753C220.477 50.7823 198.946 47.4677 173.239 54.8387C148.57 61.9132 122.701 78.0925 100.397 100.397C78.0926 122.701 61.9134 148.57 54.8388 173.239C47.4672 198.945 50.7824 220.477 64.1741 233.869C64.5056 234.201 84.7784 255.501 108.131 272.527C128.677 287.506 151.2 300.111 175.27 308.443C182.308 310.879 189.479 312.94 196.752 314.552C208.467 317.149 220.393 318.504 232.432 318.539C248.227 318.585 263.991 318.009 279.727 320.226C285.29 321.01 296.565 325.585 296.837 325.647L314.999 343.6C309.549 349.389 306.559 356.914 306.559 364.901C306.559 373.207 309.794 381.017 315.668 386.891C321.543 392.765 329.352 396 337.659 396C345.966 396 353.775 392.765 359.65 386.891C364.613 381.927 367.724 375.432 368.542 368.542C375.431 367.724 381.927 364.613 386.891 359.65C392.764 353.776 395.999 345.966 395.999 337.659C396 329.353 392.765 321.543 386.891 315.669ZM64.5723 176.031C71.1812 152.985 86.4468 128.667 107.557 107.558C128.667 86.4473 152.985 71.1811 176.03 64.5728C184.077 62.2657 191.586 61.1222 198.398 61.1222C210.219 61.1222 219.938 64.5648 226.709 71.3347C237.381 82.0061 239.782 100.005 233.471 122.013C226.863 145.059 211.598 169.377 190.487 190.486C169.377 211.597 145.06 226.863 122.014 233.471C100.004 239.783 82.0076 237.381 71.3355 226.708C60.6627 216.037 58.2612 198.039 64.5723 176.031ZM281.139 310.199C277.815 309.73 274.494 309.365 271.172 309.086C261.685 308.285 252.192 308.175 242.592 308.312C223.406 308.586 206.182 307.149 187.797 301.812C160.732 293.955 136.965 280.988 114.295 264.49C105.715 258.245 98.2078 252.082 91.9735 246.603C94.4444 246.894 96.9955 247.044 99.6275 247.044C107.401 247.044 115.851 245.773 124.805 243.205C149.473 236.13 175.343 219.951 197.647 197.647C219.951 175.343 236.13 149.473 243.205 124.805C246.641 112.821 247.753 101.746 246.606 91.9781C252.084 98.2117 258.245 105.715 264.489 114.296C281.961 138.301 303.647 175.816 307.747 218.219C309.768 239.141 307.248 260.209 310.198 281.142C311.034 287.068 312.911 292.319 314.815 297.047L297.045 314.817C292.317 312.911 287.067 311.034 281.139 310.199Z" fill="black"/>
        <path d="M127.793 221.8C146.678 215.454 166.823 202.214 184.519 184.518C202.215 166.822 215.455 146.677 221.801 127.792C228.546 107.716 226.778 91.1773 216.823 81.2208C196.917 61.318 151.546 75.5061 113.526 113.523C107.673 119.376 102.245 125.569 97.3884 131.93C95.6923 134.153 96.1189 137.33 98.3412 139.027C100.565 140.723 103.741 140.296 105.438 138.074C110.021 132.069 115.151 126.219 120.687 120.684C153.557 87.8129 194.305 73.0204 209.663 88.3809C216.655 95.3726 217.581 108.561 212.203 124.566C206.346 141.997 193.972 160.745 177.36 177.357C160.748 193.968 142.001 206.343 124.569 212.2C108.566 217.577 95.3756 216.654 88.3833 209.66C78.8763 200.153 80.6855 179.981 93.1048 157.016C94.435 154.557 93.5192 151.485 91.0598 150.155C88.601 148.824 85.5283 149.74 84.1989 152.201C69.3423 179.671 68.2305 203.828 81.2239 216.821C87.2055 222.802 95.5616 225.828 105.636 225.828C112.326 225.828 119.78 224.493 127.793 221.8Z" fill="black"/>
        <path d="M163.335 149.762C171.028 149.762 180.498 144.871 188.61 136.022C200.577 122.968 203.707 107.722 195.892 100.557C191.766 96.7745 185.603 96.1067 178.539 98.6754C172.585 100.841 166.424 105.176 161.191 110.884C149.224 123.938 146.093 139.185 153.908 146.351C156.427 148.658 159.68 149.762 163.335 149.762ZM168.655 117.727C172.748 113.262 177.612 109.787 181.999 108.19C186.414 106.584 190.566 106.93 189.986 112.545C189.342 118.766 185.247 124.705 181.147 129.179C172.64 138.456 163.24 141.165 160.752 138.886C158.265 136.606 160.149 127.004 168.655 117.727Z" fill="black"/>
    </g>
    <defs>
        <clipPath id="clip0_22_1459">
            <rect width="345" height="345" fill="white" transform="translate(51 51)"/>
        </clipPath>
    </defs>
</svg>
