<svg viewBox="0 0 447 447" fill="none" xmlns="http://www.w3.org/2000/svg">
    <path d="M248.036 136.513C240.687 138.564 233.207 135.142 229.751 128.849C222.002 114.577 200.695 111.197 188.955 122.692C183.223 128.169 174.897 128.254 169.296 124.39C156.162 115.577 136.255 121.068 130.18 136.763C127.498 143.728 120.33 147.581 113.05 146.223C105.654 144.733 96.7254 148.629 92.3745 153.575L182.222 243.425C187.976 243.902 193.83 244.268 199.758 244.52L280.63 162.298C281.464 145.918 264.14 131.947 248.036 136.513Z" fill="#00B04B"/>
    <path d="M233.575 159.671C250.755 176.848 277.887 178.006 296.409 163.143C298.586 161.395 298.736 158.126 296.762 156.149L237.097 96.484C235.12 94.5099 231.851 94.6573 230.103 96.8367C215.24 115.356 216.398 142.491 233.575 159.671Z" fill="#FF5368"/>
    <path d="M257.401 135.847C262.663 141.109 271.196 141.109 276.458 135.847L257.401 116.788C252.137 122.05 252.137 130.583 257.401 135.847Z" fill="#FF7C8B"/>
    <path d="M179.564 231.015C175.31 228.083 173.678 222.629 175.787 217.854C180.525 207.078 173.423 194.507 162.618 192.367C157.954 191.509 153.898 187.345 153.772 181.797C153.651 170.297 141.495 161.424 130.648 164.651C125.847 166.056 120.48 164.046 117.869 159.395C112.189 149.163 96.7781 147.503 89.1212 156.023C85.481 160.179 79.8535 160.642 74.4655 159.458C63.5264 156.97 52.503 166.859 57.1434 177.425C58.4779 180.541 60.9706 183.052 63.7422 184.629C68.638 187.432 72.6967 191.399 72.0281 197.055C71.3306 203.109 73.3574 209.368 77.6767 213.89C81.488 217.746 84.5834 218.691 86.9944 219.689C87.9631 220.092 88.8238 220.502 89.5739 221.115C95.1856 224.098 102.629 227.317 112.423 230.478C133.47 237.264 159.336 241.828 187.323 243.815C186.547 238.564 183.659 233.752 179.564 231.015Z" fill="#4FE267"/>
    <path d="M180.243 148.824C154.193 148.824 133.075 169.941 133.075 195.992C133.075 205.217 135.734 213.816 140.311 221.086C162.476 225.677 187.781 228.311 214.195 228.714C222.37 220.233 227.411 208.702 227.411 195.992C227.411 169.941 206.291 148.824 180.243 148.824Z" fill="#FF5368"/>
    <path d="M193.719 195.992C193.719 203.433 187.684 209.468 180.243 209.468C172.799 209.468 166.766 203.433 166.766 195.992C166.766 188.548 172.799 182.515 180.243 182.515C187.684 182.515 193.719 188.548 193.719 195.992Z" fill="#FF7C8B"/>
    <path d="M364.508 136.321C356.769 138.013 348.689 137.35 343.464 131.415C332.472 119.244 310.341 121.615 302.184 136.231C298.436 142.875 290.729 145.747 283.833 143.741C268.261 139.129 250.808 151.806 250.634 168.233C250.452 176.161 244.627 182.107 237.931 183.336C222.415 186.389 212.218 204.351 219.022 219.744C222.049 226.564 219.706 234.357 213.597 238.545C211.191 240.145 209.081 242.243 207.346 244.67C212.571 244.849 217.846 244.941 223.16 244.941C263.297 244.941 301.337 239.803 330.269 230.475C334.144 229.225 341.135 226.54 344.306 225.29C347.91 219.43 350.708 223.334 359.896 214.079C366.1 207.62 369.009 198.679 368.006 190.032C367.048 181.949 372.878 176.285 379.906 172.278C383.883 170.028 387.463 166.44 389.382 161.987C396.046 146.894 380.216 132.768 364.508 136.321Z" fill="#4FE267"/>
    <path d="M329.014 219.899C327.426 201.516 311.965 187.037 293.18 187.037C273.341 187.037 257.201 203.177 257.201 223.016C257.201 227.801 258.149 232.368 259.852 236.548C280.217 234.113 298.989 230.241 314.974 225.087C320.328 223.358 324.976 221.615 329.014 219.899Z" fill="#C5324F"/>
    <path d="M308.944 202.801C308.944 202.754 308.944 202.706 308.944 202.661C308.909 194.091 301.89 187.071 293.319 187.037C293.272 187.037 293.227 187.037 293.18 187.037C273.341 187.037 257.201 203.177 257.201 223.016V223.155C257.222 228.477 259.939 233.199 264.045 236.024C275.352 234.544 286.131 232.615 296.17 230.265C303.974 223.661 308.944 213.801 308.944 202.801Z" fill="#FF5368"/>
    <path d="M177.548 106.478C173.615 102.548 167.182 102.548 163.253 106.478C159.323 110.408 159.323 116.841 163.253 120.771L177.548 135.066C181.477 138.995 187.91 138.995 191.84 135.066C195.77 131.136 195.77 124.703 191.84 120.771L177.548 106.478Z" fill="#FF7E40"/>
    <path d="M335.897 157.831H315.682C310.123 157.831 305.574 162.379 305.574 167.938C305.574 173.498 310.123 178.046 315.682 178.046H335.897C341.456 178.046 346.004 173.498 346.004 167.938C346.004 162.379 341.456 157.831 335.897 157.831Z" fill="#FF7E40"/>
    <path d="M111.513 179.925L97.2176 194.217C93.2852 198.15 93.2852 204.58 97.2176 208.512C101.147 212.442 107.58 212.442 111.51 208.512L125.805 194.217C129.735 190.288 129.735 183.855 125.805 179.925C121.875 175.995 115.442 175.995 111.513 179.925Z" fill="#FF7E40"/>
    <path d="M365.345 219.381H81.6721C68.5036 219.381 58.9358 232.141 62.5523 244.968C71.4226 276.403 96.3199 303.63 130.527 321.213H316.493C350.658 303.651 375.537 276.472 384.433 245.084C388.081 232.213 378.563 219.381 365.345 219.381Z" fill="#FFF9EB"/>
    <path d="M365.082 239.137L364.9 239.864C357.599 265.245 337.142 287.666 307.264 303.024C288.842 312.495 267.498 321.212 243.996 321.212H130.525C130.525 339.119 146.091 354.146 163.766 354.146H283.251C288.237 354.146 293.417 352.995 298.202 350.582C302.9 348.702 316.493 338.893 316.493 321.212C350.658 303.651 375.537 276.472 384.433 245.081C384.612 244.452 384.76 243.82 384.875 243.193C387.234 230.48 368.201 226.59 365.082 239.137Z" fill="#D3CDBF"/>
    <path d="M245.167 123.895C245.644 120.794 243.211 117.964 239.971 118.07C237.447 118.154 235.418 120.197 235.133 122.708C234.839 125.321 234.865 127.964 235.212 130.572C235.552 133.118 237.687 135.136 240.253 135.118C241.669 135.108 242.917 134.536 243.814 133.639C244.867 132.586 245.446 131.08 245.267 129.496C245.057 127.635 244.883 125.748 245.167 123.895Z" fill="black"/>
    <path d="M158.717 184.826C162.423 184.826 162.384 182.191 166.706 178.785C169.167 176.845 169.338 173.079 166.816 170.931C164.953 169.344 162.184 169.46 160.273 170.986C158.183 172.66 156.304 174.59 154.69 176.727C152.161 180.07 154.587 184.826 158.717 184.826Z" fill="black"/>
    <path d="M153.495 204.499C156.564 204.499 158.902 201.809 158.515 198.8C158.396 197.876 158.336 196.931 158.336 195.992C158.336 195.044 158.396 194.091 158.517 193.157C158.878 190.39 156.922 187.856 154.156 187.495C151.39 187.134 148.852 189.09 148.494 191.859C148.152 194.51 148.131 197.289 148.489 200.09C148.818 202.64 150.992 204.499 153.495 204.499Z" fill="black"/>
    <path d="M193.785 178.799C198.133 182.236 198.065 184.85 201.771 184.85C205.906 184.85 208.322 180.094 205.804 176.753C204.19 174.614 202.316 172.682 200.223 171.007C198.315 169.478 195.546 169.362 193.683 170.947C191.158 173.092 191.327 176.859 193.785 178.799Z" fill="black"/>
    <path d="M201.979 193.367C202.187 195.086 202.195 196.902 201.966 198.724C201.692 200.921 202.74 203.14 204.761 204.041C205.519 204.377 206.256 204.527 206.972 204.527C209.475 204.527 211.647 202.669 211.979 200.121C212.321 197.471 212.342 194.691 211.981 191.891C211.576 188.729 208.325 186.626 205.135 187.819C202.914 188.648 201.698 191.011 201.979 193.367Z" fill="black"/>
    <path d="M335.894 172.992C332.778 172.992 330.319 175.814 330.935 179.041C331.39 181.428 333.578 183.118 336.007 183.1C344.901 183.034 352 175.272 350.952 166.156C350.071 158.463 343.324 152.777 335.578 152.777H315.995C308.249 152.777 301.503 158.463 300.621 166.156C299.573 175.277 306.68 183.044 315.582 183.1C317.872 183.115 319.98 181.62 320.557 179.401C321.438 176.016 318.896 172.974 315.648 172.992C313.921 173.003 312.236 172.247 311.391 170.739C309.217 166.851 311.992 162.885 315.679 162.885H335.739C338.129 162.885 340.316 164.472 340.824 166.807C341.54 170.086 339.05 172.992 335.894 172.992Z" fill="black"/>
    <path d="M363.426 131.381C359.602 132.218 355.266 132.489 351.639 131.104C346.483 129.099 346.196 124.64 336.928 120.858C328.49 117.399 318.151 117.762 309.531 122.345C304.524 125.014 300.46 128.949 297.781 133.739V133.747C295.578 137.651 291.382 139.743 286.992 139.235L237.297 89.5431C235.323 87.569 232.125 87.569 230.148 89.5431C225.452 95.139 219.696 101.232 216.632 112.3C208.42 109.674 199.623 110.342 192.324 114.117L181.114 102.904C171.067 92.8596 153.914 100.998 155.317 115.133C143.806 115.064 132.549 121.213 127.005 131.57C126.139 133.186 125.102 134.576 123.918 135.698C122.128 137.393 121.725 140.185 123.102 142.233C124.113 143.733 125.713 144.491 127.319 144.491C128.556 144.491 129.798 144.039 130.772 143.125C132.785 141.241 134.515 138.956 135.915 136.342C140.779 127.256 152.716 122.871 162.529 126.567C164.542 127.322 166.866 126.722 168.253 124.995C170.559 122.11 169.325 119.702 166.819 117.199C165.874 116.251 165.353 114.983 165.353 113.624C165.353 109.1 170.815 106.899 173.968 110.053L188.26 124.342V124.345C189.208 125.293 189.729 126.561 189.729 127.92C189.729 132.465 184.317 134.539 181.211 131.586C179.198 129.673 176.071 129.47 174.068 131.394C166.901 138.288 184.791 149.256 195.409 138.64C199.823 134.224 200.934 127.764 198.763 122.297C203.719 120.363 209.591 120.35 214.882 122.389C213.787 137.04 218.822 152.064 230.001 163.243C234.233 167.475 239.021 170.818 244.13 173.292C240.792 178.964 236.297 177.735 230.14 180.628C223.565 159.31 203.687 143.768 180.238 143.768C157.312 143.768 137.802 158.623 130.796 179.209C129.977 173.461 116.595 167.688 107.93 176.351L93.6378 190.646C87.726 196.555 87.726 206.175 93.6378 212.087C94.6248 213.072 95.9172 213.567 97.2096 213.567C98.7889 213.567 100.368 212.832 101.387 211.363C102.79 209.347 102.382 206.626 100.689 204.844C98.8152 202.864 98.8468 199.732 100.784 197.792L115.058 183.521C117.006 181.57 120.243 181.436 122.154 183.423C124.173 185.526 127.598 185.521 129.59 183.257C128.566 187.335 128.013 191.599 128.013 195.989C128.013 202.443 129.203 208.618 131.356 214.327H87.2075C85.3887 213.577 83.5831 212.674 81.2957 210.368C78.1003 207.005 76.5105 202.248 77.0396 197.647C77.6055 192.852 76.192 185.94 66.232 180.236C64.2211 179.091 62.5971 177.34 61.7627 175.39C60.2861 172.034 61.5363 169.441 62.8445 167.857C64.8712 165.404 68.9037 163.377 73.3704 164.393C81.5484 166.193 88.492 164.401 92.8718 159.4C95.3855 156.602 99.4153 155.22 103.643 155.696C107.896 156.175 111.547 158.463 113.426 161.814C114.613 163.935 117.187 164.983 119.483 164.182C122.544 163.119 123.778 159.639 122.281 156.939C118.827 150.719 112.284 146.5 104.78 145.652C97.307 144.807 90.0476 147.421 85.3124 152.691C82.8961 155.446 78.6689 155.207 75.5787 154.528C67.9903 152.804 59.9333 155.51 55.0507 161.421C50.7735 166.601 49.8233 173.342 52.4897 179.415C54.1821 183.363 57.2881 186.774 61.2205 189.011C67.4586 192.586 67.1138 195.502 67.0006 196.476C66.1978 203.43 68.3483 210.579 72.7781 215.97C68.5088 217.607 64.7265 220.421 61.8469 224.221C57.0301 230.589 55.5114 238.648 57.6802 246.337C66.5874 277.914 90.6556 305.446 125.587 324.121C126.326 333.429 130.438 342.057 137.273 348.574C144.464 355.425 153.869 359.2 163.76 359.2H283.246C293.138 359.2 302.542 355.425 309.733 348.574C316.569 342.059 320.68 333.434 321.42 324.129C356.304 305.486 380.353 277.993 389.292 246.458C391.487 238.719 389.974 230.61 385.139 224.216C380.388 217.931 373.173 214.327 365.345 214.327H263.484C267.237 201.327 279.14 192.091 293.151 192.091H293.177C302.726 192.091 311.599 196.431 317.524 203.991C318.488 205.225 319.943 205.931 321.512 205.931C323.586 205.931 325.484 204.686 326.4 202.443C327.055 200.848 326.676 199.013 325.487 197.766L325.481 197.758C317.943 188.103 306.204 181.984 293.177 181.984C282.949 181.991 273.149 185.784 265.582 192.665C259.217 198.461 254.88 206.028 253.079 214.327H222.504C222.125 212.777 221.931 211.187 221.931 209.571C221.917 199.627 229.185 190.206 238.905 188.293C248.576 186.469 255.682 177.73 255.682 168.286C255.79 156.323 268.382 144.994 282.422 148.59C294.627 152.164 305.109 143.286 306.593 138.69C313.089 127.048 331.088 125.23 339.711 134.797C346.257 142.225 355.888 143.249 365.621 141.246C375.934 138.932 385.891 146.326 385.891 154.83C385.883 156.723 385.368 158.7 384.738 159.987C381.28 168.144 374.347 167.623 367.564 175.774C365.4 178.362 362.826 182.639 362.847 188.306C362.847 190.488 363.602 193.77 362.66 198.348C362.163 200.766 363.539 203.183 365.856 204.043C368.756 205.117 371.941 203.356 372.557 200.327C373.018 198.053 373.252 195.739 373.252 193.402C373.252 188.832 371.865 186.527 375.352 182.215C380.419 176.048 388.989 175.561 394.025 163.988V163.982C395.338 161.003 395.999 157.923 395.999 154.83C395.999 139.472 379.658 127.725 363.426 131.381ZM180.235 153.878C200.318 153.878 217.148 168.012 221.336 186.853C215.158 193.054 211.831 201.364 211.823 209.574C211.823 211.177 211.952 212.764 212.202 214.327H206.338C207.399 212.037 206.619 209.195 204.274 207.828C202.055 206.536 199.197 207.231 197.633 209.271C196.515 210.734 195.212 212.056 193.764 213.198C193.346 213.527 192.996 213.909 192.711 214.327H185.289V213.814C192.969 211.635 198.636 204.617 198.763 196.276C198.802 193.786 197.146 191.493 194.699 191.03C191.474 190.422 188.658 192.878 188.658 195.992C188.658 200.745 184.696 204.594 179.901 204.407C175.571 204.238 171.986 200.656 171.82 196.323C171.633 191.528 175.481 187.566 180.235 187.566C182.699 187.566 184.749 185.803 185.197 183.471C185.225 183.481 185.26 183.489 185.289 183.502V169.228C185.289 166.646 183.433 164.335 180.869 164.022C177.795 163.648 175.181 166.038 175.181 169.039V178.167C167.414 180.373 161.705 187.527 161.705 195.992C161.705 204.457 167.414 211.608 175.181 213.814V214.327H167.748C167.448 213.885 167.077 213.48 166.627 213.137C165.069 211.945 163.81 210.418 162.552 208.91C158.852 204.47 151.611 208.966 154.127 214.327H142.343C128.798 186.5 149.207 153.878 180.235 153.878ZM365.345 224.435C369.977 224.435 374.252 226.577 377.076 230.312C379.985 234.158 380.893 239.04 379.569 243.704C371.272 272.979 348.452 298.595 315.258 315.949H150.76C147.612 315.949 145.117 318.849 145.828 322.129C146.336 324.466 148.523 326.056 150.916 326.056H310.981C308.575 339.072 296.891 349.092 283.249 349.092H163.76C148.76 349.092 136.123 336.979 135.591 322.084C135.586 321.905 135.591 321.655 135.583 321.36C135.668 320.126 135.304 318.981 134.644 318.062C134.604 318.004 134.565 317.944 134.52 317.886C134.502 317.862 134.483 317.844 134.465 317.823C134.37 317.702 134.265 317.583 134.152 317.467C134.091 317.407 134.025 317.349 133.962 317.291C133.899 317.236 133.838 317.178 133.773 317.122C133.422 316.833 133.038 316.586 132.62 316.396C98.9073 299.011 75.7525 273.166 67.4086 243.596C66.1057 238.98 67.0164 234.142 69.9091 230.325C72.7413 226.582 77.0264 224.435 81.6642 224.435H365.345ZM255.398 146.571C254.751 143.633 252.787 143.852 249.565 139.669C247.862 137.458 244.688 137.048 242.477 138.751C240.266 140.451 239.855 143.628 241.558 145.839C243.193 147.961 245.146 149.94 247.378 151.661C248.244 152.333 249.26 152.672 250.279 152.712C248.249 155.886 246.859 159.255 246.13 162.927C223.491 150.09 218.132 120.276 233.794 100.332L250.745 117.283C249.215 120.013 248.397 123.1 248.397 126.317C248.397 131.268 250.323 135.919 253.824 139.419C254.809 140.406 256.104 140.899 257.396 140.899C261.86 140.899 264.163 135.466 260.97 132.273C259.157 130.46 258.209 127.899 258.596 125.135L271.707 138.245C265.874 139.327 260.212 142.083 255.398 146.571Z" fill="black"/>
    <path d="M248.036 136.513C240.687 138.564 233.207 135.142 229.751 128.849C222.002 114.577 200.695 111.197 188.955 122.692C183.223 128.169 174.897 128.254 169.296 124.39C156.162 115.577 136.255 121.068 130.18 136.763C127.498 143.728 120.33 147.581 113.05 146.223C105.654 144.733 96.7254 148.629 92.3745 153.575L182.222 243.425C187.976 243.902 193.83 244.268 199.758 244.52L280.63 162.298C281.464 145.918 264.14 131.947 248.036 136.513Z" fill="#00B04B"/>
    <path d="M233.575 159.671C250.755 176.848 277.887 178.006 296.409 163.143C298.586 161.395 298.736 158.126 296.762 156.149L237.097 96.484C235.12 94.5099 231.851 94.6573 230.103 96.8367C215.24 115.356 216.398 142.491 233.575 159.671Z" fill="#FF5368"/>
    <path d="M257.401 135.847C262.663 141.109 271.196 141.109 276.458 135.847L257.401 116.788C252.137 122.05 252.137 130.583 257.401 135.847Z" fill="#FF7C8B"/>
    <path d="M179.564 231.015C175.31 228.083 173.678 222.629 175.787 217.854C180.525 207.078 173.423 194.507 162.618 192.367C157.954 191.509 153.898 187.345 153.772 181.797C153.651 170.297 141.495 161.424 130.648 164.651C125.847 166.056 120.48 164.046 117.869 159.395C112.189 149.163 96.7781 147.503 89.1212 156.023C85.481 160.179 79.8535 160.642 74.4655 159.458C63.5264 156.97 52.503 166.859 57.1434 177.425C58.4779 180.541 60.9706 183.052 63.7422 184.629C68.638 187.432 72.6967 191.399 72.0281 197.055C71.3306 203.109 73.3574 209.368 77.6767 213.89C81.488 217.746 84.5834 218.691 86.9944 219.689C87.9631 220.092 88.8238 220.502 89.5739 221.115C95.1856 224.098 102.629 227.317 112.423 230.478C133.47 237.264 159.336 241.828 187.323 243.815C186.547 238.564 183.659 233.752 179.564 231.015Z" fill="#4FE267"/>
    <path d="M180.243 148.824C154.193 148.824 133.075 169.941 133.075 195.992C133.075 205.217 135.734 213.816 140.311 221.086C162.476 225.677 187.781 228.311 214.195 228.714C222.37 220.233 227.411 208.702 227.411 195.992C227.411 169.941 206.291 148.824 180.243 148.824Z" fill="#FF5368"/>
    <path d="M193.719 195.992C193.719 203.433 187.684 209.468 180.243 209.468C172.799 209.468 166.766 203.433 166.766 195.992C166.766 188.548 172.799 182.515 180.243 182.515C187.684 182.515 193.719 188.548 193.719 195.992Z" fill="#FF7C8B"/>
    <path d="M364.508 136.321C356.769 138.013 348.689 137.35 343.464 131.415C332.472 119.244 310.341 121.615 302.184 136.231C298.436 142.875 290.729 145.747 283.833 143.741C268.261 139.129 250.808 151.806 250.634 168.233C250.452 176.161 244.627 182.107 237.931 183.336C222.415 186.389 212.218 204.351 219.022 219.744C222.049 226.564 219.706 234.357 213.597 238.545C211.191 240.145 209.081 242.243 207.346 244.67C212.571 244.849 217.846 244.941 223.16 244.941C263.297 244.941 301.337 239.803 330.269 230.475C334.144 229.225 341.135 226.54 344.306 225.29C347.91 219.43 350.708 223.334 359.896 214.079C366.1 207.62 369.009 198.679 368.006 190.032C367.048 181.949 372.878 176.285 379.906 172.278C383.883 170.028 387.463 166.44 389.382 161.987C396.046 146.894 380.216 132.768 364.508 136.321Z" fill="#4FE267"/>
    <path d="M329.014 219.899C327.426 201.516 311.965 187.037 293.18 187.037C273.341 187.037 257.201 203.177 257.201 223.016C257.201 227.801 258.149 232.368 259.852 236.548C280.217 234.113 298.989 230.241 314.974 225.087C320.328 223.358 324.976 221.615 329.014 219.899Z" fill="#C5324F"/>
    <path d="M308.944 202.801C308.944 202.754 308.944 202.706 308.944 202.661C308.909 194.091 301.89 187.071 293.319 187.037C293.272 187.037 293.227 187.037 293.18 187.037C273.341 187.037 257.201 203.177 257.201 223.016V223.155C257.222 228.477 259.939 233.199 264.045 236.024C275.352 234.544 286.131 232.615 296.17 230.265C303.974 223.661 308.944 213.801 308.944 202.801Z" fill="#FF5368"/>
    <path d="M177.548 106.478C173.615 102.548 167.182 102.548 163.253 106.478C159.323 110.408 159.323 116.841 163.253 120.771L177.548 135.066C181.477 138.995 187.91 138.995 191.84 135.066C195.77 131.136 195.77 124.703 191.84 120.771L177.548 106.478Z" fill="#FF7E40"/>
    <path d="M335.897 157.831H315.682C310.123 157.831 305.574 162.379 305.574 167.938C305.574 173.498 310.123 178.046 315.682 178.046H335.897C341.456 178.046 346.004 173.498 346.004 167.938C346.004 162.379 341.456 157.831 335.897 157.831Z" fill="#FF7E40"/>
    <path d="M111.513 179.925L97.2176 194.217C93.2852 198.15 93.2852 204.58 97.2176 208.512C101.147 212.442 107.58 212.442 111.51 208.512L125.805 194.217C129.735 190.288 129.735 183.855 125.805 179.925C121.875 175.995 115.442 175.995 111.513 179.925Z" fill="#FF7E40"/>
    <path d="M365.345 219.381H81.6721C68.5036 219.381 58.9358 232.141 62.5523 244.968C71.4226 276.403 96.3199 303.63 130.527 321.213H316.493C350.658 303.651 375.537 276.472 384.433 245.084C388.081 232.213 378.563 219.381 365.345 219.381Z" fill="#FFF9EB"/>
    <path d="M365.082 239.137L364.9 239.864C357.599 265.245 337.142 287.666 307.264 303.024C288.842 312.495 267.498 321.212 243.996 321.212H130.525C130.525 339.119 146.091 354.146 163.766 354.146H283.251C288.237 354.146 293.417 352.995 298.202 350.582C302.9 348.702 316.493 338.893 316.493 321.212C350.658 303.651 375.537 276.472 384.433 245.081C384.612 244.452 384.76 243.82 384.875 243.193C387.234 230.48 368.201 226.59 365.082 239.137Z" fill="#D3CDBF"/>
    <path d="M245.167 123.895C245.644 120.794 243.211 117.964 239.971 118.07C237.447 118.154 235.418 120.197 235.133 122.708C234.839 125.321 234.865 127.964 235.212 130.572C235.552 133.118 237.687 135.136 240.253 135.118C241.669 135.108 242.917 134.536 243.814 133.639C244.867 132.586 245.446 131.08 245.267 129.496C245.057 127.635 244.883 125.748 245.167 123.895Z" fill="black"/>
    <path d="M158.717 184.826C162.423 184.826 162.384 182.191 166.706 178.785C169.167 176.845 169.338 173.079 166.816 170.931C164.953 169.344 162.184 169.46 160.273 170.986C158.183 172.66 156.304 174.59 154.69 176.727C152.161 180.07 154.587 184.826 158.717 184.826Z" fill="black"/>
    <path d="M153.495 204.499C156.564 204.499 158.902 201.809 158.515 198.8C158.396 197.876 158.336 196.931 158.336 195.992C158.336 195.044 158.396 194.091 158.517 193.157C158.878 190.39 156.922 187.856 154.156 187.495C151.39 187.134 148.852 189.09 148.494 191.859C148.152 194.51 148.131 197.289 148.489 200.09C148.818 202.64 150.992 204.499 153.495 204.499Z" fill="black"/>
    <path d="M193.785 178.799C198.133 182.236 198.065 184.85 201.771 184.85C205.906 184.85 208.322 180.094 205.804 176.753C204.19 174.614 202.316 172.682 200.223 171.007C198.315 169.478 195.546 169.362 193.683 170.947C191.158 173.092 191.327 176.859 193.785 178.799Z" fill="black"/>
    <path d="M201.979 193.367C202.187 195.086 202.195 196.902 201.966 198.724C201.692 200.921 202.74 203.14 204.761 204.041C205.519 204.377 206.256 204.527 206.972 204.527C209.475 204.527 211.647 202.669 211.979 200.121C212.321 197.471 212.342 194.691 211.981 191.891C211.576 188.729 208.325 186.626 205.135 187.819C202.914 188.648 201.698 191.011 201.979 193.367Z" fill="black"/>
    <path d="M335.894 172.992C332.778 172.992 330.319 175.814 330.935 179.041C331.39 181.428 333.578 183.118 336.007 183.1C344.901 183.034 352 175.272 350.952 166.156C350.071 158.463 343.324 152.777 335.578 152.777H315.995C308.249 152.777 301.503 158.463 300.621 166.156C299.573 175.277 306.68 183.044 315.582 183.1C317.872 183.115 319.98 181.62 320.557 179.401C321.438 176.016 318.896 172.974 315.648 172.992C313.921 173.003 312.236 172.247 311.391 170.739C309.217 166.851 311.992 162.885 315.679 162.885H335.739C338.129 162.885 340.316 164.472 340.824 166.807C341.54 170.086 339.05 172.992 335.894 172.992Z" fill="black"/>
    <path d="M363.426 131.381C359.602 132.218 355.266 132.489 351.639 131.104C346.483 129.099 346.196 124.64 336.928 120.858C328.49 117.399 318.151 117.762 309.531 122.345C304.524 125.014 300.46 128.949 297.781 133.739V133.747C295.578 137.651 291.382 139.743 286.992 139.235L237.297 89.5431C235.323 87.569 232.125 87.569 230.148 89.5431C225.452 95.139 219.696 101.232 216.632 112.3C208.42 109.674 199.623 110.342 192.324 114.117L181.114 102.904C171.067 92.8596 153.914 100.998 155.317 115.133C143.806 115.064 132.549 121.213 127.005 131.57C126.139 133.186 125.102 134.576 123.918 135.698C122.128 137.393 121.725 140.185 123.102 142.233C124.113 143.733 125.713 144.491 127.319 144.491C128.556 144.491 129.798 144.039 130.772 143.125C132.785 141.241 134.515 138.956 135.915 136.342C140.779 127.256 152.716 122.871 162.529 126.567C164.542 127.322 166.866 126.722 168.253 124.995C170.559 122.11 169.325 119.702 166.819 117.199C165.874 116.251 165.353 114.983 165.353 113.624C165.353 109.1 170.815 106.899 173.968 110.053L188.26 124.342V124.345C189.208 125.293 189.729 126.561 189.729 127.92C189.729 132.465 184.317 134.539 181.211 131.586C179.198 129.673 176.071 129.47 174.068 131.394C166.901 138.288 184.791 149.256 195.409 138.64C199.823 134.224 200.934 127.764 198.763 122.297C203.719 120.363 209.591 120.35 214.882 122.389C213.787 137.04 218.822 152.064 230.001 163.243C234.233 167.475 239.021 170.818 244.13 173.292C240.792 178.964 236.297 177.735 230.14 180.628C223.565 159.31 203.687 143.768 180.238 143.768C157.312 143.768 137.802 158.623 130.796 179.209C129.977 173.461 116.595 167.688 107.93 176.351L93.6378 190.646C87.726 196.555 87.726 206.175 93.6378 212.087C94.6248 213.072 95.9172 213.567 97.2096 213.567C98.7889 213.567 100.368 212.832 101.387 211.363C102.79 209.347 102.382 206.626 100.689 204.844C98.8152 202.864 98.8468 199.732 100.784 197.792L115.058 183.521C117.006 181.57 120.243 181.436 122.154 183.423C124.173 185.526 127.598 185.521 129.59 183.257C128.566 187.335 128.013 191.599 128.013 195.989C128.013 202.443 129.203 208.618 131.356 214.327H87.2075C85.3887 213.577 83.5831 212.674 81.2957 210.368C78.1003 207.005 76.5105 202.248 77.0396 197.647C77.6055 192.852 76.192 185.94 66.232 180.236C64.2211 179.091 62.5971 177.34 61.7627 175.39C60.2861 172.034 61.5363 169.441 62.8445 167.857C64.8712 165.404 68.9037 163.377 73.3704 164.393C81.5484 166.193 88.492 164.401 92.8718 159.4C95.3855 156.602 99.4153 155.22 103.643 155.696C107.896 156.175 111.547 158.463 113.426 161.814C114.613 163.935 117.187 164.983 119.483 164.182C122.544 163.119 123.778 159.639 122.281 156.939C118.827 150.719 112.284 146.5 104.78 145.652C97.307 144.807 90.0476 147.421 85.3124 152.691C82.8961 155.446 78.6689 155.207 75.5787 154.528C67.9903 152.804 59.9333 155.51 55.0507 161.421C50.7735 166.601 49.8233 173.342 52.4897 179.415C54.1821 183.363 57.2881 186.774 61.2205 189.011C67.4586 192.586 67.1138 195.502 67.0006 196.476C66.1978 203.43 68.3483 210.579 72.7781 215.97C68.5088 217.607 64.7265 220.421 61.8469 224.221C57.0301 230.589 55.5114 238.648 57.6802 246.337C66.5874 277.914 90.6556 305.446 125.587 324.121C126.326 333.429 130.438 342.057 137.273 348.574C144.464 355.425 153.869 359.2 163.76 359.2H283.246C293.138 359.2 302.542 355.425 309.733 348.574C316.569 342.059 320.68 333.434 321.42 324.129C356.304 305.486 380.353 277.993 389.292 246.458C391.487 238.719 389.974 230.61 385.139 224.216C380.388 217.931 373.173 214.327 365.345 214.327H263.484C267.237 201.327 279.14 192.091 293.151 192.091H293.177C302.726 192.091 311.599 196.431 317.524 203.991C318.488 205.225 319.943 205.931 321.512 205.931C323.586 205.931 325.484 204.686 326.4 202.443C327.055 200.848 326.676 199.013 325.487 197.766L325.481 197.758C317.943 188.103 306.204 181.984 293.177 181.984C282.949 181.991 273.149 185.784 265.582 192.665C259.217 198.461 254.88 206.028 253.079 214.327H222.504C222.125 212.777 221.931 211.187 221.931 209.571C221.917 199.627 229.185 190.206 238.905 188.293C248.576 186.469 255.682 177.73 255.682 168.286C255.79 156.323 268.382 144.994 282.422 148.59C294.627 152.164 305.109 143.286 306.593 138.69C313.089 127.048 331.088 125.23 339.711 134.797C346.257 142.225 355.888 143.249 365.621 141.246C375.934 138.932 385.891 146.326 385.891 154.83C385.883 156.723 385.368 158.7 384.738 159.987C381.28 168.144 374.347 167.623 367.564 175.774C365.4 178.362 362.826 182.639 362.847 188.306C362.847 190.488 363.602 193.77 362.66 198.348C362.163 200.766 363.539 203.183 365.856 204.043C368.756 205.117 371.941 203.356 372.557 200.327C373.018 198.053 373.252 195.739 373.252 193.402C373.252 188.832 371.865 186.527 375.352 182.215C380.419 176.048 388.989 175.561 394.025 163.988V163.982C395.338 161.003 395.999 157.923 395.999 154.83C395.999 139.472 379.658 127.725 363.426 131.381ZM180.235 153.878C200.318 153.878 217.148 168.012 221.336 186.853C215.158 193.054 211.831 201.364 211.823 209.574C211.823 211.177 211.952 212.764 212.202 214.327H206.338C207.399 212.037 206.619 209.195 204.274 207.828C202.055 206.536 199.197 207.231 197.633 209.271C196.515 210.734 195.212 212.056 193.764 213.198C193.346 213.527 192.996 213.909 192.711 214.327H185.289V213.814C192.969 211.635 198.636 204.617 198.763 196.276C198.802 193.786 197.146 191.493 194.699 191.03C191.474 190.422 188.658 192.878 188.658 195.992C188.658 200.745 184.696 204.594 179.901 204.407C175.571 204.238 171.986 200.656 171.82 196.323C171.633 191.528 175.481 187.566 180.235 187.566C182.699 187.566 184.749 185.803 185.197 183.471C185.225 183.481 185.26 183.489 185.289 183.502V169.228C185.289 166.646 183.433 164.335 180.869 164.022C177.795 163.648 175.181 166.038 175.181 169.039V178.167C167.414 180.373 161.705 187.527 161.705 195.992C161.705 204.457 167.414 211.608 175.181 213.814V214.327H167.748C167.448 213.885 167.077 213.48 166.627 213.137C165.069 211.945 163.81 210.418 162.552 208.91C158.852 204.47 151.611 208.966 154.127 214.327H142.343C128.798 186.5 149.207 153.878 180.235 153.878ZM365.345 224.435C369.977 224.435 374.252 226.577 377.076 230.312C379.985 234.158 380.893 239.04 379.569 243.704C371.272 272.979 348.452 298.595 315.258 315.949H150.76C147.612 315.949 145.117 318.849 145.828 322.129C146.336 324.466 148.523 326.056 150.916 326.056H310.981C308.575 339.072 296.891 349.092 283.249 349.092H163.76C148.76 349.092 136.123 336.979 135.591 322.084C135.586 321.905 135.591 321.655 135.583 321.36C135.668 320.126 135.304 318.981 134.644 318.062C134.604 318.004 134.565 317.944 134.52 317.886C134.502 317.862 134.483 317.844 134.465 317.823C134.37 317.702 134.265 317.583 134.152 317.467C134.091 317.407 134.025 317.349 133.962 317.291C133.899 317.236 133.838 317.178 133.773 317.122C133.422 316.833 133.038 316.586 132.62 316.396C98.9073 299.011 75.7525 273.166 67.4086 243.596C66.1057 238.98 67.0164 234.142 69.9091 230.325C72.7413 226.582 77.0264 224.435 81.6642 224.435H365.345ZM255.398 146.571C254.751 143.633 252.787 143.852 249.565 139.669C247.862 137.458 244.688 137.048 242.477 138.751C240.266 140.451 239.855 143.628 241.558 145.839C243.193 147.961 245.146 149.94 247.378 151.661C248.244 152.333 249.26 152.672 250.279 152.712C248.249 155.886 246.859 159.255 246.13 162.927C223.491 150.09 218.132 120.276 233.794 100.332L250.745 117.283C249.215 120.013 248.397 123.1 248.397 126.317C248.397 131.268 250.323 135.919 253.824 139.419C254.809 140.406 256.104 140.899 257.396 140.899C261.86 140.899 264.163 135.466 260.97 132.273C259.157 130.46 258.209 127.899 258.596 125.135L271.707 138.245C265.874 139.327 260.212 142.083 255.398 146.571Z" fill="black"/>
</svg>
