<svg viewBox="0 0 447 447" fill="none" xmlns="http://www.w3.org/2000/svg">
    <g clip-path="url(#clip0_22_1551)">
        <path d="M294.766 72.2961C234.173 43.9101 160.046 53.7407 108.832 101.796C54.5725 152.71 42.353 231.385 72.1495 294.816L64.4784 340.948C60.4636 365.092 81.8178 386.451 105.967 382.448L152.298 374.769C212.891 403.155 287.018 393.325 338.232 345.269C392.492 294.355 404.711 215.681 374.915 152.249L382.6 106.021C386.586 82.0452 365.427 60.8195 341.439 64.7152L294.766 72.2961Z" fill="#C86D36"/>
        <path d="M223.532 371.002C305.011 371.002 371.064 304.978 371.064 223.534C371.064 142.089 305.011 76.0654 223.532 76.0654C142.052 76.0654 75.9995 142.089 75.9995 223.534C75.9995 304.978 142.052 371.002 223.532 371.002Z" fill="#FFE177"/>
        <path d="M149.322 165.637C138.03 175.123 127.462 190.1 138.247 202.238C152.097 217.826 171.231 199.888 181.633 189.699C202.55 169.209 222.89 197.394 207.205 221.092C193.575 241.685 155.512 259.521 124.763 238.927C94.2864 218.516 102.7 163.549 136.335 149.909L149.322 165.637Z" fill="#FFF3BE"/>
        <path d="M136.335 149.91C136.335 149.91 156.783 112.622 171.307 116.228C180.556 118.525 168.388 140.121 168.388 140.121C168.388 140.121 192.466 138.81 192.705 145.092C193.201 158.174 149.323 165.637 149.323 165.637L136.335 149.91Z" fill="#FD6930"/>
        <path d="M189.619 237.645C189.619 237.645 182.421 231.676 180.472 225.517L189.619 237.645Z" fill="#FFE5C2"/>
        <path d="M157.504 248.001C157.504 248.001 155.723 239.769 155.476 232.07L157.504 248.001Z" fill="#FFE5C2"/>
        <path d="M239.845 188.026C251.17 197.471 267.776 205.237 277.83 192.486C290.74 176.113 269.712 160.436 257.85 151.992C233.995 135.009 258.166 110.031 284.26 121.3C306.934 131.091 331.192 165.416 316.325 199.303C301.591 232.89 245.991 234.28 226.645 203.575L239.845 188.026Z" fill="#FECA9C"/>
        <path d="M284.26 121.3C274.437 117.058 264.887 117.954 258.068 121.626C280.528 131.828 304.115 165.778 289.406 199.304C283.552 212.649 271.243 220.905 257.323 224.091C280.176 229.274 306.796 221.025 316.325 199.304C331.192 165.416 306.934 131.091 284.26 121.3Z" fill="#FDB97E"/>
        <path d="M226.644 203.576C226.644 203.576 186.333 190.01 187.328 175.081C187.962 165.574 211.366 173.751 211.366 173.751C211.366 173.751 205.84 150.283 211.983 148.943C224.776 146.152 239.845 188.026 239.845 188.026L226.644 203.576Z" fill="#FD6930"/>
        <path d="M280.735 243.906C266.596 248.102 250.931 257.622 255.978 273.054C262.46 292.871 287.163 284.052 300.765 278.856C328.121 268.407 335.53 302.365 311.692 317.842C290.978 331.291 248.958 332.469 228.976 301.322C209.17 270.451 238.813 223.4 275.099 224.306L280.735 243.906Z" fill="#FFF3BE"/>
        <path d="M300.766 278.856C298.848 279.589 296.711 280.393 294.436 281.179C302.619 289.437 300.476 307.647 284.774 317.842C279.388 321.339 272.559 324.004 265.054 325.489C282.227 328.968 300.225 325.288 311.692 317.842C335.531 302.365 328.121 268.407 300.766 278.856Z" fill="#FFF0AD"/>
        <path d="M275.099 224.306C275.099 224.306 308.726 198.266 320.605 207.365C328.171 213.159 308.397 228.11 308.397 228.11C308.397 228.11 331 236.511 328.712 242.367C323.949 254.561 280.735 243.907 280.735 243.907L275.099 224.306Z" fill="#FD6930"/>
        <path d="M208.818 283.481C207.489 268.795 201.24 251.564 185.113 253.472C164.404 255.922 168.186 281.874 170.601 296.231C175.459 325.104 140.701 325.678 130.22 299.262C121.112 276.308 128.235 234.887 162.714 221.436C196.886 208.104 237.185 246.428 229.149 281.817L208.818 283.481Z" fill="#FECA9C"/>
        <path d="M164.024 220.957C181.843 226.702 197.18 242.868 201.823 261.221C206.027 267.206 208.113 275.7 208.817 283.481L229.149 281.818C237.082 246.88 197.907 209.086 164.024 220.957Z" fill="#FDB97E"/>
        <path d="M229.149 281.817C229.149 281.817 248.059 319.909 236.797 329.761C229.625 336.035 218.858 313.707 218.858 313.707C218.858 313.707 206.169 334.209 200.877 330.813C189.858 323.743 208.817 283.48 208.817 283.48L229.149 281.817Z" fill="#FD6930"/>
        <path d="M380.149 151.54L382.976 134.533C383.434 131.783 381.575 129.184 378.825 128.727C376.073 128.267 373.476 130.129 373.018 132.878L369.936 151.423C415.017 251.619 358.413 366.206 248.026 383.696C215.987 388.541 183.627 383.874 154.439 370.2C153.514 369.767 152.48 369.625 151.473 369.792L105.143 377.471C84.9539 381.272 65.6178 362.013 69.4584 341.777C69.4577 341.777 77.1287 295.645 77.1287 295.645C77.297 294.635 77.1536 293.598 76.7182 292.671C30.5259 195.856 92.4802 78.5371 199.039 63.3727C231.073 58.5274 263.436 63.1937 292.625 76.8682C293.545 77.2995 294.574 77.4415 295.575 77.2793L342.248 69.6992C362.674 65.9246 381.459 86.1785 377.443 106.269C376.95 109.013 378.774 111.636 381.518 112.129C384.258 112.625 386.885 110.797 387.378 108.054C389.744 94.8845 385.447 81.2154 375.883 71.4906C366.463 61.911 353.612 57.6243 340.629 59.7347L295.483 67.0672C149.472 1.74278 1.52154 149.458 66.9146 295.526L59.4993 340.121C57.3156 353.254 61.5397 366.266 71.0876 375.819C80.6389 385.374 93.6511 389.604 106.793 387.429L151.589 380.004C298.145 445.039 445.247 298.054 380.149 151.54Z" fill="black"/>
        <path d="M223.531 71.0179C88.4074 70.7763 19.8891 235.998 115.645 331.379C172.437 390.537 274.628 390.547 331.421 331.377C427.171 235.988 358.651 70.7675 223.531 71.0179ZM223.531 365.953C144.965 365.953 81.0466 302.064 81.0466 223.532C88.2096 34.8519 358.882 34.903 366.016 223.534C366.016 302.064 302.098 365.953 223.531 365.953Z" fill="black"/>
        <path d="M324.464 164.585C320.845 144.665 304.804 124.675 286.261 116.666C272.746 110.83 253.506 112.756 245.621 126.749C241.201 134.592 241.323 146.422 254.922 156.104C261.552 160.822 275.345 170.642 276.723 180.273C277.636 186.645 272.079 193.391 265.778 194.049C259.908 194.654 252.058 191.358 244.093 184.973C242.88 181.768 239.568 173.37 235.169 165.073C226.741 149.177 218.805 142.291 210.907 144.011C201.775 146.005 203.891 160.345 204.848 166.654C193.349 163.764 177.433 165.546 183.59 181.64C174.415 188.035 163.978 202.69 150.875 203.305C144.281 203.305 138.353 196.588 138.827 190.103C139.255 184.22 143.89 177.074 151.579 170.358C154.947 169.729 163.799 167.946 172.741 165.076C189.874 159.577 198.054 152.978 197.747 144.902C197.392 135.561 182.899 135.121 176.52 134.953C179.504 127.8 183.35 114.019 172.523 111.329C164.276 109.283 155.076 114.934 144.397 128.611C138.901 135.648 134.562 142.862 132.781 145.945C95.1116 162.504 87.736 227.613 128.648 247.004C121.023 262.842 118.98 282.586 124.86 299.319C125.784 301.948 128.664 303.332 131.294 302.408C133.924 301.484 135.307 298.603 134.383 295.973C132.695 291.17 131.752 285.514 131.661 279.512C134.413 279.1 137.93 278.863 140.371 279.622C146.4 281.501 149.679 271.949 143.373 269.986C139.807 268.875 135.726 268.893 132.338 269.24C133.313 262.571 135.356 255.825 138.626 249.597C141.281 250.872 144.846 252.712 148.033 254.784C153.369 258.251 159.044 249.901 153.534 246.319C150.373 244.265 146.957 242.444 144.179 241.072C148.923 235.158 155.138 230.17 162.988 226.802C164.222 229.363 165.068 232.565 165.38 234.522C166.382 240.884 176.357 239.407 175.353 232.961C175.25 232.298 174.574 228.281 172.816 224.056C199.865 220.11 228.767 250.929 224.849 277.106L213.223 278.057C211.933 270.013 208.78 259.277 201.1 253.049C191.774 245.485 176.423 247.173 169.178 256.838C160.748 268.085 163.92 286.94 165.624 297.07C167.949 309.27 160.676 316.393 149.313 312.344C142.998 310.231 139.636 319.333 145.839 321.822C153.503 324.711 162.554 324.116 168.74 318.916C172.277 315.978 177.87 309.015 175.578 295.395C174.229 287.372 171.42 270.677 177.255 262.891C181.116 257.74 189.819 256.897 194.741 260.888C199.322 264.603 202.537 272.49 203.653 282.634C202.244 285.757 198.646 294.037 195.89 303.014C190.608 320.214 191.348 330.696 198.151 335.062C206.054 340.135 214.686 328.443 218.449 323.334C221.83 328.641 226.728 334.628 232.098 335.725C239.522 337.239 244.253 329.74 245.153 323.466C265.628 335.136 294.538 334.997 314.441 322.075C330.515 311.638 334.244 293.841 328.561 282.666C324.48 274.639 314.562 268.186 298.965 274.142C291.362 277.046 275.544 283.087 266.759 278.899C261.033 276.17 258.44 267.708 261.351 262.159C264.091 256.936 271.192 252.229 280.921 249.137C291.065 251.463 301.584 253.255 312.015 253.255C324.012 253.255 331.046 250.266 333.413 244.204C336.815 235.497 323.699 229.314 317.916 226.616C325.749 219.386 333.087 207.57 320.793 201.665C325.991 190.078 327.231 176.965 324.464 164.585ZM266.826 204.089C278.746 202.845 288.43 190.808 286.717 178.843C284.725 164.928 269.147 153.838 260.777 147.879C253.757 142.882 251.438 136.986 254.415 131.705C259.396 122.863 272.747 121.825 282.259 125.933C287.514 128.202 292.633 131.794 297.224 136.265C295.569 138.506 293.243 141.171 290.974 142.362C285.369 145.303 289.843 154.352 295.664 151.301C298.971 149.565 301.845 146.667 303.995 144.025C308.093 149.552 311.387 155.785 313.436 162.363C310.656 163.338 306.838 164.555 303.123 165.343C296.94 166.654 298.854 176.569 305.217 175.218C308.9 174.437 312.6 173.312 315.533 172.318C316.305 179.269 315.735 187.263 312.358 195.709C309.669 194.773 306.796 193.101 305.187 191.935C300.086 188.218 293.91 196.198 299.238 200.09C299.578 200.338 301.004 201.356 303.059 202.511C292.368 206.21 282.467 212.561 273.417 219.255C257.776 219.505 243.432 217.238 233.013 203.871C235.53 200.906 238.048 197.941 240.566 194.975C247.167 199.751 256.992 205.108 266.826 204.089ZM209.702 178.516C213.398 179.806 217.177 176.405 216.28 172.594C214.614 165.52 213.783 157.611 214.245 154.192C220.467 156.412 231.191 178.864 234.068 187.031C231.067 190.566 228.067 194.1 225.067 197.634C216.014 194.558 192.579 183.353 192.367 175.789C194.636 174.989 202.238 175.919 209.702 178.516ZM152.42 134.737C160.737 124.109 166.713 120.72 169.723 121.063C170.115 123.436 167.86 130.755 163.99 137.644C162.063 141.063 164.758 145.357 168.661 145.161C175.92 144.764 183.852 145.34 187.138 146.396C183.858 152.128 159.86 158.733 151.316 160.126C148.365 156.551 145.412 152.976 142.461 149.402C144.474 146.029 148.103 140.253 152.42 134.737ZM160.88 216.733C149.783 221.063 140.502 228.489 133.73 238.259C132.118 237.483 130.538 236.611 128.999 235.653C130.394 233.172 132.545 230.639 133.975 229.261C138.644 224.499 131.953 217.513 126.994 221.97C126.509 222.435 123.6 225.288 121.138 229.146C102.432 209.206 111.206 167.88 134.926 156.131C137.401 159.128 139.877 162.127 142.352 165.124C136.488 170.781 129.479 179.506 128.76 189.368C127.864 201.643 138.49 213.4 150.867 213.4C167.857 213.061 179.232 197.403 189.767 189.68C194.961 194.433 201.305 197.998 207.595 201.086C208.316 207.871 205.766 214.67 201.759 220.054C188.475 212.976 173.89 211.657 160.88 216.733ZM213.439 228.091C212.398 227.194 211.34 226.34 210.27 225.525C214.451 219.746 217.283 212.774 217.742 205.612C220.12 206.575 222.081 207.308 223.371 207.774C229.235 216.325 237.888 222.833 248.266 226.682C240.442 231.33 233.459 237.977 228.075 246.099C224.448 239.483 219.516 233.325 213.439 228.091ZM233.736 325.698C231.564 324.663 226.847 318.63 223.406 311.515C221.715 308.011 216.614 307.751 214.569 311.05C210.737 317.233 205.731 323.411 202.99 325.503C200.162 319.535 208.459 296.074 212.2 288.269L226.065 287.134C230.312 295.748 238.931 320.225 233.736 325.698ZM252.412 257.469C246.835 268.102 251.514 282.814 262.415 288.011C275.101 294.06 292.968 287.239 302.567 283.571C310.619 280.496 316.815 281.832 319.564 287.24C324.161 296.283 317.632 307.969 308.944 313.609C304.22 316.677 298.402 318.994 292.052 320.371C291.101 317.76 290.166 314.342 290.434 311.762C291.088 305.479 281.079 304.15 280.394 310.716C280.005 314.445 280.835 318.46 281.849 321.719C275.073 322.064 268.049 321.352 261.337 319.38C262.066 316.521 263.169 312.663 264.566 309.145C266.898 303.276 257.622 299.28 255.186 305.419C253.798 308.914 252.686 312.613 251.888 315.603C249.352 314.295 246.911 312.769 244.603 311.004C243.426 302.56 236.812 285.759 234.434 281.168C235.842 273.545 235.272 265.538 232.968 257.776C242.045 239.397 258.039 230.569 271.33 229.462L274.548 240.658C266.914 243.507 257.006 248.714 252.412 257.469ZM323.089 241.341C317.796 245.289 293.154 241.779 284.763 239.648C283.482 235.193 282.201 230.738 280.92 226.283C288.452 220.468 310.872 207.134 317.225 211.167C316.636 213.501 311.65 219.313 305.353 224.085C302.23 226.446 302.969 231.478 306.638 232.842C313.453 235.374 320.496 239.063 323.089 241.341Z" fill="black"/>
        <path d="M216.04 110.836C222.535 110.836 222.546 100.741 216.04 100.741C209.545 100.741 209.534 110.836 216.04 110.836Z" fill="black"/>
        <path d="M348.162 209.569C354.658 209.569 354.668 199.475 348.162 199.475C341.667 199.475 341.656 209.569 348.162 209.569Z" fill="black"/>
        <path d="M342.714 255.191C349.209 255.191 349.22 245.097 342.714 245.097C336.219 245.097 336.208 255.191 342.714 255.191Z" fill="black"/>
        <path d="M180.626 339.744C174.13 339.744 174.12 349.838 180.626 349.838C187.12 349.838 187.131 339.744 180.626 339.744Z" fill="black"/>
        <path d="M104.349 258.034C97.8538 258.034 97.8431 268.129 104.349 268.129C110.844 268.129 110.855 258.034 104.349 258.034Z" fill="black"/>
    </g>
    <defs>
        <clipPath id="clip0_22_1551">
            <rect width="345" height="345" fill="white" transform="translate(51 51)"/>
        </clipPath>
    </defs>
</svg>
