<svg viewBox="0 0 447 447" fill="none" xmlns="http://www.w3.org/2000/svg">
    <g clip-path="url(#clip0_22_1176)">
        <path d="M335.496 370.423H111.504C91.966 370.423 76.1272 354.634 76.1272 335.156V324.555C76.1272 315.267 83.6797 307.738 92.9965 307.738H354.003C363.32 307.738 370.872 315.267 370.872 324.555V335.156C370.872 354.634 355.034 370.423 335.496 370.423Z" fill="#F59705"/>
        <path d="M353.849 293.878L223.443 303.243L93.1502 293.878C83.7486 293.878 76.1272 286.28 76.1272 276.907C76.1272 267.535 83.7486 259.937 93.1502 259.937L223.161 252.468L353.849 259.937C363.251 259.937 370.872 267.535 370.872 276.907C370.872 286.28 363.251 293.878 353.849 293.878Z" fill="#CA2E43"/>
        <path d="M112.128 293.878C102.726 293.878 95.1049 286.28 95.1049 276.907C95.1049 267.535 102.726 259.937 112.128 259.937L232.675 253.012L223.161 252.468L93.1502 259.937C83.7486 259.937 76.1272 267.535 76.1272 276.907C76.1272 286.28 83.7486 293.878 93.1502 293.878L223.443 303.243L232.936 302.561L112.128 293.878Z" fill="#AC2638"/>
        <path d="M354.003 307.738H92.9965C83.6797 307.738 76.1272 315.267 76.1272 324.556V335.157C76.1272 354.634 91.9654 370.424 111.504 370.424H130.481C117.096 370.424 105.45 363.012 99.4419 352.082C97.0356 347.704 98.4848 342.14 102.751 339.526C107.285 336.748 110.3 332.877 118.698 332.877C131.797 332.877 131.797 342.295 144.896 342.295C157.996 342.295 157.996 332.877 171.096 332.877C184.196 332.877 184.196 342.295 197.296 342.295C210.396 342.295 210.396 332.877 223.495 332.877C236.594 332.877 236.594 342.295 249.692 342.295C262.791 342.295 262.791 332.877 275.891 332.877C288.991 332.877 288.991 342.295 302.091 342.295C315.191 342.295 315.191 332.877 328.292 332.877C341.392 332.877 341.392 342.295 354.493 342.295C363.031 342.295 366.007 338.296 370.669 335.51C370.733 335.398 370.808 335.268 370.872 335.157V324.556C370.872 315.267 363.32 307.738 354.003 307.738Z" fill="#EF7F02"/>
        <path d="M380.697 309.155C380.697 314.661 377.322 319.566 372.169 322.08C366.559 324.816 363.911 329.682 354.493 329.682C341.393 329.682 341.393 320.265 328.292 320.265C315.191 320.265 315.191 329.682 302.091 329.682C288.991 329.682 288.991 320.265 275.891 320.265C262.791 320.265 262.791 329.682 249.692 329.682C236.593 329.682 236.593 320.265 223.495 320.265C210.396 320.265 210.396 329.682 197.296 329.682C184.196 329.682 184.196 320.265 171.096 320.265C157.996 320.265 157.996 329.682 144.896 329.682C131.797 329.682 131.797 320.265 118.698 320.265C105.599 320.265 105.599 329.682 92.4999 329.682C83.0851 329.682 80.4371 324.817 74.8292 322.08C69.6767 319.567 66.3025 314.663 66.3025 309.156V307.985C66.3025 300.057 73.0611 293.63 81.3986 293.63H365.601C373.939 293.63 380.697 300.057 380.697 307.985V309.155Z" fill="#80D261"/>
        <path d="M85.2802 321.769V320.598C85.2802 312.67 92.0388 306.243 100.376 306.243H380.583C379.678 299.138 373.318 293.63 365.601 293.63H81.3986C73.0611 293.63 66.3025 300.057 66.3025 307.985V309.156C66.3025 314.663 69.6767 319.566 74.8292 322.08C79.2845 324.254 81.875 327.769 87.4696 329.123C86.0741 326.946 85.2802 324.429 85.2802 321.769Z" fill="#68CA44"/>
        <path d="M160.441 245.908H287.15V263.349L223.5 320.264L160.441 263.878V245.908Z" fill="#FFE177"/>
        <path d="M167.13 252.889L179.419 245.913L160.441 245.908V263.878L223.5 320.264L232.989 311.78L167.13 252.889Z" fill="#FFD23C"/>
        <path d="M380.697 248.825C380.697 254.331 377.322 259.236 372.169 261.749C366.559 264.486 363.911 269.352 354.493 269.352C341.393 269.352 341.393 259.935 328.292 259.935C315.191 259.935 315.191 269.352 302.091 269.352C288.991 269.352 288.991 259.935 275.891 259.935C262.791 259.935 262.791 269.352 249.692 269.352C236.593 269.352 236.593 259.935 223.495 259.935C210.396 259.935 210.396 269.352 197.296 269.352C184.196 269.352 184.196 259.935 171.096 259.935C157.996 259.935 157.996 269.352 144.896 269.352C131.797 269.352 131.797 259.935 118.698 259.935C105.599 259.935 105.599 269.352 92.4999 269.352C83.0851 269.352 80.4371 264.486 74.8292 261.75C69.6767 259.236 66.3025 254.333 66.3025 248.826V247.655C66.3025 239.727 73.0611 233.3 81.3986 233.3H92.2697L223.443 227.058L359.333 233.3H365.602C373.939 233.3 380.698 239.727 380.698 247.655L380.697 248.825Z" fill="#80D261"/>
        <path d="M85.2802 261.438V260.267C85.2802 252.34 92.0388 245.913 100.376 245.913H380.583C379.678 238.808 373.318 233.3 365.601 233.3H359.332L223.443 227.058L91.8648 233.3H81.3986C73.0611 233.3 66.3025 239.727 66.3025 247.655V248.825C66.3025 254.332 69.6767 259.235 74.8292 261.749C79.2845 263.923 81.8743 267.438 87.4696 268.792C86.0741 266.615 85.2802 264.099 85.2802 261.438Z" fill="#68CA44"/>
        <path d="M359.333 210.293L225.585 202.756L87.667 210.293C81.2943 210.293 76.1279 215.443 76.1279 221.796C76.1279 228.149 81.2943 233.3 87.667 233.3H92.9504C99.938 233.3 105.602 238.946 105.602 245.912V269.738C105.602 275.148 110.001 279.533 115.427 279.533C120.853 279.533 125.252 275.148 125.252 269.738V245.912C125.252 238.946 130.916 233.3 137.904 233.3H359.333C365.706 233.3 370.873 228.149 370.873 221.796C370.873 215.443 365.706 210.293 359.333 210.293Z" fill="#EA433F"/>
        <path d="M112.639 233.3H107.356C100.983 233.3 95.8167 228.149 95.8167 221.796C95.8167 215.443 100.983 210.293 107.356 210.293L235.279 203.302L225.586 202.756L87.667 210.293C81.2943 210.293 76.1279 215.443 76.1279 221.796C76.1279 228.149 81.2943 233.3 87.667 233.3H92.9504C99.938 233.3 105.602 238.946 105.602 245.912V269.738C105.602 275.148 110.001 279.533 115.427 279.533C120.853 279.533 125.252 275.148 125.252 269.738V245.912C125.252 245.782 125.268 245.655 125.271 245.525C125.064 238.741 119.495 233.3 112.639 233.3Z" fill="#E32928"/>
        <path d="M247.953 76.5874H199.047C132.019 76.5874 76.4746 125.606 66.5176 189.646C64.8299 200.501 73.2895 210.292 84.3079 210.292H362.691C373.71 210.292 382.169 200.501 380.482 189.646C370.525 125.606 314.981 76.5874 247.953 76.5874Z" fill="#F59705"/>
        <path d="M85.4953 189.647C95.4523 125.606 150.997 76.5879 218.025 76.5879H199.047C132.019 76.5879 76.4746 125.607 66.5176 189.647C64.8299 200.502 73.2895 210.293 84.3079 210.293H103.286C92.2672 210.293 83.8076 200.501 85.4953 189.647Z" fill="#EF7F02"/>
        <path d="M373.331 230.078C376.554 224.685 376.37 217.89 372.786 212.662C381.739 208.242 386.678 198.613 385.171 188.922C374.795 122.186 316.899 71.8579 247.953 71.8579C199.172 71.9575 197.628 71.6176 189.298 72.194C186.684 72.375 184.712 74.634 184.894 77.2398C185.074 79.8455 187.332 81.8087 189.955 81.6309C197.76 81.0911 199.031 81.4114 247.953 81.3175C312.424 81.3175 366.168 128.46 375.794 190.371C377.035 198.351 370.804 205.563 362.692 205.563H84.3086C76.1741 205.563 69.969 198.331 71.207 190.371C79.3022 138.306 118.681 96.3115 170.01 84.5779C172.564 83.9939 174.16 81.4568 173.574 78.9109C172.988 76.3644 170.443 74.7765 167.889 75.3579C112.698 87.9732 70.5073 133.107 61.8295 188.922C60.322 198.617 65.2657 208.244 74.2143 212.662C70.6408 217.875 70.4378 224.67 73.6697 230.078C58.1092 236.433 57.1451 258.385 72.7436 265.997C73.1585 266.2 73.5609 266.43 73.96 266.671C70.0804 273.891 70.5434 282.867 75.606 289.732C59.0505 294.604 56.3329 316.877 71.3835 325.599V335.156C71.3835 357.21 89.3813 375.152 111.504 375.152H335.497C357.619 375.152 375.617 357.21 375.617 335.156V325.598C390.66 316.881 387.958 294.606 371.394 289.732C376.499 282.81 376.885 273.785 373.05 266.663C373.445 266.424 373.844 266.197 374.255 265.997C389.85 258.391 388.898 236.436 373.331 230.078ZM359.333 215.022C363.08 215.022 366.128 218.061 366.128 221.796C366.128 225.532 363.08 228.57 359.333 228.57H307.352C304.732 228.57 302.608 230.688 302.608 233.3C302.608 235.912 304.732 238.03 307.352 238.03C361.849 237.978 362.779 237.991 365.602 238.03C376.721 238.03 379.975 252.676 370.084 257.501L361.568 262.961C359.71 263.985 357.656 264.622 354.493 264.622C343.999 264.622 342.744 255.204 328.293 255.204C313.914 255.204 312.531 264.622 302.092 264.622C291.595 264.622 290.348 255.204 275.892 255.204C261.514 255.204 260.131 264.622 249.692 264.622C239.196 264.622 237.951 255.204 223.495 255.204C209.117 255.204 207.733 264.622 197.295 264.622C186.799 264.622 185.552 255.204 171.095 255.204C156.717 255.204 155.333 264.622 144.896 264.622C137.519 264.622 135.844 260.952 129.995 257.854V245.913C129.995 241.566 133.542 238.03 137.903 238.03H286.674C289.294 238.03 291.419 235.912 291.419 233.3C291.419 230.688 289.294 228.57 286.674 228.57H137.904C128.311 228.57 120.507 236.35 120.507 245.913V269.739C120.507 272.531 118.228 274.803 115.427 274.803C112.625 274.803 110.347 272.531 110.347 269.739V245.913C110.347 236.35 102.543 228.57 92.9504 228.57H87.667C83.9202 228.57 80.8723 225.531 80.8723 221.796C80.8723 218.061 83.9202 215.022 87.667 215.022H359.333ZM353.85 289.148H265.403L287.5 269.39C290.773 271.67 294.972 274.081 302.092 274.081C316.47 274.081 317.853 264.663 328.293 264.663C338.787 264.663 340.043 274.081 354.493 274.081C359.002 274.081 362.339 273.113 365.012 271.826C368.73 279.93 362.758 289.148 353.85 289.148ZM168.6 264.819C181.245 263.121 181.838 274.081 197.296 274.081C211.674 274.081 213.058 264.663 223.495 264.663C233.991 264.663 235.237 274.081 249.692 274.081C265.48 274.081 265.403 263.067 278.399 264.82L223.501 313.91L168.6 264.819ZM93.1503 289.148C84.2605 289.148 78.2667 279.955 81.9895 271.828C88.0073 274.726 95.6661 274.667 101.147 272.623C102.493 279.254 108.384 284.263 115.426 284.263C123.46 284.263 129.995 277.747 129.995 269.739V269.172C133.313 271.515 137.549 274.08 144.896 274.08C152.02 274.08 156.221 271.667 159.495 269.385L181.596 289.148H93.1503ZM71.0469 247.654C71.0469 242.346 75.6908 238.029 81.3987 238.029C82.1786 238.029 88.5292 237.929 92.9504 238.029C97.3108 238.029 100.858 241.565 100.858 245.912V262.177C98.6165 263.65 96.4031 264.621 92.5 264.621C84.7545 264.621 83.3148 260.624 76.9149 257.501C70.229 254.238 71.1064 247.866 71.0469 247.654ZM335.497 365.693H111.504C94.6135 365.693 80.8723 351.994 80.8723 335.156V331.582C83.7228 333.146 87.3444 334.411 92.5 334.411C106.886 334.411 108.255 324.994 118.698 324.994C129.194 324.994 130.44 334.411 144.896 334.411C149.308 334.411 152.995 333.519 156.496 331.604C158.793 330.347 159.633 327.472 158.373 325.181C157.113 322.892 154.229 322.055 151.931 323.31C150.534 324.075 148.472 324.952 144.896 324.952C134.4 324.952 133.154 315.534 118.698 315.534C104.312 315.534 102.943 324.952 92.5 324.952C84.7545 324.952 83.3154 320.954 76.9149 317.831C70.2423 314.575 71.1033 308.186 71.0476 307.984C71.0476 302.677 75.6914 298.36 81.3993 298.36C81.3993 298.36 191.783 298.617 192.158 298.59L213.408 317.593C206.575 320.713 205.262 324.952 197.297 324.952C187.664 324.952 186.856 318.14 176.385 316.033C173.817 315.517 171.314 317.172 170.796 319.733C170.277 322.293 171.939 324.788 174.507 325.305C181.791 326.771 184.239 334.411 197.297 334.411C211.675 334.411 213.058 324.994 223.496 324.994C233.991 324.994 235.238 334.411 249.693 334.411C264.08 334.411 265.448 324.994 275.893 324.994C286.389 324.994 287.636 334.411 302.093 334.411C316.472 334.411 317.854 324.994 328.294 324.994C338.788 324.994 340.044 334.411 354.495 334.411C359.654 334.411 363.278 333.144 366.129 331.58C365.925 333.472 367.279 341.662 361.806 350.786C356.451 359.707 346.661 365.693 335.497 365.693ZM375.953 307.984C375.861 308.315 376.884 314.514 370.084 317.831C363.739 320.926 362.204 324.952 354.493 324.952C343.999 324.952 342.744 315.534 328.293 315.534C313.914 315.534 312.531 324.952 302.092 324.952C291.595 324.952 290.348 315.534 275.892 315.534C261.514 315.534 260.131 324.952 249.692 324.952C241.739 324.952 240.402 320.709 233.589 317.596L254.876 298.561C254.94 298.57 354.562 298.804 357.576 298.283C358.364 298.421 358.165 298.331 365.601 298.36C371.309 298.36 375.953 302.678 375.953 307.984Z" fill="black"/>
        <path d="M146.459 122.203L136.635 131.997C134.782 133.844 134.782 136.839 136.635 138.686C138.487 140.533 141.492 140.533 143.344 138.686L153.169 128.891C155.021 127.044 155.021 124.049 153.169 122.203C151.316 120.356 148.311 120.356 146.459 122.203Z" fill="black"/>
        <path d="M221.942 138.686L231.767 128.891C233.62 127.044 233.62 124.049 231.767 122.203C229.914 120.356 226.91 120.356 225.058 122.203L215.233 131.997C213.38 133.844 213.38 136.839 215.233 138.686C217.086 140.533 220.09 140.533 221.942 138.686Z" fill="black"/>
        <path d="M300.541 138.686L310.366 128.891C312.219 127.044 312.219 124.049 310.366 122.203C308.513 120.356 305.509 120.356 303.657 122.203L293.832 131.997C291.979 133.844 291.979 136.839 293.832 138.686C295.685 140.533 298.688 140.533 300.541 138.686Z" fill="black"/>
        <path d="M271.067 176.154C272.92 174.307 272.92 171.312 271.067 169.466L261.242 159.671C259.389 157.824 256.385 157.824 254.533 159.671C252.68 161.519 252.68 164.514 254.533 166.36L264.358 176.154C266.21 178.002 269.214 178.002 271.067 176.154Z" fill="black"/>
        <path d="M185.758 176.154C187.611 178.002 190.615 178.002 192.468 176.154C194.32 174.307 194.32 171.312 192.468 169.466L182.643 159.671C180.79 157.824 177.786 157.824 175.934 159.671C174.081 161.519 174.081 164.514 175.934 166.36L185.758 176.154Z" fill="black"/>
    </g>
    <defs>
        <clipPath id="clip0_22_1176">
            <rect width="324" height="323" fill="white" transform="translate(61.5 62)"/>
        </clipPath>
    </defs>
</svg>
