<svg viewBox="0 0 447 447" fill="none" xmlns="http://www.w3.org/2000/svg">
    <g clip-path="url(#clip0_22_1175)">
        <path d="M322.84 223.499H134.564L158.099 411.814H299.305L322.84 223.499Z" fill="#E41F2D"/>
        <path d="M322.84 223.499H134.564L158.099 411.814H195.981L175.938 251.432C175.09 244.647 180.379 238.655 187.215 238.655H320.945L322.84 223.499Z" fill="#C41926"/>
        <path d="M158.099 176.42C164.598 176.42 169.866 171.151 169.866 164.65C169.866 158.15 164.598 152.881 158.099 152.881C151.6 152.881 146.332 158.15 146.332 164.65C146.332 171.151 151.6 176.42 158.099 176.42Z" fill="#E41F2D"/>
        <path d="M140.448 270.579H316.957L305.189 364.736H152.216L140.448 270.579Z" fill="#FFE02F"/>
        <path d="M140.448 270.579L152.216 364.736H190.098L178.331 270.579H140.448Z" fill="#FBC700"/>
        <path d="M122.797 199.96H334.608V223.499H122.797V199.96Z" fill="#EAF6FF"/>
        <path d="M122.797 199.96H160.68V223.499H122.797V199.96Z" fill="#D8ECFE"/>
        <path d="M169.866 35.1836H452.28V58.7229H169.866V35.1836Z" fill="#FD4755"/>
        <path d="M169.866 58.7227H452.28V82.2619H169.866V58.7227Z" fill="#FD4755"/>
        <path d="M239.927 199.959C219.896 185.637 223.306 166.938 233.614 157.869C245.404 147.592 244.157 137.3 234.894 127.441C223.685 115.511 220.968 104.41 234.044 91.7711C245.025 81.1564 248.056 71.0525 233.914 58.7236H210.922C225.065 71.0525 222.034 81.1564 211.052 91.7711C197.977 104.409 200.693 115.511 211.902 127.441C221.165 137.301 222.413 147.592 210.622 157.869C200.315 166.938 196.905 185.637 216.935 199.959H239.927Z" fill="#FFE02F"/>
        <path d="M262.918 199.959C242.887 185.637 246.297 166.938 256.605 157.869C268.395 147.592 267.148 137.3 257.885 127.441C246.676 115.511 243.959 104.41 257.035 91.7711C268.016 81.1564 271.047 71.0525 256.905 58.7236H233.913C248.056 71.0525 245.025 81.1564 234.043 91.7711C220.968 104.409 223.685 115.511 234.893 127.441C244.156 137.301 245.404 147.592 233.613 157.869C223.306 166.938 219.896 185.637 239.926 199.959H262.918Z" fill="#FBC700"/>
        <path d="M285.91 199.959C265.879 185.637 269.289 166.938 279.596 157.869C291.387 147.592 290.14 137.3 280.877 127.441C269.668 115.511 266.951 104.41 280.027 91.7711C291.008 81.1564 294.039 71.0525 279.896 58.7236H256.904C271.047 71.0525 268.016 81.1564 257.034 91.7711C243.959 104.409 246.676 115.511 257.884 127.441C267.147 137.301 268.395 147.592 256.604 157.869C246.297 166.938 242.887 185.637 262.917 199.959H285.91Z" fill="#FFE02F"/>
        <path d="M228.702 341.196C241.7 341.196 252.237 330.657 252.237 317.657C252.237 304.657 241.7 294.118 228.702 294.118C215.705 294.118 205.168 304.657 205.168 317.657C205.168 330.657 215.705 341.196 228.702 341.196Z" fill="#EAF6FF"/>
        <path d="M227.898 317.657C227.898 308.779 232.812 301.049 240.067 297.04C236.698 295.178 232.824 294.118 228.702 294.118C215.705 294.118 205.168 304.657 205.168 317.657C205.168 330.657 215.705 341.196 228.702 341.196C232.824 341.196 236.698 340.136 240.067 338.274C232.812 334.264 227.898 326.535 227.898 317.657Z" fill="#D8ECFE"/>
        <path d="M457.963 35.1836C457.963 32.044 455.419 29.5 452.281 29.5H169.866C166.728 29.5 164.184 32.044 164.184 35.1836L164.183 82.2652C164.183 85.4048 166.727 87.9488 169.865 87.9488H206.83C192.877 101.621 193.182 115.816 207.76 131.333C215.672 139.154 215.375 146.577 206.868 153.602C194.821 164.2 193.839 181.754 202.968 194.279H122.8C119.661 194.279 117.117 196.823 117.117 199.962V223.5C117.117 226.64 119.661 229.184 122.8 229.184H129.55L152.461 412.522C152.816 415.366 155.234 417.5 158.1 417.5H299.304C302.169 417.5 304.587 415.366 304.942 412.522L315.163 330.754C315.553 327.639 313.344 324.799 310.23 324.408C307.111 324.027 304.276 326.228 303.886 329.343L300.173 359.053H157.232L146.886 276.261H310.523L306.962 304.759C306.572 307.874 308.781 310.715 311.895 311.104C314.693 311.448 316.807 309.802 318.238 306.169L327.86 229.182H334.61C337.748 229.182 340.292 226.638 340.292 223.498V199.961C340.292 196.821 337.748 194.277 334.61 194.277H287.794C278.275 186.891 271.693 172.391 283.329 162.153C296.153 150.975 296.597 135.873 285.018 123.548C270.117 107.687 281.571 101.765 290.774 87.9473H366.985C370.124 87.9473 372.668 85.4033 372.668 82.2637C372.668 79.124 370.124 76.58 366.985 76.58H295.03C295.367 72.3567 294.412 68.2986 292.165 64.4057H446.6V76.58H391.753C388.615 76.58 386.071 79.124 386.071 82.2637C386.071 85.4033 388.615 87.9473 391.753 87.9473H452.282C455.42 87.9473 457.965 85.4033 457.965 82.2637L457.963 35.1836ZM446.598 40.8672V53.0362H175.548V40.8672H446.598ZM175.548 64.4065H208.721C213.405 67.8561 215.362 71.9142 214.592 76.5808H175.548V64.4065ZM214.355 162.154C227.177 150.977 227.623 135.875 216.043 123.549C205.61 112.444 205.337 105.198 215 95.8581C223.22 87.9139 229.518 75.5562 223.191 64.4073H231.713C240.925 73.229 237.798 80.238 230.094 87.6836C215.864 101.438 216.079 115.716 230.752 131.334C238.664 139.155 238.366 146.578 229.859 153.602C217.814 164.2 216.831 181.753 225.958 194.277H218.817C209.3 186.888 202.72 172.391 214.355 162.154ZM298.752 370.419L294.287 406.133H163.116L158.653 370.419H298.752ZM328.928 217.816H241.085C237.947 217.816 235.402 220.36 235.402 223.499C235.402 226.639 237.947 229.183 241.085 229.183H316.406L311.944 264.894H145.466L141.003 229.183H216.317C219.455 229.183 222 226.639 222 223.499C222 220.36 219.455 217.816 216.317 217.816H128.482V205.645H328.928V217.816ZM241.811 194.278C232.293 186.891 225.71 172.392 237.347 162.153C250.169 150.976 250.615 135.873 239.034 123.549C228.601 112.444 228.328 105.197 237.992 95.8574C246.212 87.9132 252.51 75.5555 246.182 64.4065H254.704C263.916 73.2282 260.79 80.2373 253.087 87.6828C238.857 101.437 239.072 115.715 253.745 131.333C261.656 139.154 261.359 146.577 252.852 153.601C240.806 164.2 239.823 181.753 248.952 194.279L241.811 194.278ZM283.729 74.7567C283.822 78.389 281.319 82.6168 276.077 87.6836C261.847 101.438 262.062 115.716 276.736 131.334C284.647 139.155 284.35 146.579 275.843 153.603C263.798 164.2 262.814 181.753 271.942 194.277H264.8C255.283 186.89 248.703 172.392 260.338 162.155C273.161 150.978 273.606 135.875 262.026 123.55C251.593 112.445 251.32 105.199 260.984 95.8589C269.204 87.9147 275.501 75.557 269.175 64.408H277.697C281.621 68.166 283.649 71.6414 283.729 74.7567Z" fill="black"/>
        <path d="M199.486 317.657C199.486 333.771 212.592 346.88 228.702 346.88C244.812 346.88 257.919 333.77 257.919 317.657C257.919 301.543 244.812 288.434 228.702 288.434C212.592 288.434 199.486 301.543 199.486 317.657ZM246.554 317.657C246.554 327.502 238.546 335.512 228.702 335.512C218.859 335.512 210.851 327.502 210.851 317.657C210.851 307.811 218.859 299.801 228.702 299.801C238.546 299.801 246.554 307.811 246.554 317.657Z" fill="black"/>
        <path d="M130.975 137.522C133.355 135.475 133.195 131.703 130.975 129.484L122.655 121.161C120.436 118.942 116.838 118.942 114.619 121.161C112.4 123.381 112.4 126.979 114.619 129.199L122.94 137.521C125.342 139.509 128.372 139.761 130.975 137.522Z" fill="black"/>
        <path d="M319.233 137.522C321.452 135.302 321.452 131.704 319.233 129.484L310.913 121.162C308.694 118.943 305.095 118.943 302.877 121.162C300.658 123.382 300.658 126.98 302.877 129.2L311.198 137.522C313.877 139.741 316.555 139.741 319.233 137.522Z" fill="black"/>
        <path d="M169.723 125.752L178.044 117.43C180.263 115.209 180.263 111.611 178.044 109.392C175.825 107.173 172.227 107.173 170.008 109.392L161.688 117.714C159.469 119.934 159.469 123.532 161.688 125.752C162.797 126.862 166.507 128.267 169.723 125.752Z" fill="black"/>
        <path d="M322.698 184.601L331.019 176.279C333.238 174.059 333.238 170.461 331.019 168.242C328.8 166.022 325.202 166.021 322.983 168.241L314.662 176.563C312.443 178.782 312.53 182.297 314.662 184.6C316.65 186.746 320.454 186.699 322.698 184.601Z" fill="black"/>
        <path d="M158.099 182.104C167.721 182.104 175.548 174.274 175.548 164.651C175.548 155.027 167.72 147.198 158.099 147.198C148.477 147.198 140.649 155.027 140.649 164.651C140.649 174.274 148.477 182.104 158.099 182.104ZM158.099 158.565C161.454 158.565 164.183 161.295 164.183 164.651C164.183 168.007 161.454 170.737 158.099 170.737C154.744 170.737 152.014 168.007 152.014 164.651C152.014 161.295 154.744 158.565 158.099 158.565Z" fill="black"/>
    </g>
    <defs>
        <clipPath id="clip0_22_1175">
            <rect width="264" height="388" fill="white" transform="translate(91.5 29.5)"/>
        </clipPath>
    </defs>
</svg>
