<svg viewBox="0 0 447 447" fill="none" xmlns="http://www.w3.org/2000/svg">
    <path d="M360.992 266.451C354.841 206.667 284.903 164.887 204.78 173.131C124.658 181.375 64.6923 236.521 70.8436 296.305L72.4203 311.643L357.197 282.339C360.163 282.034 362.322 279.38 362.016 276.414L360.992 266.451Z" fill="#DAD8DB"/>
    <path d="M126.753 290.488C122.186 242.407 154.048 197.113 203.519 173.287C124.034 181.978 64.724 236.84 70.8437 296.305L72.4204 311.643L128.214 305.9L126.753 290.488Z" fill="#C8C5C9"/>
    <path d="M66.856 312.511L82.1329 327.788C86.1864 331.839 91.6823 334.115 97.4125 334.115H349.587C355.318 334.115 360.813 331.839 364.864 327.788L380.144 312.511H66.856Z" fill="#C8C5C9"/>
    <path d="M221.613 138.821L214.248 151.077C209.239 159.418 197.623 160.613 191.019 153.467L181.315 142.967L221.613 138.821Z" fill="#DAD8DB"/>
    <path d="M66.856 312.511L82.1329 327.788C86.1864 331.839 91.6823 334.116 97.4125 334.116H174.887L164.082 312.509H66.856V312.511Z" fill="#B6B1B7"/>
    <path d="M390.946 307.458H336.932C334.139 307.458 331.878 309.719 331.878 312.511C331.878 315.301 334.139 317.565 336.932 317.565H367.941L361.293 324.214C358.166 327.341 354.009 329.062 349.587 329.062H97.4125C92.9905 329.062 88.8344 327.341 85.7074 324.214L79.056 317.565H315.328C318.118 317.565 320.381 315.301 320.381 312.511C320.381 309.719 318.118 307.458 315.328 307.458H162.469L363.088 286.814C364.42 286.677 365.644 286.016 366.491 284.976C367.336 283.937 367.733 282.605 367.597 281.27L366.02 265.936C362.877 235.395 344.123 208.407 313.217 189.943C284.068 172.531 247.339 164.688 209.297 167.659L208.707 161.937C212.792 160.402 216.259 157.544 218.581 153.68L225.945 141.422C226.93 139.782 226.903 137.724 225.877 136.11C224.85 134.494 223.003 133.594 221.094 133.794L180.796 137.94C178.893 138.137 177.264 139.39 176.587 141.183C175.908 142.972 176.303 144.991 177.603 146.397L187.305 156.899C190.367 160.21 194.344 162.311 198.655 162.979L199.242 168.691C161.392 173.532 127.029 188.687 102.037 211.671C75.5368 236.042 62.6735 266.283 65.8163 296.824L66.9113 307.458H56.0537C53.2636 307.458 51 309.719 51 312.511C51 315.301 53.2636 317.565 56.0537 317.565H64.7635L78.5611 331.363C83.5964 336.398 90.29 339.17 97.4125 339.17H349.587C356.71 339.17 363.404 336.398 368.439 331.363L382.237 317.565H390.946C393.736 317.565 396 315.301 396 312.511C396 309.719 393.736 307.458 390.946 307.458ZM191.885 146.96L212.074 144.883L209.916 148.476C208.355 151.074 205.73 152.743 202.714 153.054C199.698 153.364 196.789 152.264 194.731 150.037L191.885 146.96ZM205.296 178.159C282.518 170.215 350.109 210.055 355.965 266.97L357.026 277.277L76.9319 306.097L75.8711 295.789C70.0146 238.875 128.074 186.105 205.296 178.159Z" fill="black"/>
    <path d="M353.483 199.079C353.483 201.869 355.747 204.133 358.537 204.133C361.329 204.133 363.59 201.869 363.59 199.079C363.59 193.57 365.433 191.119 367.981 187.724C370.837 183.918 374.395 179.183 374.395 170.302C374.395 161.413 370.839 156.67 367.983 152.859C365.433 149.458 363.59 147.002 363.59 141.477C363.59 135.955 365.433 133.499 367.983 130.098C370.839 126.287 374.393 121.544 374.393 112.655C374.393 109.865 372.132 107.602 369.339 107.602C366.549 107.602 364.285 109.865 364.285 112.655C364.285 118.178 362.443 120.636 359.895 124.037C357.039 127.845 353.483 132.588 353.483 141.477C353.483 150.369 357.039 155.112 359.895 158.92C362.443 162.324 364.285 164.78 364.285 170.302C364.285 175.811 362.445 178.261 359.897 181.657C357.039 185.463 353.483 190.198 353.483 199.079Z" fill="black"/>
    <path d="M376.864 145.544C376.972 145.681 377.077 145.815 377.188 145.965C380.444 150.313 385.892 157.589 385.892 170.304C385.892 174.213 385.363 177.951 384.316 181.412C383.51 184.084 385.021 186.905 387.693 187.711C388.18 187.858 388.672 187.929 389.156 187.929C391.328 187.929 393.334 186.518 393.992 184.334C395.323 179.922 396 175.203 396 170.304C396 154.225 388.759 144.554 385.274 139.901C385.129 139.706 384.979 139.511 384.826 139.319C384.666 139.111 384.5 138.906 384.35 138.685C382.787 136.371 379.646 135.763 377.333 137.326C375.019 138.887 374.411 142.03 375.975 144.341C376.288 144.807 376.593 145.199 376.864 145.544Z" fill="black"/>
    <path d="M343.054 172.46C343.141 172.573 343.231 172.686 343.32 172.802C344.189 174.323 345.831 175.345 347.716 175.345C350.506 175.345 352.77 173.057 352.77 170.267C352.77 169.267 352.472 168.291 351.917 167.459C351.604 166.99 351.301 166.601 351.033 166.256C350.925 166.119 350.819 165.98 350.693 165.811C347.437 161.465 341.983 154.195 341.983 141.477C341.983 135.67 343.094 130.477 345.381 125.6C346.566 123.073 345.476 120.064 342.949 118.88C340.422 117.696 337.414 118.785 336.229 121.312C333.342 127.474 331.878 134.257 331.878 141.477C331.878 157.565 339.125 167.23 342.586 171.844C342.739 172.052 342.897 172.255 343.054 172.46Z" fill="black"/>
</svg>
